<mxfile host="app.diagrams.net" agent="Mozilla/5.0 (Windows NT 10.0; Win64; x64; rv:137.0) Gecko/20100101 Firefox/137.0" version="26.2.9">
  <diagram name="PÃ¡gina-1" id="MbUxHQd-8TXdnNWrmXDS">
    <mxGraphModel dx="1385" dy="756" grid="1" gridSize="10" guides="1" tooltips="1" connect="1" arrows="1" fold="1" page="1" pageScale="1" pageWidth="1169" pageHeight="827" math="0" shadow="0">
      <root>
        <mxCell id="0" />
        <mxCell id="1" parent="0" />
        <mxCell id="S7uSwl5i3R4dip4OoaD3-1" value="&lt;font style=&quot;font-size: 20px;&quot;&gt;Agencia de Transporte&lt;/font&gt;" style="rounded=0;whiteSpace=wrap;html=1;fillColor=light-dark(#FFFFFF,#97D077);strokeColor=light-dark(#000000,#000000);fontColor=light-dark(#000000,#000000);" vertex="1" parent="1">
          <mxGeometry x="40" y="40" width="200" height="120" as="geometry" />
        </mxCell>
        <mxCell id="S7uSwl5i3R4dip4OoaD3-3" value="" style="shape=image;verticalLabelPosition=bottom;labelBackgroundColor=default;verticalAlign=top;aspect=fixed;imageAspect=0;image=data:image/png,iVBORw0KGgoAAAANSUhEUgAAAvsAAALkCAYAAACRAfoAAAAgAElEQVR4Xuy9TahdS5bnt2TsgbuNuwcFzoIqrCtqclTSIOV20mA8KJrXtq6o6kLpNyjdfnI7c9CFSejB1X0DI0TyEB483TsrcNWgsrEe9+ZAXcLuRFfgxO6BJ6YwLzFS6YApdAUuXGnIgfsDT6/3V+wdH2tFrNgf5+x9zl85eXnu3vHxWysi/hGxIvaN6+If4R8IgAAIgAAIgAAIgAAIgMDOEbgBsb9zNkWFQAAEQAAEQAAEQAAEQKAiALEPRwABEAABEAABEAABEACBHSUAsb+jhkW1QAAEQAAEQAAEQAAEQABiHz4AAiAAAiAAAiAAAiAAAjtKAGJ/Rw2LaoEACIAACIAACIAACIAAxD58AARAAARAAARAAARAAAR2lADE/o4aFtUCARAAARAAARAAARAAAYh9+AAIgAAIgAAIgAAIgAAI7CgBiP0dNSyqBQIgAAIgAAIgAAIgAAIQ+/ABEAABEAABEAABEAABENhRAhD7O2pYVAsEQAAEQAAEQAAEQAAEIPbhAyAAAiAAAiAAAiAAAiCwowQg9nfUsKgWCIAACIAACIAACIAACEDswwdAAARAAARAAARAAARAYEcJQOzvqGFRLRAAARAAARAAARAAARCA2IcPgAAIgAAIgAAIgAAIgMCOEoDY31HDologAAIgAAIgAAIgAAIgkCH21/Tk4DadfRKg3T+n68tHxR8v6MGNI7os/uvw5TW9+WJzkNdf3qLbL67KnOn8+g2VpUn+++YB3XhclvaAjt99pNM7yTcSD2g5ScnE3s8tY2eLKrebx/Th6pRW2iq2bOIvbNrO2uLjORAAARAAARAAARDYdwLji/33T+jW3TMqJffByQf6+LVaWg62xcXhDTp6WyajF8XdBGGsycmUYr9GpBXXdt0g9ge7FxIAARAAARAAARAAgcUR6Cf2oyvEWNlvd0ByV9Ir97EmC/b71iRKtULfPn9ABzev6OpTkXSv8hifFsq1OJefqsAWn3aXa6q8kC4IgAAIgAAIgAAI6AhMIPZ1Ge/uU0NFsfx+t3ORDlMyzx6cnNPDV0d1+BXE/oRuB7E/IVwkDQIgAAIgAAIg0JPABGI/srLPxIC7ISnm3TIM5zmt79ax/2SvlNor3FWlO+Erx+yHoTVtvpGY/SAMpsgtHZq0AbGfEu0to5LNKX1rzlqk3os6UaJehmOZx1drul2dg+hCjrqJipWJXx47jat79KQ5+1G9wZTdt09nm66spZ1P35mzHHXebBhU4FdMnlId/9tjWv83deia888rc8iAmbT5bQS7BD27NrwGAiAAAiAAAiBQEugn9gN2tmjhxT4nnE0ynUjzDpSaB4zgkQ6MNn/nxb6QppkksGI/EXcfFc2xd9Mr8qownqgA7PKvuVJ3sHoTYt/zjUpYkzkEzTQ6u0ypA8FWvdnJQ3tWI2E/T/DHfNM5/yGU7zAp9nWHrqVyaM9ooEsDARAAARAAARAAAZ/AhsS+sNrfiicjgl1hzq/6eyuuZRo/PapuAuLEPn9ot8znnI7KG3sYsS8d2tUd5h1R7HP+mhLszup4efPO0J0GUwjlyn71uDepKVfNv7xHH6vbmpp/3CTLEdNdGmH4kj+hKQ+B17+tvypvgHJt0PoRd+7B/k3aQWInm/7ELRLGE/h5zaCtV5O+///NM0/vbPagO7pJEAABEAABEACB3SHQT+znHtBNrdi2K7Kd2A/CZSxRJq10hmJfEUfNiM5WdAX1jJSv9QmduOZWcet6DZkscJMqXXnSLq0V+8JNSFyYTJWp9bwUUsWIZWdlP7CTbPdg4hAJ4wr8IHpNqyZPgXJTfmqvjmUmTGkD4QkQAAEQAAEQAAEQCAgsR+wr7sMPxb5CnAfpxiYIivSUK+kqsd+KWGvHIzbREgW1bXf9taSutwwQ+9HJXj+x74Q7tQU1q+2yDX0f+W7k2wybFvvl/kQYntTXXujtQAAEQAAEQAAEQKBvzH7vlf2UcImIaUsw6lf2LZEsxbnHxP6EK/uy8wmiWlF/mqXYT9Wnr9jvCDoTp8rO3+3OKXh291f2O7Ef+uboYj8VgmU7hT1BynkPvRoIgAAIgAAIgAAIWAQ2s7IvxUUXBamE2quHzZddYyvnwup2KYqerar3uzAILt7bFnNlWk9pVX4x9xfhF3Sl2HzdR7uGhs1I7ytX9wP3ltLLLWfflX1+lZ1lqQ7jsePz6wq7wvyH9KfW157ZmH0zCZB80xLbbUiZNozHE+fyWY+6Hq8/r2PyyzrY8fnBTtUWP1iHXhMEQAAEQAAEQGCZBPqJfa6u7QoqfxiXvz2lSYh5l7viUrw1JYh5tg5PpmLFGbFfSMdiMtBc+xmtK/fHxE0wyasUZVHd1T+1Q2KXSzF58A/Usr7cV+w3E7oXwcWUTS59VvZlxsENRGxdXH5R37TZJELJ5Ks14/5kJiNiObgDwkk/WmaHhFKDAAiAAAiAAAiMS2BjYr8qNhe77YgWRUx8kIbmnv1QbKXv2ecFZfoaxOnEvjMJUYu9ba/seyvvjf8evjwnelxOqPqI/SIRZhLX2cbdTfhw5yndbicb/ESJnUj6jJPnRjzbJ+/Z9+/8D/3UmfRiZX/c3g+pgQAIgAAIgMAeEMgQ+1oakY9qaZPAcyAwiIDiFqZB6eNlEAABEAABEAABEFgGgfHFvuYg6TLYoJSLJQCxv1jToeAgAAIgAAIgAAKjEhhR7PvhK5qvxY5aFyQGAg0BiH24AgiAAAiAAAiAAAiUBCYS+zkHSGEIEBibAMT+2ESRHgiAAAiAAAiAwDIJjCj2lwkApQYBEAABEAABEAABEACBXSUAsb+rlkW9QAAEQAAEQAAEQAAE9p4AxP7euwAAgAAIgAAIgAAIgAAI7CoBiP1dtSzqBQIgAAIgAAIgAAIgsPcEIPb33gUAAARAAARAAARAAARAYFcJQOzvqmVRLxAAARAAARAAARAAgb0nALG/9y4AACAAAiAAAiAAAiAAArtKAGJ/Vy2LeoEACIAACIAACIAACOw9AYj9vXcBAAABEAABEAABEAABENhVAhD7u2pZ1AsEQAAEQAAEQAAEQGDvCUDs770LAAAIgAAIgAAIgAAIgMCuEoDY31XLol4gAAIgAAIgAAIgAAJ7TwBif+9dAABAAARAAARAAARAAAR2lQDE/q5aFvUCARAAARAAARAAARDYewIQ+3vvAgAAAiAAAiAAAiAAAiCwqwQg9nfVsqgXCIAACIAACIAACIDA3hOA2N97FwAAEAABEAABEAABEACBXSUAsb+rlkW9QAAEQAAEQAAEQAAE9p4AxP7euwAAgAAIgAAIgAAIgAAI7CoBiP1dtSzqBQIgAAIgAAIgAAIgsPcEIPb33gUAAARAAARAAARAAARAYFcJQOzvqmVRLxAAARAAARAAARAAgb0nALG/9y4AACAAAiAAAiAAAiAAArtKAGJ/Vy2LeoEACIAACIAACIAACOw9AYj9vXcBAAABEAABEAABEAABENhVAhD7u2pZ1AsEQAAEQAAEQAAEQGDvCUDs770LAAAIgAAIgAAIgAAIgMCuEliI2L+gBzeOiF5e05sv5mqKNT05uE2vP/9AH79ezbWQKNcsCSzBv2cJboOF2hMbffOAbjwmOr9+Q49y6ZbvPlvRh6tTyusB94RtLk88DwIgAAIjEcgT+9VAcOlkfXCyAXH7/gnduntG1OZVC+uzT4f9BqWR4LnJ1APW5f1zur7MHiYnKdFuJWpsztTq5rFKYFwc3qCjt/b7B3T87iOd3tkyqcC/t1weZB8SmMxG8+rL1l/eotsvqFe7qNtXjz55DLbN2DTleFTXbyZ9BtooCIAACGQQyBL79UBwxSZ/OOWquyj259TxQuxn+F2PRxu+vPcpJn2RyQL1ECg9aiC+MobYGbM8SGsLYn8efdnSxT5NuNhiFgs2O9ahMaoIoA9VYcJD+0ugh9j3V32MCJtQMC2iIUPsT9uMhvJtxD55uwBmt2pCkZDksgj/TtZitx/YExstVuzvivftiZ+Nbi5wGx0pEtwtAiOIfaLJtzcX0ZCHitHdcqzxazOUryD2qUlXGQo0fr2KFBfh35PUfDmJ7omNIPa37JJ74mejUwa30ZEiwd0iMKHYF8ImvBXUMI66BuxslTIN2Y8PlUKMunSkMBDFjkSTvx/A5G7nKsWoKi2OnVtOrr6HL8+JHrsHmStOaz+mPbHK7fi4F17QlH91ckzrF2dkM6l4kH+ug38/CAZLim0lX7F99hX7xhZMmIUmTpg550LEM+nOpAiVgO9UZ3eyfYf1Was99bSRqu8qTcnarfMBNtZdsDV57cS07+PVGZ1Fz6Po+j+d2Of7p8P7l3Tpx+xrfFYl1BJ9IpeGxLC0Scux5rL2z54x6bFsMurH9Zl22BHvT3a/rxtTg94jcdaurtcqCIUM/dIcpP5Aq2flmTk7J3d8yhp3NAxJtj8FZ7EqBWHVRwrh9Pv0SF+/W7oPtdlDAsPFvhAGwa72N892IrlsXE/o3pV98wOz0qoQ+77tgo6qTOPLe/TRPjyrEWvCyq/UEcYP6PKryPzEJXJIznSO9sBvdej2JETd6Zo0nckYI5Ctjrk7DGcLCasD5dIsynnr3alzY5GZuMRjYacR+6o4XMFPkgcSM5nGxT58h/r6DuuzTY/R20bKvivSf5z/QX27mNiXeGdJTDuxD6F2ApGZvNhtWdn/acS+uhzavlMh9pPlUo0RXB8yROzr2qQ92etsJwjLCAvdmBqMhMmLI3LFfnVFh+1bjAZQjztKH+ljf0OC7eO5MbSdUMzj/Mwe6lFUeUICPcR+eEA3vAFBEmZNB7eK31jDCnXnNh5ugLQoBZMKiaBCQEppmdXC9mDyeGmlOjbx70xZtZ1uPM11dzuHMBjx70ur6Z49FIN9YfF60GJMqTswp13d4XyFG9TT9h7K1CmJ0g/hO4z92IG9fm5UGxXpBX2Xoi/SvxPe3MNPOJXtzrQpS7il/KcgVt+E5p99yam733cq2n+yXEEafPsM+8MBYl/ZJsUwPe59kUXfMVXbT+lX9sMFrdAntONOOYEvb/gL+nDPR/Lt30p9cbKjW2SaUH0haRDYIIEeYt+sOFviyT/cGNs+LSuXCNkYJvZzYrC1HSF/A1FZlWB1O3LQM3abkZNWbCWSG1SNwwwQ+1JIgkm67Yy3LfajB2kZQd8+7w1IFmPNZCEYbNQiTm7NKab2m/AdgaNCKMbORAz1e79U2bt0THuOCRt/dVfaXeLFVlDaQAglRRUzQWhllXf1Zq7PRne2En1iaGNuYYmbqPQX+4PrFywYFSQlfx4wprK7P5YrZK/sM32w74dasZ/LsByJ2etVE9xY31Lt7G9QjSErEJiQwACxX5eK3SJjY2CtWnBbgEElrW1p1RatXR5+G04c2CMCUi0GIoOgOxgqxF/1iCdcrTKK4SO9xX7sWspqGjLiyr6cV/yO7PTEjF39byeW8kBfrCulr+70fDAZwsPGmNq2TzO1n9b7IXwnaGHihGCg34v9XOdPaT8JdwNi7/hiPEfsa/q/McW+2mc1E7ZEn8iJ5FZIVn3nd5tvs3jnwZp+u0/M/uD65Yj9nDGVG2Kc993xcZtiX82wh/2rV2KLMmq/m1CBIWkQ2BCBwWK/jUf040O9sBu2Pmy8LLMVrhX7kcbLb9mlBWR68GulvDI2Mv+DNf6EanyxnwiLso03cGXfX5msklZ1umlbxdsMH36g38q1379HTxQfUNMIPW399X7oUoDvxP2rt42UfZfGbjm7AewKKvMhK39lVdv/pcsrt8Ocejheqmr/cb+WVvZff35Mq+IigTr8j1sEGrqyr+jPE6vOK/sbNX1WqHPEAhPStk2xn/Y3vnLBImMfbord2Ry0eBYE5kxguNgvahcKOGUojdDYggFYJfbjcar8oK4QkOqtvjHT8l3GHZAkgcrtsrD1Fjv8qzB20i/KILEv2Eg12Cv4Rlua5B9KXy3SbgemkxWdvbDOMQj5qicSmvqr/RC+E5gjexGAMaifhrbvUtgtaKPiO6Gvalf2tf1fWnyF5wZqWuZMTXhQOPlVW43/BybxRLqfBrdqzrZTvl8xbdcuuxTK17t+OSv7I14R7It73uaMPTkb27a3wnO1445ZeU8yzLV/+7zcv7MLT3NWaygbCAwgMIrY5xqsu4X6qGt6RVzn0zsf6ttYGNHZbevlhfGkBqmw87YOfCrjwMOrNp/S6t1HOr1jDXYjpFUyaBm1ItMS4m38pmHkhiM45fRvSrBjP52zE4YHdy3kmp5fNzcmDRL7TNiXVZ7hYTyxlpA6WKi5gcHymeRVobYA6sfUrU1n45gfwncUQt15pKffa/su62B5azdvohAKI87WvP21Yl/b/6X60RJd0LfbfYpw5WG071SIfa1fd7HZcoiWf0bHXySx48ijYt8K1etVP3ZCIotT1ZjKLs5Y/Tc3aQh82b4MwQ5x5H4X+iX1uDNSvxaZDHHceJbCDUkDBBZeBYG5EBhH7Aszfv7wjSd8/FjEQkSdf/6ajux7fxUr+5p4VP+Zg5NzevjqiM4StwMF8fPGepxYTn6JVRiErLQ4boEQZrh9+GpNt5mbDfx6lwPT0U+5+/ftztxyUUWIFi8SOIEd1t98HyCIm2VFGdd0FDH3kVtEzGTVuU5OaKGGpX4lqj/TsAjwneommE8dGZXvJMVkTxtp+i575dM2aPIMDmfrcEKqFfvV1NO7j5zr/zRin0+rWMC5+6S4WYW88y9pn9WE8SX7xMDG3A5EZ2e3/fr2L/uTIzr37t+P9nGWT1ZmtseGnDAeezJVJZT+vgofnmScjfPtsL/0+ZZ8ym+muPfvd7sg53RER9Z3Hbj+UD/upH0kaf8e3MIyQ+zPRZiiHOMTyBL742ePFEclgBjEUXFyiWnF0OQFGTsD+M7YRJHeNglU/syF2nG39GyzoEvKe2go5ZLqirKCwG4RgNjfJXtCsE1sTX18/8QFGT95+M74TJHi1giIk/LkLs/WiryAjCH2F2AkFBEEWAIQ+7vkGBBs01pTcdhy2gJMmDp8Z0K4SHrzBITQrLIgqvM2my/x/HOE2J+/jVBCEOAJQOzvlGeUnbF9aHinKrf1ylQxqBT/+vPWC9m7APCd3ujw4qwJ5J+zmXV1tli4OgRq/dU1vflii8VA1iAAAtkEIPazkeEFEAABEAABEAABEAABEFgGAYj9ZdgJpQQBEAABEAABEAABEACBbAIQ+9nI8AIIgAAIgAAIgAAIgAAILIMAxP4y7IRSggAIgAAIgAAIgAAIgEA2AYj9bGR4AQRAAARAAARAAARAAASWQQBifxl2QilBAARAAARAAARAAARAIJsAxH42MrwAAiAAAiAAAiAAAiAAAssgALG/DDuhlCAAAiAAAiAAAiAAAiCQTQBiPxsZXgABEAABEAABEAABEACBZRCA2F+GnVBKEAABEAABEAABEAABEMgmALGfjQwvgAAIgAAIgAAIgAAIgMAyCEDsL8NOKCUIgAAIgAAIgAAIgAAIZBOA2M9GhhdAAARAAARAAARAAARAYBkEIPaXYSeUEgRAAARAAARAAARAAASyCUDsZyPDCyAAAiAAAiAAAiAAAiCwDAIQ+8uwE0oJAiAAAiAAAiAAAiAAAtkEIPazkeEFEAABEAABEAABEAABEFgGAYj9ZdgJpQQBEAABEAABEAABEACBbAIQ+9nI8AIIgAAIgAAIgAAIgAAILIMAxP4y7IRSggAIgAAIgAAIgAAIgEA2AYj9bGR4AQRAAARAAARAAARAAASWQQBifxl2QilBAARAAARAAARAAARAIJsAxH42siW+8CdLLDTKDAITEfjHE6WLZEGgLwH00X3J5b33oHj8N/JewdMgsAMEIPZ3wIjpKmAgSTPCE/tDAGJ/f2y9lJqij96MpSD2N8MZucyNAMT+3CwySXkwkEyCFYkulADE/kINt8PFRh+9GeNC7G+GM3KZGwGI/blZZJLyYCCZBCsSXSgBiP2FGm6Hi40+ejPGhdjfDGfkMjcCEPtzs8gk5cFAMglWJLpQAhD7CzXcDhcbffRmjAuxvxnOyGVuBCD252aRScqDgWQSrEh0oQQg9hdquB0uNvrozRgXYn8znJHL3AhA7M/NIpOUBwPJUKzrL5/S7fe/R9eX3xuaFN7fOoH5i/31l7fo9quH9OHqlFZb57X9AlQ8XhAdv/tIp3e2X562BN88oBvPViPYCX30ZqwKsV+1pffPi7Hs0WaQI5dZEIDYj5ghNcBcHN6go7eHdH79hubdbDCQDGttv6QnBz+mM/qsGNS/D/E1DOYM3p6/2A/6lvdP6NbdM7q6f75/g3RTdzr5QB+/ntfUZ7wxAH30ZjqGfRf762Isu12MZccjTFBli9Xtgvv7dvWSU66mLy1/e3pnfn3L2O0BYh9if2yf2sH0NiT2v/kjuvH4PR2+/GN688UOYuxVpSnYL1js35x2kO5loolfqgZomuckB2I/0/hb7+OWIfbH8yvfPpsQ+00enzjfONji7twFPbjxlFbl7iA1iydVEbdZpsz2M+BxiH2I/QHusy+vTiE4GXZbHwjnaM8p2C9Q7M/RNBsp0wVdfPOIHs108jueKNuTlf2t93EQ+9Ov7G9iQrGRzmenMlmM2K9Daq4a+JuZiSGMZ6d8fUBlphCcEPs6g0zBHmJfxx5PpQhA7KcIeX+H2FcBG8+vtriyP3GokAokHmoJLELsu0K/s97hy+tJwx36iP2qka6P6Xh1RmdOzJo3QTExuL4zDtmmF9J0wkLe/1kR+/tzWp18RusXPyczfSqLUT1HdShJ9+/Xim23592huOr9X9DDd79H67s/oUu7/DfdmPbqUOuL79DxyS/p7MWv6ifv/6A55NqIuE8egPbv9e91Gs27zaNdff682JbzylA9c6c4R/GjnucomDRv3qFDel/U1YvZbwYutwYeL1VnI7BoedZlWhc2WxU2q5mbfHQMWFsEPMsfuLJ0PKt0Xn2XPnz113Tb8ZNiM/Tkx0VM9XesGgv1asvePMr6ZJHnS6IjL4/WT6uV3iE+1KPvaNrX6uS4aDtF/HxVfCsGtTys+dhpEcXf+7X7cLAvt6CP6NLE7Ev9hxXTL8XNDuk32TS9PkvVBzasDoI4fBMCYLh69W5cRlc3Lpygb8wwn9bh/Uu69M9tafwg6BfklX19m9P1BWIbr9obWX2n6Xe8dt20V/La+8XhH4Zx2m0flurjtO053j+lu9tuZb89BP/VuujL3HYb+KVyvK41w6oY89bFmNeMrjnnbIR8nPKw/lWOrX6oW9N2bCg3D4seq/BZW4gr65Zma57Qruxz5evCFPX2YdLx++ZKSzC2acdAezzQpafnMY8nFyD2JfAFwCHCWMG/t9ivRD4jAuzGWDTYW+9OnQNnZlLTbzBuOHED71tL/DYdddkNdeLMHiQssWqetQU4+34nym3B1wn1UADXA4P3u7/qIwwqrenKv3/5m/TRviGnSSMUngqDF4+YAaubUFiDiz2Z4dgY8dn3IK+46mXZx5sMkZIBawtTB6te9XPlrSfWBM9Cx9vUMHLtGbIsEmLybH9zfNJkKq/s9/ehniv71qAoigFnwGUGPWW7T4p9350bAdD1HWXeT+jelX15AN9H6FqGGSyvikUBa2BkDs92QjzWB/qivilFkF4o9k0/6drAjBNdnqn+W1vv8jkuT7ae7EFqjfhJiP1qwcNuX0yby+wL7D6yE+r2Qole7Jt+gVtYciYFkZV9TXtO9U9pm3pivxLk9oTc+KX9W+hbkk90C5PDog/ElX3jX+w4Xy7YdW3T+KfbJxSHcz952knZJ6XZ5on91O4Fz5KxT8nky3uFDrCuSWEWE9j0OJ7K9PQ85vHk/MW+NOss+c1W7PurR5rOvhRC9aGRXrdOBIO9O3iuzKFPQUDznSgjtEQB3ghSS4yaASAU3uGzdWmb/FbN6n9K7LNtSEpb0+AS5bJEvDjoVIPZL0WxHC1FUuxrdywkW4Qivh5gvZX7pNhnJgNB2WU7BMKAmwC0oCSxP8SHBop9pt8RhWXVLtfxQ2miYLb7EX6Fu8YU+5vrcakBVvZPuQ8zK/nmmlA+j/B9bnEj5OjXLdKXegP8eGI/UXdrZb+/H6TEvqbNcdbz20lq8txH7CfSXFs7oqk+zl/M8MaE8cU+c52rP5ZKYyuFE1Z+IqoZe3TtVPZpfyIv9Qkb0CItl7De9gQ91RfF29Klu+gQZCUtEoT2TpUjt4/Nt/Zm3pi/2DcDGcdjMWK/XDGuw3ui92YPEPtSqJPB1gruycR+2OGLHbO1O8C6Obf164UIyc1jgNgXJxdh3dgta6tQvW7UyR4IJQp6sW/Ce9qwJ2HnxuSUsmm7ihebqPm7L9FJnSAkBvnQMLHPTcblq+ZqctHduoFiv85bt5KoG9g4v4rssNY1bK8glvII+sBgFZwTIv6gHZnY+OnFdmKyxlc5T7+u/f2gh9hXLYb4fYHcP/oTfyLtyr4UPmQgWxMIqY/TtudE/5Q2q7+yz4h9rz3GJo1+2xtrghltQ+x1397EQ9QSGxT7qZh9KxyJ6x9FliqdpBf7JrwnfoW6fkEl7YPbeWIBYr/bQvUR9Qt30YNONVyuQaoHOuXsV1va9CDTXOc4B7HPxrpbNY3G7bur26LoDlaIFCTVYl+KRTd59InbL97tKfY1DCSRHoj9qgpe/YLdGmaV0WcXO4jnP9tH7A/yoZ5x26kB9JPkY1yYQPhsfNVLGGzE2PfSn7gzBK4wV7SK+pHYDmv5d2vhRd8HNosgRrywfPmzCvzuJ8fIi7XPiZ9u4WjFfuzKwTKx2IRsHLGf7gsmEPtaoV4ikPqFrPYs909pf84X+7EJsq8RUpohXb76Ce3umJ2e806qr3KEuOy34ZkaTQ2UE4q6pvVZpCZZO78csS/qH6u9S+lxYl+TnobEnJ5ZhNgvgbkr17pVrKGg4zH0fPhVhFcAACAASURBVMypdqBjV+NUM1a+VvFOxhpI5iD2VStSTD3NgNCITzZOtFmNupxU7JvYfm1YjdITe4h9LYM8sd+V14+7H3Nlv9396CP2B/tQj3vbI+1Tu2KubfdhehEhy62gsbHjkojQ+Kd+ZUvbB1a5WiESp++4r+Tmr+xLYZBhDLOm3pYgYSYK/Mp+n8nkcLGv6wsmEPs5fW5iZd8/9JuyEHsuKPpSvthPr+yPf06k98q+6QsyxL62T0rZovt7jtg3b4Wx+Fqxz+u0/iv72vT0PObx5GLE/lZwCQNmVZbMwdTdwhYawwCxbwZNfiY+vti/8sNqmAOrcnxlM+CoQ3M88dnEgP7CizevnxoQxmPeleoWHGT91bgfwOoh9sOtd55BX7Hvb+VL5zBCoSHbODiI10fsS7ZSdBRV/qmQOi6dSPuMLwx4A5ovznuG8UQn+EKcsXZSElZfOFDLcMoS++15g+IGs3Vxg1kwcRFi9j+FgjptgzqtdfaXeKW6S4eCvUPMCp8kSon9XwW3XfltTtcXmFVxf6HChOKEMfv+wknYB0hpygs2YZhj3zFBCDUSmYcHdP0xM/AjcfcsPPA+7cq+cEie1SPCYfzgQOoEWsRELaTCeHwbNWVbNYeMpfMPvn34/qa/2Nemp2rWM3oIYj9hjHY7xz4f0G6PhzsM2oEuWGUaHF/abcW54U2l0/+T4qtxze0qI63sV5eKeVdDXnpXKsYOU7W3ungr8OWA9fROc9VbKX6f/XpxzuH7tKo6tPra0CtvZZ+9VajPyn6RhVkpatO0t5edSYAZHLmrSf+anve5+pOZMKUmMOHAy9/coxX7Dv8ic19QdLfxWLc5GUbs1avFLSLMoW37N2NXaVWPvaXDKpuTVmPDtA+Nu7LfbUdzV22uC3+ob8XRtvvkyn5qYYC5ZaLbmu6z8lwU3vR73lmpavB9/7y4Ure+DUPbB5qu194yD0MzmR0FrhzMb2W6T+98aG88S08G5MGg3Vlmrz5lDlKzV652fhDmlBb75TtBv8QsQKT6w6DvdcJw+DBJI87Z9l8WLNYHvP+95rrlsA+3OWjGhFT/lNZW3G08JdfGT1gf58ZWfrwdS+zLvmommNxtQW7fY9pVULdq7O7OD2r7pDRb84RmZb9+Zv2Vf3tQVwc7miNmn3BSYIUG9Qjj0aan5zGPJyH2FXZwQ4jMC/yAqR/owji5w5fnRI/7rDx5jeyTVynmykhfWOXfxvMDevjqJ/U1Xs0/f7UmdXOCPXB0qTBXf9rV8QSlH6N6cNKUy9zoo7Cv+0gYj1/W6/Rdc7+8mXhULwkH03pONMoUnfr4kykhXQ0DrdjnbBJep1rE7L/8Lr1+bH+ngQ9pSqVXYUyF5Hgxwbaf9fOhxEF5yWdSAlu6TIC7jtNpN2G7T4p9TTy+/0wxwJ9//pqOinvA44fRIo1GyDe88i/sH93dTSuPNk2uT42fVXBK6oXZcP12vxjkOhc/jrdK6+6T4ral8m565opTH2P0vEBK7OvanKYvCPqZ4oeyjT9//2PnZq66+H4fV7bz79F59d0P7/59Ie7eHxf4Pq7OLdWeVf1JtM9nwnhePiz6MvPdjPJlzg+5uPZwsW8ssR+LZff/VldXV+aynVbhcq8eWpeFjK1FYmdXOmZcXLzdj7QsFfYJ2+Z5oU+O6GzVLeoMidk/OAnTi7rZDP8IsT9Do4xfpBE/xZ4SZuMXHinOiEBqAjejokaK0vM2nmVUDqVcJAGF2Be+fTFWdfkwoLFSn0s6ipj9uRR1z8sx3sRpz0E21YfY3ws/gNjfCzNvoJIQ+xuAjCz2kADE/maMDrG/Gc7Dc4HYH87QTgFif1yeM00NYn+mhllcsSD2F2cyFHgRBCD2N2MmiP3NcB6eC8T+cIYQ++MyXEBqI4r9Kobzn3cHfhdQexRxRAL+oekRk95cUgjj2Rxr5KQjEOmjN9XmNpWPDshET3Vivzpw/mwV/9DlRKVAsgoCsI8Ckv4RrOzrWS34yTHF/oIxoOggUBGA2IcjzI0A+ujNWMQS+5vJELmAwCwIQOzPwgxTFwIDydSEkf6SCEDsL8la+1FW9NGbsTPE/mY4I5e5EYDYn5tFJinPP50kVSQKAssk8F8ts9go9Q4TQB+9GeP+50U2v76ZrJALCMyIAMT+jIyBooAACIAACIAACIAACIDAmAQg9sekibRAAARAAARAAARAAARAYEYEIPZnZAwUBQRAAARAAARAAARAAATGJACxPyZNpAUCIAACIAACIAACIAACMyIAsT8jY/hFqT4q8f45XV8+mnEpF1q090/o1t0zuqIDOn73kU7vrOnJwW16/fkH+vj1asaVuii+c/C0+M5BWeYZFxNFAwEQAAEQAAEQmAUBiP1ZmIErRC0+z+i4++iHEaj3zzEBGGK38mMdjy+7FCqeVIjoI7qcO9um7Icvr+nNF0MgzOfdi8MbdPTWTLrmUy6UBARAAARAAAR2gQDE/mytGBH7N60JwNjlbyYUdDL3Fe7+Fa/F5SGdX7+hbs+kXDHvL/b5NPuXUXxzZ8U+0S5NYCawPJIEARAAARAAgV4EIPZ7YdvES4zY30S2+yL21/6ECWJ/E+6FPEAABEAABEAABDZLAGJ/s7wzcoPYz4CV9Wi1Cg+xn8UMD4MACIAACIAACCyTAMR+xG5GFB6vzujsrfVgFUbzQ/rTMqb+k/V7EO/dCHb7mfLx4LlmVdkuy81DOqTL4n/2CnS4+lwd4n1xFdTiwAnDqd9bnxzT6sVZkaZfl1Mqj6TWoSh+Una4i7Y+XhrNbsHKjzNnQlJE5u1B2ibt9oCtl1csxMmP1a9eNbHi/Mo+z8QKORHK0fLvU86mSpxtD+8XXvH20gt56WmXMh+WSWfzZP2LJOpyruj4ZE1nji/W6ZDvV56N6vepOSidaV/jW4VvrwvfdlpCz/bIct+hMxLLHKpQahAAARAAgb4EIPZTYr8Sv534cYSAJSa4Q4bswUNJ4Bb5dDHLlnhzhFEoSC8Ob9G3X9s3s5h3bZFuTSaCMnux0pEwHm19AqS5Yt9j3gpSW7wVHG+9O3VuzjG2ScV+a1f2TXrcxKmQ207Mvxiz37ecZpJg298S5nYdh9rlyhHFpf88IPqZuaHoCd27Ys42WOXq2oR1yNaeRDDP2uUPxb7xV5cxaw9rMtXZybQB99CvitMehLH1HSzwHgiAAAiAwDIJQOwnxb7yIGcg4qUY8EaIrMyNOonnEiv7XPFF8eSvdHLCRhQ72vowJcoW+z5zZUiTUqjpxH4kz8bW9iQg64Cuopzsare1Et+J5f52EfNI9GV+Xfl0BH5M3YP3xUPIzERWYtm3PSpss8yuHqUGARAAARDYVwIQ+1OJfSl8w+RnVjtFccGJJd0hUrXYJxPeY928I5VHWx+O52Cx34QYBXH2XmZKoaYT+xHWzBWoY4v92E5BeW1oK/YH2CWrzBbqqcV+bBISrM4n/LUNHVNzknbV9nWIQL1BAARAAASWTgBifyqxz8ZCW5mZVfahYl8UMXYIgyRcM8S+tj4bE/tCnHqRvxt2ExZIJfajEwcunIq7zrPMu1851WK/t12UuyVi+n5omxdzb+rt7EwVOBQr+7FJSDAR0Ir9TE5u3L6/07T0bh/lBwEQAAEQ2CcCEPtTiX3lKjMnfuoiaVb2G9GZPPA4gtjX1mdDYp+Nv1aWUSX2m10P9iNbTD6SQO1bTrXYV9aZM0tyZZ/ZwSjT2f7KviW+tWK/LyczSZj7x9b2adRCXUEABEAABLIIQOxPJfaNWEx+AIsX7GYScBU7oCsImEnCeNT1YYAK5TQ3vYSHTcOVVFeg6+PBRZGbvHqTO+jcTMOaG5DS5e5fTumwcchM8B9FN5A80CzEzk8t9s2B7HCHhqmrVuwP8F9+cqgAjEdAAARAAARAYAYEIPYnE/vmSsLiMkBvVbAUD0/vdHHyRsC14ka4yaRYU/W+8hreWsLejCKuUjNhPBFR1KadqE+INLwdxdS5fDYtmsOY/UD0WuFMo4TxlAUzduBuxGF3U66Cr8D2LmdbHzPxccOBwtts0n4W2KXNowv5ciaK9IRu3S2us7Tq2tltujAeO/SJu6HKuW1JLfaV7bG0+bNVcbVufR1tO+lufZ6/KWgGfTmKAAIgAAIgAAIsAYj9CcV+mTR/D757JSAX110KmtN3xf3jrx52woMT7UHMfiHCXhIdPV5b95ZnhPEEZeavP3Sx+fVhoPrlLAXkz4geFGLSvn8/Gg7jrMaHsfCHL8+JHpffE7AOHDNF0YXxNC9ysd5sSIf7rYTwGsiuINpyBnfgV6L7Hj0pvplA3r3vOj9T2KV4xJks+fUvynD++Ws6Ku7VL+/Qf9T6y3gx+3UpubMOjJ9liH1Ve+TOwHC7a97VqxhfQAAEQAAEQGCuBCD252oZlAsEQAAEQAAEQAAEQAAEBhKA2B8IEK+DAAiAAAiAAAiAAAiAwFwJQOzP1TIoFwiAAAiAAAiAAAiAAAgMJACxPxAgXgcBEAABEAABEAABEACBuRKA2J+rZVAuEAABEAABEAABEAABEBhIAGJ/IEC8DgIgAAIgAAIgAAIgAAJzJQCxPwvL/MksSrGfhfjNotqH+1l11BoEQAAEQAAEQGDnCUDsz8LEEPvbMwPE/vbYI2cQAAEQAAEQAIGpCUDsT01YlT7EvgrTJA9B7E+CFYmCAAiAAAiAAAjMggDE/izMALG/PTNA7G+PPXIGARAAARAAARCYmgDE/tSEVelD7KswTfIQxP4kWJEoCIAACIAACIDALAhA7M/CDBD72zPDXMX+BT248ZRW7z7S6Z1p6ay/vEW33z+n68tH02akSL0qy6uH9OHqlFaK5/fzkdI3joheXtObL/aTAGoNArtEoOr3XhAde/39vvSHcxqDdsmv7LpA7EcsKzVA88rF4Q06entI59dvaJhMmqHY/+aP6Mbj93Rw8mP6+PV3dtX/i3rNVOx/86Dgf0mHkwu6NT05uE1ndNwJ7Cbvg5MPhe0nlNxMPuO1KeOyTf0+jdFOZ9IM3j+hW3fPiKa2z0yqi2KAwG4TqCfva6Y9j98fzpEkMwbNsZgLLxPEPsQ+T6AR+3T/B8WK7/cW7uax4kPsS2Kf7p+rV/t7DUqN2Lfz6ZVO1DuN2D8IVs0W69QQ+9OYDlyn4TrTVMfva/pVtCoH8X3tXMrYr2batyD2taSGPAexD7E/xH924F2I/UDs97DqWIPSWOn0qMJyXoEoncZW4DoN15mmOo++5oIuvnlEj4RwvHmUcWoDQuxPTbhMfzFivw6puWqYbGaVbq/DeDbhfbPIA2IfYn8WjqgvBESpnlXOk+CaQ2vxzy5BSC+hjMMdAWJ/OMN0CosQ+67Q7yo1dTxzH7FfNc71MR2vzujsrW2A2ATFi9k3ITSO/e4UZwN+VJwN+PMivu8ndBnY1vy9+cP7Pyvien9Oq5PPaP3i52SmSeVfD1/+Mb2hOia/+/drRZjD8+4waPM+OTH7vyziu39MZ5/8zPl3uby5sKCLwz8szj54ad78rIgh/357SHP95dNisvcdOj75JZ29+FX9cBtipCwX2x4Ksf/+fylYvaaHRf3Xd49ctjetWPbi/donVsE5DbZTNmEqTr6hH3D+fXj/kC7fhjH7dT4+K7eMcrOvY0Md37l5WHw/+LL4n5UGI3rYMpbnCb5bx4/b/lXm38b7N2mtTo4LPzTPNfHzTD6G4/HJurCzm6rT3k26/pkG5qxDaBsTI3tMq6JMNY/UAgL3Tk26quvjPw049C1vmSZrZxNW1XKzy99YPQi9MmFMvlf49eV8Q+FXVVl0bYetU9UfuQeNeV87J3rsHko2fa17mFsQDom2yJfNPeehaXtiO5EOUje2vPL6mc4HtH7pna8R2/Cq6EMTbUvsQMzB8A+0elac83HGAe9MjKmXn1ZQT97vzj9/TUf2Qf2M9l700vU5JH+c8tqP2GeVZVb23TwqRVti0y/HNDecRz+uhO9KZjRhQx/ulGPqOH1sknlbGOUYJPWBTDth68nwdc+gJXykSZTTc5OfZZMH8EF/WYDYZ5zDVFlr+J6Ieov9SoxZnR8Tm+wWyRL7jci+cmLlSzH7R0Q/K8Q4FSL+y9+kj3YcPXeY1qRTiRFzyNaeKFgCncuTEftGlFeTBTN4mXdtcc7mbQS5OzGoRfyv6gmIl6Y90TDPEXkTi6pTqCcLyXKxfmDEfi1E7YZsBu7wN4XYN4Od03kzQoQb7K2OyhZCpjyciNQc1jRipXvf6vDstuQLBcWKp7gCZQ36QScpin2v/XCMMgZ/SexXIl99LsHqh9p33AGj49o8yzBdKSYnop1/l+hNeUsRy5Q/mxDavKgzw7P3CqJg37DtlOV7Qveu7MsMZE6O+BXag1rsZ7ZFri2p2p6inXBdUM1emHwl/VM43BmdsFt5RSYbYVm5NmAJY7ushc1uvTt1DvhzDHP7JE37YXmqFgGaGmv9RdAVybYkMOfaapBWxrtRse9rFDK2tXRLdh/r+bDI3J7g82OQqr2Juq6pS6Tt5PmINx711JPbfm3+Yl9aISjJzVbs+zd/pLapOrFfi9ryCi5rlT3pJY2ItycI7Mp8uTLNpd8IcbJW04P3mTyacgWCXcibmklJJ8qZfNsZdSHg1115TB7h7UAZ5UqI/XCQDzsN7cq+OFGsOsB1e1g0/py9si/7EC96/MpKHaA8AWl5KERMUuxzbTWysu/fcBVwyh6I7DbJDGzJNibwE25NkgbptFhJ9RWdWA/8NSiLPOj5g2lSoEh8RN9ID7hlkn6++vbQvFvsoqZW9rVt0UyCwn5A2fYU7YTFyN1+pb6NK1fsh9c76m2f0YdwFQ34ZKSnbu+JNFfdyrlUb7W/9BT78iJiOPlVtw8j1hWaSF3v0Zlr7a1sb73Ffq6PhLuPyeFihg/MX+y3M06GnsKxhzDvv7IfXvMXF2Sd2K9Xqb2QnGQlNiD2JQFfls3fWZCeNaFF7Sq+FJJkKtxxECdBOeXKFvthp6MV+1LIgimCWQUWB1pJuIm+kLhaUhQiCrFvb4sLbS4l9tmdhwyxb7bV29Vz9UAUCsrilzqcKblqasPelNhXlE2ypc8kJj59gSmsnie7nhy/YhLz/UbfHvRiX9sWZbEf2V2u6mTanrBTloQYtsFcAR5c2yiu7At3uTOhiWGxZd9UldcvU47vaNt7bHGwrJDVf0llVvuLZNdEW5JZhdcEq9tH20enrxhWt7GxmavtrW1vcsPqbMjwGMFHkk16hg8sQOybOGk/wm762dbmxb680u3IDi7GvXxgypX9YFXeKpEvuLVi3wr3YduGFRokiv2ccm1M7Etx0qYA3XZnbscbtoImzdTEV93RFukJz7rxyFw8s9yxQuzXZxuSK/ua1WGt2I+tDrNpuIOsKjY1x6+kOGUr5FHdHgo35RdQfOGsb4ui2M8QB2VrjLUTSQO4Y41iwtcmNHxlX1rAGCb2Ze7+eR7VTopWeIo+1tTGmuDzvpbhL1FBJ7Wl+M5dXNznvSsVT93Gxmau7Ssy25toBscXrBCjwT4yQyWvKNIixH7YgaYOLSlqrniEjRtr3wtn4eWfoqsFwZazSUy/ss/GuJtDu1OKfcUKehueoxX7XLkFuwxZ2Xdi+YP0u5h9zaCTt7I/4ipLr9Voe0ImfYhJs7LvQcu5Hz8mXrGy3x4EDOL9Y7sOWrGvWNnnLzng4//Zppk7gCcOIKqFiFrsy31yUB+xLjni20o1eVZLaJ93n2R8UG+eYr+2ozdOb3BlX3+GSdiFH+VjmZVyaQ4LKxZ4zLPWZQnZK/v2RQvCWKpuY1qxr1mgKMui7SuGjnV+vc3kwSyIacsb0XMK+Ti7RxYj9rdCzjgJN/AKfxsq9nkx39WeD/PZQBiPEebeLTn1BKcMPQoP/Lo3+ZSNvbkhqA3jMYd202FL8lmGpu6acrFOZB3Q9VfHGRvzuz1hDHh8otgVRHrObEOGh2nTEwi+rTCHIa0O2DkQqegM/VXVccN4wsl8IB6EMobc5hXG44uQXnbWiv1IHC8rxmzHkQb61EBq/u63HeXZBn17EES8P7CXcqu5tjl5e1tKjPT4CjO/+8C10G7SXd3kJi4M+e/yExH5coERwnjsyyeq4vh9i7ACHfAd3ieF7UdIk0Eu9Vlqf9GKEq8tiekz441fxpx3peJxfWQ9jnsTNHUfq2WutTe/kKrFzbYu5xY9bXkzFgqGFG5D70LsJ0C3sV+2EGy3gSRR0j9m3wjiK+vWGVvo/vBlfXsNe8POlCv71aBZ522HC3G/mTqkxX6RqLlmlLtq8/3vtV/vjR1cVpcrJfbLv7d2NgKeX53qxLG9XcsdAuXeX9Pz6+ZWknbLkon7LYrjCBTjd9x1oO+fJ792a3y53Ua3tzNjt/GUzz1bdQchxUnQVXCNoryaU07+wt0GO17W1L0Ni+BuNvrkr5jVRra5hYN6n5XagTH74gpfWN62vq1NPPGkFvtWSInFLuRZp7/+qrsCMzkZ8EV9qu0wIpyNq+3THrgrFZ02EmvLVluMHXLUtD1FO4kON1Z7VIVQNYn54s0OIwpvEhtD7FctrLl+uAt7Cduc1Q5bu7o3nqn7pD7th9lFenqnu6JUFvVaf2FlpaItcenzeYp9l3NVsFBewdmm6GP5ProWyzZztb017U1qTJWvxdt1Xnn7LrBtSMUrs4HYV4ByYzDNC7wDDF3Zr1JnYtntW2j8e+kPTn5AD1/9hM5WP2jFsSS4+9/GU9e7uwKzAxfckKMO42nSYL8r4F6lmbqlSFWuhNink/OC45FzPzO3Guj7QzmgvqEHzP37wkEjf6fIjyGshMo9elIcIiXhqka/KslVy9p6wf3T5Xun74pvBzB3Wvu38TjnBRL3Zafjcks/F8R+uar51ZpuP7a+CBC5zactV/nMz4geeLHx8xD7XX1T5a3bmf0RwfKX8LrEIFRBWI3n+i9fTNoCoO3hfN/j2k9rQ0XbYfy8uk/dPxzKtYfGH3w/98td/v3op/W3TtxbenRtMRpvL8T6+ofG4+0kNuDkibYuJb9u5dh0ROdF/2Ef3JXOoPWJ2T+nI+d7H+HkhOtr6m8luIeJueeae/z9kBRrwlDVXWjvfPvx2lCVQOyMis5fOGvq2hKXvjakSPeu5Gltf/iS6GikPlbPXDkGlQmm2pvYlHR8eF3nLs6JO9axZjzTv0Hsz8Iw3ke1ZlGmfSlELGZ/XxigniDQk4Ai5Ktnyu5r6qsoR8ltS4korl3dUsnqbPvsiPUp8Nw59KnTfN7ZJQE7H6rzLwnE/ixsBLG/PTNA7G+PPXJePAGI/fFMyN23P17qI6QEsT8CxK0nAbG/dRNspQAQ+1vB7mcKsb89M0Dsb489cl48AYj90UyoPicxWo65CUHs5xKb4/MQ+3O0yvRlgtifnrEiB4h9BaSJHinEPv2/xUeWntLq3Uc6vTNRNkgWBHaSQCkAN9F2NpXPtoxUC+ngjM62isPmGx7knqp4VTy14tKBqfLf5XTBdpetK9cNYn8WdofY354ZSrF/uL3skTMIgAAIgAAIgAAITEgAYn9CuPqkIfb1rMZ+EmJ/bKJIDwRAAARAAARAYD4EIPZ9W/z+P9qCdf7PLeQ5syx/+B8T/e7tLRQKYn8L0JElCIAACIAACIDAhghA7M9C7P/lhsw942x++HcLsf/bWyjgbxR5fraFfJElCIAACIAACIAACExPAGJ/FmJ/ekPPPocfPirE/t+ffTFRQBAAARAAARAAARBYEgGIfYj9efgrxP487IBSgAAIgAAIgAAI7BQBiH2I/Xk4NMT+POyAUoAACIAACIAACOwUAYj9HmJ//Rd/Rrf/9Xfp+u/e2r4z/F//M934luj8H/w9KgJhNv5vNBYQ+xu3HTIEARAAARAAARDYfQIQ+9li/1/Sk5//D3RGv00fPvs7tCrf/1f/O936F39BV//BfzrtBIDJpxLbxfne49/5Pp3++yM5bDWB+Cs6+K3fp4+//bciiTIs+hYBYr8vuf7vffOAbjy+pIOTD/Tx68qT8Q8EQAAEQAAEQGDHCEDsjyn2/4Y1AUg5SiOoD+/9l/SmvP1R88+IfSufKcU+JScvEPsas832mUbs0/1zur7cxr7QbMmgYCAAAiAAAiCwMwQg9scQ+33coY/YZ/KZROyr6wOxr0aFB0EABEAABEAABEBgCwQg9iH2B7gdxP4AeHgVBEAABEAABEAABCYnALEfFfsf6cH/+L/Spf3M3/gNOqS/Kn6zQ3aa5+ywl2bl3n61joGnOub///MybkNz6rTWv/XbtPrLv2jy/veamPwwn3Zl/7f+Np395V85ibox9yZdLw6/CQ0iOz6f+420LIoiMHWvChYLCypj9g/+J7p19zU9fPec1nePXO43j+nD1Wl9RqL6t6YnB7fp7JNvwAM6fveRTu80v79/UqR5RquTY1q/OKOr6udDOr9+wx5ovji8QUdrIS+yfmfTbfLUhMWYEBqn+F25qnK8Ddv/4ctrevNFrG7136rnqI7J7/7xbMiJ2R/CVaq/kKbHybA/Xp3RWVP37jyBslwhMvwCAiAAAiAAAntNAGLfN//v/6P2l4v/7b+no/+nEE5tXH2zkl0KdSc+3xfhjPj38xHDeCxRHYhjSez/myJ1MyEoMzJp/IZ1S88wsa9mwZwrKEsUvu8BacV+LcjtQ6PrL2/R7RdXzm9GDHPi98qeGDSi3E9TavW5Yt9N1whST1T7mZkyOWK3fPcB0c/KiUr530/o3pU9IbmgBzeKCVCybs1zVZ5WObg8m99ssT+MK1//Ok2PSTPZse3XTXDCyZi6XHvdnaPyIAACIAACIBASgNgXxb4k2LnQlSnEvi3UTSEjK/v+bTzBZGKI2NezkM8QNGlIh5gtse+uNFdThVrotuLY//+dEc3EoBWRRuQGOwN8d5Ar9oOyMiLWz6kuY3GDkr0DoeidasFrfk5ujwAAIABJREFUCWFGrJfJ8Ok3QpzZnejqkM81XX8pzaY8q+5wMCvoKy4Z5VJwxCMgAAIgAAIgsE8EIPYlsc+GspQPa8R+t5JNxIn2IpnUyj4b8pIh9oPyDxD7GSzqFXyuzmZXROARFfueUBVEbmVK/zrJ2LNMSx8s9k14jx1u4+UTiHZljzO52B+Dq19/a2eFraY1CRO55JRLyRKPgQAIgAAIgMC+EIDYn0jsV8k6set2mM2uiv34gV15IlDwyBH7sdVzXxjOTuwzK+xcb8PG9JcPTriyPwZXX+yL9WgqbYUyiWI/p1z70nOjniAAAiAAAiCgJACxP6XYN2lzcez7urLvHGy24OeIfcVKrx/GE4YG8S1kFiv7bEx/sVs0dRjPGFyFlX0N/yEr+87ZDWXnh8dAAARAAARAYB8IQOxLYt8ccvVjzNkDqOkDuXUs+9/uDsyOKvb/jXWIuK5QnZ/9O19G85xzc48QAnSpYBHm2wBOfWXYPqDrx9cH4pc5rNpkExwG7bOyb8fFl+lycf9SuoownuBcge+Dwkr25GLfxMYz5xvUXIP6y7byqy2HN2XYex96bdQRBEAABEAABDIIQOyLYr+Lu2+FsB2WE7uNpxK2/5Ke/4O/11zvyBxOFcVvbOIQu42nuHvFXJ9pyumJc/9GHCPMSwRxsd+DBXs7kBfKZLP3buOhVnCa22Xc21yMYLa//sr9ZoS6ZmW5Ko7/VVk75py5CSdIVyH228mDdVuOc6iW6utC7VuF2JtqRj+gaw73FncMWeE1WVyZ+rPvF6jLOj2984E+fl1fqBo7y5Brb+dGpowOEY+CAAiAAAiAwK4RgNiPiP32MK51J355DefpvypWzf/v/5A+fPZ3mnvfhdt4nLTDg6lGfFePeffsX2Yd0C12DH7nb9HTf/EXzT3yZYKR23zacpXPHNB5da+/df8+eyDXuna0eZ9nUf6RuZNfOqhsyuKE8ZzTw1dHzh36XJhGKwAtzvaVndXPmSv7nejsEi3zPvqpd//+gJV9u1z1vf/1P6fsfqx7MdE4//w1Hb1Ydd8ImEDsl+UYxFWY7HBpOleDFvmmDi7nlAtif9eGKtQHBEAABECgLwGIfZ+cdc9+X6h4rweBaMx+j/TwCgiAAAiAAAiAAAiAAEHsQ+zPoxlA7M/DDigFCIAACIAACIDAThGA2IfYn4dDQ+zPww4oBQiAAAiAAAiAwE4RgNiH2J+HQ5di/3d/VXwp9ymtMr8sO48KoBQgAAIgAAIgAAIgMD8CEPsQ+/Pwykrs//15lAWlAAEQAAEQAAEQAIEdIQCxD7E/D1eG2J+HHVAKEAABEAABEACBnSIAsQ+xPw+Hhtifhx1QChAAARAAARAAgZ0iALHvm/Pov94pAy+mMo8/J/rPfmemxf2TmZZrX4v1N4uK/8N9rTzqDQIgAAIgAAJZBCD2s3Dh4f0kALE/L7tD7M/LHigNCIAACIDAnAlA7M/ZOijbTAhA7M/EEE0xIPbnZQ+UBgRAAARAYM4EIPbnbB2UbSYEIPZnYgiI/XkZAqUBARAAARBYAAGI/QUYCUXcNgGI/W1bwM0fK/vzsgdKAwIgAAIgMGcCEPtztg5TtvWXt+j2++d0fVncS7/Uf988oBvPVvTh6pRWA+tQ8Xj1cJS05KJA7A8008iv77fY34k+YGSP2E5ya3pycJvWX13Tmy+2UwLkulAC5Rj4mOj8+g0teCSPwL8oPpB5RPRSbhtVP/ZiJTCo378scjiMpLFQ62+l2BD7Eey1MxIdz+aLrvXgckbHE4vbaX3x4vAGHb09HKWjGzOtZYj9XxY+8GM6+3Sn4PejHR0oUv63z2J/N/qAlIUX8ff3T+jW3TOikw/08euhyxaLqLFXyMYXP9k/H0THy3pMvRIEXJPe6txazOrv7/l5bc4Gs9IWjR9fRaufOV6n2kbz9xUn5P3y3Fy23tmcV8VzgtjfF7FfrSRczmKWPKZAHzOtZYn9XysG1ed0emcuXckmywGxv/QJ/ya9ZbK8UoJmsoznknC3+sqW6L4t2ssn7MkBNykYU+z3yWtzXGcl9httEK99fBIXvBttG5yduxRmxWZzLjF5ThD7EPuTO5mfwZgCfcy0liH2N26uGWYIsQ+xPwO3hNivQy1iot75m1mlP6CDT1d0Jb03ysp+n7w251NzFrSjlC3WNt5f0EWxJ/1IWKiKh/dszka7ltNixL7ZkqsNkDnL7Gm1UZy+Z978a/23NAkr+wMsgZj9AfAmeBViH2J/ArfKTRJiXxD79iq+PVZ349fx6ozO3vrj+AQr+0XIqz6vXAfo//z8tMXIK+sD2gbEfn+/ir25CLHvCv2uOlMf3FA1SGkLzFu14OoQLz+zRXrzkA6LIyuXTsy+tJVqYuy4uMqCoR0HJ8XsBbFyXJli8XRc3kUd7hd18GP2hTKkbMyu7CttYiZAdgM5YONvjdg38fJukzo4+XERs/sdovd/VsTw/pyC2MebnxVnLL7fHka+OPxDOlp/VgxCPy8GPCut6rn/hP60ism3fr//gyKG9XvtD9X7b72Y/W/+qAjTeh+2de/d9ZdPi5jZ79DxyS/p7MWvnOcPX/6xe9CQTdMLH2rqvDr5jNYvTN2tsmWVK1GetrSl2P+32gNc7c+Fv55//pqO7APbUmwoO/kV2kqwAulhZvzN9aOe6RbrX+aQWldHrg8o/sr6vC+m0u23bk9e/bx+QOqP3TrXea1Pjmn14qw6aGfbKX44X+BVJWDqZNL34uUZkaErL1FV97URh3Vp2zpxNr5/SPS2qJnVZ4ySl4c/PXZIvDz7m7ZQ2GRd2MTpp3wfN/WN+n7jT9IzTRqdX9iLVffoSbkr4PjWNGL/w5U2rwK8ciw0gvT4ZF30ozbJetwlvx2xbag4D3iyKt53Wkfnc5UfcO3Isquq3YfDQuyXpO7R5MmJ/dQYn/q7EwZm12CAn2vTzEM4y6cXIPYjcYETH9xIOr1xTq8cZsBshWqPWW6Qhu2UvlD/8h59tG/nCTrZTgyE4tnwdQ/gmAHGHsBzQ2bkNMq2YOfXlIHlGD8YFJRJaxMjpFJCrmq2tdivRbYndksx+9Pv1WK8+O9b7/6LWvg3/2px/avirEQnpOt0ygc6UWyeq16zBDqXZyD2zSSDm1QU+dh5d/lY9eDeN785k4VmskPW5MWa4LSTHlN5bbma58hMmpJd5d8sbPFFxbDzZ0vwMBPZ4CAYI/ZrX/IGjuSOWELwVH7TJ13znr6OblhEuAuYar/sgUam77o4vEXffv3ROi9i2DNtuvLnLnY77NcYY4u2CdNf+5Pz3uXteLt9Uye4ihNP3aUCljBx+0gNm1heHg/F2MEy5fpBtszGdrzf27YLLZXwfZNfa3/XJyk4rDuV2D8lXV76sbCbgAnC2+qDuHbFvt9O7tPtqLJFwLf8ccDufztmRS4m0eYZ+K1+jJdW9qfwc3WayTFp/g/MX+xLM+2S7ZbFvjwZ8Bxb0WG7riJ1otqGzLwviRZRzIQDeEosuHWQyxqkI5VBWpW1MvLTUtskW+z/ebFS+ZMiPtVdZU82cUbIsivzJKTfrIyHkwV/olDeGuUf2G3StCYBtdgPn/XLJD1XTmhuPP5ll5cg6KthR8iLTF1NubLF/v9R2OK/k2OF7Z0v9cp+os05ccS21VNif+x0w3Yl+nzVrtbt7Sjx9ptor8WKd2w1PiyDUG9FXyjv1nV16VY80yv7XBvlmIkTkUT/lLqNJysvv7BJXrL/BSJTSis5oZV6uVzf933MF4DTif2V6e9bzcDklTEW8m1OaEPibhNz019QBn4CUvevgij32n1yjPIeiC1yqvP065wxxvNifwo/z0gzF+IMn5+/2Oe2sg3ILYt9efD0hbKw6ig5hNjBjy/2Yw07WJG0tu9S4TVmMA4Pb5lVrW71Qtr6Nnj40Jr6r74N9DbJWF0rV/azBWlT+g2IfX7yUOYfXtMpCXAT3mOu8+x2H3gnbScfES76clnhUd7uBJv7+39ehEu54RP1c0z70Ir92KJCmXSkr+lCX5hdqL7pZvQBbOiNBa5tq9H2m7hZxdmJC62iFvttWIJ8XSU32Evpa1b288R+aEOxj0wK8cYrGVGmXzhJjB2xMvg7vNKzikUVvhcYKvaLVJ0yUn219KgHdK1JaiKvnLFwMrEvrYgzO9Dqdp8pPNMc5ASlaIacMZ4V+1P4eU6amQzn+PgCxL6ZwYa3wKYF5zDk8TCeuPDmOnPX4SPhKRkDfSd4mbraHYQws44NOnz9XVEgC3F5IOAFuqIDYR5x08q3iRvrLB38LsQ+s8IeFoeP6S+fs0Ncxl3ZZ0JrrIJpV+xdsS/Xo046DAEKQ3DyylVJ9Sbkqc4j8h2BKcR+6vq5VLiX834qptYykJSuug+IxbdXnufdey6035xJifisnZfU/oVYe7sxtenXfeR3m3APN6REH7MvxmF7bKS+MEvsq9iEixSpkUocO2Kr8r4PbVrsB/lx/bO9MHZK304p9ttQ2NKvwrxyxsLti/3cdp/ysO7vsu7JyNOzfc7EhBX7U/h5Tpp6fLN9chFivxYC9cc46n/zuI0nuYosffwqdfhJPdB3XNyJjz6MJz2LlyYlQqxn6+p6sR+fVMXbTvbKvmQTM0izK7i6lX02pn8OK/tWjH3eyr7iw11DVvbt2H/bzOZQrxQyNYXYV67SJnty34/6ppvRB+hXie3S++03tUpr3uVjb0df2S8OWde3qDQ9fnBwXiv2teWVBbhe7A/PK+lf/tihWJ1Mnh2baGU/CCOS4snbFfdzevjqaLqV/RJuJK+csXD7Yj9/wpj0reaBHA5imp5f5ozxfVf2s/08p+1o4c34ucWI/W0wTDlo2Jk1pTQDfmQ1sBqgxThYftBoV6gsQcoP9Hqx726j2l+BFMrArMCxX8FzVlHsT4IzMYjcgWKlwfmYfeYLjQqbsJ1MVY7ygG4Y/+4WUVjJ3oDY5w4BV2VjDtlqxb6Ypm+XiNjPKZefrLmxyL7FqHumidn3J2bchE3o0MP4bIW/K33S9aO+6er7ALEfSpXXEXncIVsmAYHneGKfi9vmKsJPTgyLdsdRXd6IeBL6p0nyStms+Ls7dsj+FYRhbnJl30xKuNt2mAUXU9aDm8X9+1OF8TRsxbzEcShkPI7YD8epsC1vPq48pnvUfY3vaxljPD8OT+HnGWkq2uXcH4HYj1goJfbbuHRnp8GIWW8r/9mqO+CmEJ5GjLBXvzEn/btwGmub3p5siHl2W3PczSb+b+uvrtvrGYPBxGPZ7saYcjhb3PaOAVeGMrGyLk9p9c6++cPNJJzsMPzbcx+WTaqyrOl5ESbwqEoyJsrs23iKR9sVZ/dQrYlz9+PZy/2o6cJ4yrI35bDDa9jf5EOzfsw+n6aZQPx1we1HNbfoWQZlucqV/Ge/3l1Pyt4EZNu9u40n1T66r3Z2tre3lO0dscBfLXHw9I4QY67wo17pGlFXrGyn68j5fGkb28frNhZtv6xAa3YP3z8vbpwqLR5O1rtd13HCeNxdXMvu3uKJP2Gz3wv7Q+6MkLtDLO+QhHxtHxo3L68TLW2SGDs4/2J9Lkfsp3af7T6TCReta+HvCkfCLO2xgf0Ql3tAPDX2RG+lSeX1ib8BK+wr/AO2uQd060iFoH07E6TYjpum3Zc5KCfyjevFdY8yTymEy2Frxl13jJcW3abwc3WamQy9VjyL/wuxHzGDOOhw10Y66XidnCNymweTh4vD+Liyszl9V4Qz2feIW6LAFOHghNsOtQ+kFk9yKy5FQ+z+haFSXNxd6tyE/07Vsd19UtwSQt01dlWmQjxgglN0ZyNmE/bgtxSy1H1UKzy4aoe6hLHuhy9/QPT4J8V9481d/JW9mHvyB9zGU1fTCGu70mEYjnZlX06z+IsdXpM8uKwoF/d9guhB3fKe/f+oPsxn+ezhyw+0elb85q8c+u2v9KmfET24e0b+rhTf5mNhg9bkukUvHfL0zx2lwhH1fUAnwr0Ojbn20n4iaL/C2QXnuaA/K+r7kujIuvlHPqAvhN9YheJWD9t+hBNCDvcjOq/u97cmZ6ryJsIiuDSauO/Xn4+cl20g5djB+W1wnmoqsc+Mofy4oDlTVfYv3VWtvGjXiNc+eUnjUNhOx1nZX9H5uxU9Lfqhrmfw+45UeB3X//gM83YX9Yuccl9johDcm6p0Y7y8w86f3xzk56XycELE6zqFZxHzGDJNYus/Qexv3QQowPwJ4Au687KR9AVd7W1V86oNSmMTkCcDMREAhvtEID1h3Ccaybr2PpORTHl/HtgBhhD7++OuqGlvAhD7vdFN8iLE/iRY55CoeGgOE7k5mGcOZagmfd7u9hzKNdcyVLtiZO+WzLWk8y3XLjCE2J+vf6FksyEAsT8bU1QFgdiflz3GLY18TV8q7GncciC1GRKoJoOv6WHkHNcMS729IlVheX7I7PaKs8icd4QhxP4ivQ+F3iwBiP3N8k7lJol9/zBpKh38fdYEhAPDsy4zCgcCIAACMyQAsT9Do6BIcyMAsT8vi8hif17lRGlAAARAAARAYPsEIPa3bwOUYPYEIPbnZSKI/XnZA6UBARAAARCYMwGI/TlbB2WbCQGI/ZkYoikGxP687IHSgAAIgAAIzJkAxP6crYOygQAIgAAIgAAIgAAIgMAAAhD7A+DhVRAAARAAARAAARAAARCYMwGI/TlbB2UDARAAARAAARAAARAAgQEEIPYHwMOrIAACIAACIAACIAACIDBnAhD7c7bOhstWf46e6HiXPliyIx/E2LArIDsQAAEQAAEQAIEdIQCxHzOk+aiL/cz9yGenm+cPTj7Qx69X83GR5hP0V7Gy0wU9uHFE6xmV3f2S5iGdX7+hR5lUJ5nAzNXOmWzwOAiAAAiAAAiAwO4TgNiP2LgWilfCE8yn283kICqqt+BURuzfPKYPV6fETUMqYU2RicxGi11PPC6DPPMF/5Rin+Zm543aCJmBAAiAAAiAAAgsgQDEflLsM2Et7Yo/I/iXYPWgjBd08c0jevTFPAovC/Q1rd+vaHVHX85JxL4+ezwJAiAAAiAAAiAAAlslALHfR+yX78x1FX+r7jRO5nX4Tv4qPpc7xP44NkEqIAACIAACIAACyyQAsd9X7NOanhzcprNPlihtwmXIinuvhOv6mI5XZ3T2ts6si+k3aXiFCMJD+OecswHc+QIyZWvCYvx02XeKsnjPcXVoahI9zGti7g9fXtMbe9cgcYbAhE/Fzz7oQn04se+eBejYO+Vsyrg6Oab1izOqg7kanoydy7+q0l1mP4FSgwAIgAAIgAAILJQAxH5vsW/EnRXKI4n9SuSHK9W1OPRCgRoBbgtP8bmfHtH1ZXFklRXP5QThAdHPPtLpHUbsC3H8nEDvRKxVB83OhiDq06vttpAXVvjLtL+8Rx/L+pt/zMHZMK+SyxO6d2Uf9m3ys880mLI7k7MmI8bO/ATF1GOcXYqF9jEoNgiAAAiAAAiAwBYJQOwPEPuBkIyI/WB1u7n95lJaxV+Zw7LCqrxVbrV4tvKS3wmFLx9W0+w2kHzol7jdD/Nb9L2ycv5uhkYwh6zSbGqQQR1jh5oDO0dY4OaeLXZvyBoEQAAEQAAEQABifyNinxGq1soxWwSzyiyEjNjvpGPcQxEsvxOGJ0nPmvAe6Yafqoz+ToWiPi4PW/SnDkSPL/btkKy2XEEdIhMy1bWn6IhAAARAAARAAARAYBoCEPsDxL60GhzE7HOHTaV4eVMeswrPhPWwYji6Uu6L0fiqvF+vQWLf28HQrrQHZmHChqQYefvMAZufyD5+/kIU+9EJTHpnZpqmjVRBAARAAARAAARAgAhiv7fYl+O8VWJfu8KteG6SlX1r8jBM7NshMqf0bXmoORnCwxnF5U3NNxDc8CjFyr6w0q6ZuA1Z2Wd3CNADgQAIgAAIgAAIgMDEBCD2e4n9LrSEu8FFJfbNinfkQ1d10ZhJhVdmczg0PBdgHpRE8BVpbsoZKvbbUJ7mZpuVfzuPxsk9kc6XSSH2hZ2SYWKfuZmpqVPaNprK4xkQAAEQAAEQAAEQ6EcAYj9L7LuHRoOrIcUDuvzh0vYLvcxVl0/vfKCPX9ffum3DVdrnPFHbxv93Me1u+AoXSmJuirHj4LnfmMOrDTNVzH71rM0tddCWucFGrN+VdY2pdYNP7CAyc/CWvW0otqPC/c2EBtmTN+43M3ljbmfq14TxFgiAAAiAAAiAAAjIBCD2k2K/vmHd+SetxmeK/UoGN+EobgbhQdQwPt0TzcyB324yIsWNc3fVS1eECr8X3xCIHtBtKiZNbFj8bEx9msnByTk9fHVEZ+1NRoav9xVkP/3Cnuefv6ajFys6v26u5MwV+2VFuHIHty3hOk50yCAAAiAAAiAAApsjALG/Odb7nVPyoPF+40HtQQAEQAAEQAAEQGAKAhD7U1BFmh4BOaYdqEAABEAABEAABEAABKYjALE/HVukbAjgrnn4AgiAAAiAAAiAAAhshQDE/law71emVbz+q4eq2P79IoPaggAIgAAIgAAIgMC0BCD2p+WL1EEABEAABEAABEAABEBgawQg9reGHhmDAAiAAAiAAAiAAAiAwLQEIPan5YvUQQAEQAAEQAAEQAAEQGBrBCD2t4YeGYMACIAACIAACIAACIDAtAQg9qfli9RBAARAAARAAARAAARAYGsEIPa3hh4ZgwAIgAAIgAAIgAAIgMC0BCD2p+WL1EEABEAABEAABEAABEBgawQg9reGfqSMv3lAN56tduwO+wt6cOMprd59pNM7I3FqkynTPiJ6eU1vvhg7baQHAjMhsJP9wkzYDixG9d2R98/p+vLRwJTwekCg9PvHl3So7d8X1U76j4v41g3aCsR+xAeqBvKC6HgS0TmO810c3qCjt4d0fv2GdmboyO2wc1A2X/Olkw/08etVzpt4FgQWQ2An+4XF0I8VdE1PDm7TGR3v2ALNNMapx+CrJvGDxFjcsF2dqydSQTuZ89feB4yL6A+m8c8lpQqxv69if86id0Cnlmx8c653svAzegAcZ2SMsCgY3OdqHoh9lWWM6OYevslPlPqsXotiX8hDVfapHhowLu53f4A2V7okxD7E/vxWuAd0asl+FiI1iUj1ADiqMG3rof0e3LdFXZMvhEeaUh1qWQTjMDvWxd8OvqXTq1Ny92XXdPEN0aMv8nZrF9VOBoyLi6pn2kEyn0CbW5TYz9vOy/QF4fGdDuOZs1gb0KklLT/neicLP6MHwHFGxsDK/qyN4RQOwiNlq1qYkj7uPpVg5O+LEsEDxsVF1XOAPflX0eYWI/Zdod+ZU30Ip6fzqMR+0wCDLO67cYNcHfLK3zjsJzunQzq8f0mXTsy+WRXxS9StkpjO1H3CXkXh8iqf9mMmmbwytz9ZLvcPizr5h6yEMnmck6bmRKq0ZezXhbH1QUbsf7vN/NWabheHyOx/fjq8jcIBkPerc6LH7iHkKr21v/0tdIKsT3e27+0/o7cJ3v/OP39NR68eWjHR9XNr31bshGUkP6N022A5ZrYfIm2/UHib4OduP8Sn55wJSvhH5dfKNmX88nh1RmeFwOv+peKzmZYu9cXlo43v1e1lFawYh2Io3Y+WyZr0jk/WdGZiy1s/53yg6LOLNetLJ2Z/jLxSPV/arro+x7SlY1q9OCvqYf0LfNfkmWPLhoW2HSj9TN9OmvztvkobUqQuS8pWxq/MWYX6+cMB42K+2DcXWXyg1bPijImnO+z+QNJn/pimHav0bVTRpwl9gt3njdMPp2267ScWEMYjdYQFOm2H0JNyUuybxu2VI1iZGGEV1DQUuwF1TmoJ9TKvL+/RR/umh8bhncYXKRO7ssLUNb8D8QzB8bMaZ9ggvUGjz0pHUG9+yzjkzQwCmX7VdXZ2PbgBsfztCd27sg9dM4NgLj+N2GcPqDGTgqT/JGw1QpsI/dQSNE6b1Iv9Os3hfpZqG8YXHKHdg4m6XzCTD7av6voPdZ/nTNwY/yja5q13p06IIFdntg8zfUDWRF7no2ohoexH+TZddwxq/xwhr1RXlLIr50dFDZhwGms8tuzDr8b3EPtZB2S1fXcnnpPjp6lzUDd7MYwbC/RlSdmqnSjbbXXguJjqj8Iy8XYmpm1eHN6ib7+2b84zdvd0yd0zulLUSd1GlX1aO9FjDsWP1Q8nbTqDB+Yv9rWz6glg6jpI7rYeT5j1GMTd6sjbULpGLK9WhLfSyKLWbxi6vGXDiHwDES+VKf/2BdORtvUWJwx+hzWW2Gf8RTlp8Xnr+TXCQyH242muu9swRJ9W2mpwm0jkw6ycplf2lWVX9DXxtpFoz4GdpAwz+gXJxxo7rJqrCnv3eVX6ln9wRWZsznPqse0e26WxbmfRCwmuAqF/8CK5kvq1UA4mLNq65eSVdsi4XSNlChaKhHoNbs9NHXLEvrrvzmgngd34+gY7peqyDLDVgHExf6we5r++v+WMVeo2quzTZLE/Vj+ctukcnpi/2Oe2ww25La/syw3IF4rSiqPWBWShqWvEGWI/1mn7Hb+w2qCulXRtqN+IYxO+MrMcP/DqFxsE/VVedhVSW9niOTEv5UDp21q0PdMJasN4pK18U812JVoqs9pWA9uEyIzrwJUr++qyK4webRuR3coqae1Vuvp+QdpqNzVpVzwtBlyImto/Bol9aXIa487ZWBLMmjCeHLHPTOCz/HNgXgp3tMOqQrtGFjIC8S09K7QxTdnsZzLEvr7v1reTcJLGLSiFfYy+LGkg6n49o7/S6QS7bDnMwjr5PNR1asfJdBtV92km1DFY2R+rH07bdA5PLEDs8/Fr1ZCo/XBGT9K9V0OK/Djndp1TO6CXhc9reOKAzMQhBiv7sVVmdgBzG0xODLu6A4jF4pZ4crb7vTrEOkHW/k5ZcmJRM8W+WGf/7AXjR73FvnRWo5WE6ZX9TFv1bhNZYkop9jPLnu5WhLanXyd3AAAgAElEQVSRMUjH89D3C3ki3fODtn1l+Ad7lqCuTRhKEfowPzlN0GgOdtbp/6IJQXHbqHrVsO3DmTyt/iZ/As+vJmr67NSuS9ofBbtGFxt8H9uQ2Fcs4Oj7bn074cbato+q7P7d+jsJn1z9oS9L2kpTjIuTin2xP/PPeenGKm0b1fdpwgr+aP1w2qZzeGIRYr8E5YqCPJHVF3Sqc02u7EsfTsmOSdV3VmwMGjdZSKzMsh+dioab5Mdnqjs15cq3ys7ZK/vCpMx0FIpByZRLLQyE1a3NrewrJqJ9/CdmoNw2MYXYH9PPnLr6bWN4SFidfG6/kP+BQDOgmoUVrWjwd8Wq4qrDePqv7NPJMa2Lg6P10cbQj7VCQtuPqtt06w/SqvCVt3gl7Urk25Brdq5d0yv73XgwsdhvJ4npPii9mm7S0LcTaWX/9ef2geRQf+jLkh6lphgXte22K52WWfOcNw5ubmVf0x6kcJ2x+uG0TefwxGLE/jZgpcQ+PyB0g9pVZMU5b+WKOfBiD/bWoMY36owwHuHQSyUtuMOLtmGawdzE/6ZsJvHzBUbbAWcIazFvX3Bwh5dttpE8JeEg5W3qK91S0O5UCZMq37Z6fvxOE3cQTPRpv1KiMOY7/5QvtP6ljlcX8mEnYXynHtqjf9mT9XPahtSek6l4D+j7BXOwLmfnzZ5QmPMOOv+Ir6TZCwmSCMnrH4uSas4MFI/xfbrZgUntmuUIcL1/avvs1HiU5z32bhc1q9XS5MieiEwt9q2FPWH8XH9zQfTFI1qp++6MduJPoLVjmrosaSvp+3V9f9Vb7AcTZi9PYRzwfVVfJ30b1fdpktgfqx9O23QOT0DsR6yQ7lzNIGHP9Jnfyo7g2aq7CjAjLtEUz91KfORdbeffpnFlbZVboQRO5yl3FEFe7SBZrJd5W/rrr67pzReNLEhNBgTBWAwlzVV47jazHabFlckIxKd3ym175cdUgs6py7PLj/mtem9Nz6/NDTn6jjawYfFDK7rMirY9qWAEa7dlydxwoOAX3KJgb2EyN9dc+tesZtRfZasR2oRhErAsgSduyLJ3Cm0BrCp7sueu/SfaNji7m3b2/nkRLlC0ccU/bb9gXz3ohj+WfvyUVu/q2zRKpnZ7Cgdprs8rCur5RzBht/xtmjAeq59zuHmrsEHbst/L70fTK7pMW/f8U5x0ls9pQoYUfpK0K+ePrI/miP383d66KvY4YNmvDbMLx4to382NX04IR+ymHTl0TbqyNlWWpLnaso03LvYX+2VpY7zDiXLXt1q2y6hTuAjFt1Ftn2Z0QnDLWvkHbT/cQ7Ml7bzhByD2I8BtQeA+xnQOzgPeCgkXG9ZjldqPUasGzbtPilswyLk3OnzunB6+OqIz61aKqkut7pw2d/m6ZebqrrkLPvschR8nXXG5R0+KmyzIO5PB2yMzpItdieA6dMU3BdQHKZshrOJdbDu+fEivH5tQA7sztZyI4VLdH+/fEc7xa+7x923h+0X596OfcvfvC8Ipek9+2n+c7zSM0iZCux2+bO6FTh7GKst7ROfM/ftj+BkXTxq0DeGMQG4b0vYL/F3jhc9ZfZGm3XdXMnqdJ3cd56fumcOX9fcf7FuRRlvZ53YkLR9jFw6aopX92ht6ENy/r+lH4wtCnH9e0+m7oh9wvgPRXdNpaB2chH12evFJHsxUduX8MVhd34TYt/tL9675MDRL03fX6enaiV8/bvW36x/dMVFflqTOG3lc7C32C/uf01H1kbPON73FtaAvL/rWl0RH/u1cGWOV769SG9X0aVW5vTI6faymHxZ3bpKWnM0DEPuzMQUKsusEhgzWWWyiZyuyUlrgw9KW7QKrgiKrCdRtK7zBw0xMgmtX1Snjwb0mIIaHNf2Mt4C2O6w2FM++kLFK7l+WY3GI/eXYCiVdOAGI/U0YEGJ/E5Tnlof6UOPcCo7yzJqA2GdPdph/Ljgg9jtL1Cz8SIO5WEpbDoh9LSk8BwIDCUDsDwSoeh1iX4Vp1x7iwsJMHXOu5t01LqjPQALSWZAi2R6huAMLs8HXIfYN7GohoQhm0p6j2qCRsrKC2M/ChYdBYAAB/1DqgKTir7qHLifLZqYJV5OqjEOuM60GitWLAHfgvldCeAkEHALBhQA7zSe8ZGCa6u73WDUNUz5ViP1N0kZeIAACIAACIAACIAACILBBAhD7G4SNrEAABEAABEAABEAABEBgkwQg9jdJG3mBAAiAAAiAAAiAAAiAwAYJQOxvEDayAgEQAAEQAAEQAAEQAIFNEoDY3yRt5AUCIAACIAACIAACIAACGyQAsb9B2MgKBEAABEAABEAABEAABDZJAGJ/k7SRFwiAAAiAAAiAAAiAAAhskADE/gZh701WC/kE9u7ZY5MflNrUPcy7ZyXUCARAAARAAAQ2SQBiP0a7Ea3OI3P/GqP5kuRE5aw/LHJAx+8+0ukdDl4jOFcz+eJcrg2b5w9OPtDHr1ebbIvxvDTlqp5ZR2wzYnW28bn4iX17RDpICgRAAARAAARmQwBiP2KK6kucL66EJ2KCd4v2NYJook95m68IHr68pjdfhPWsmL16SB+uTmkOUjnbhmZyMNFkqbdnJMtVf96cBLv0zld6cUqxL+0MTezbozNCgiAAAiAAAiAwAwIQ+0mxT+FKabtaPFPBvzXHWtPFN0SPvpiDzK8h1GJ/D2z4zQVdfPGIHm3K9tsQ+5uqG/IBARAAARAAgR0iALHfR+yX7yRXWnfISxZcFVHsw4bDrAqxP4wf3gYBEAABEACBDRGA2O8r9qmJTf90SOfXb7oVVS5GnPwdgDrk4tLO2wu7MeEyTvHa0JL6/fXJMa1enDXpmDyatK0wlDa05qs13X7s5EpBbLoJlXAy7srPimf2nSIBP5SoeW5VlHtdlNsJkIqFzYgTK8EGVtmjYp+zYSBiY6yLjIS6B2FOCa5lkaM2F8Q1+06Rlps/V4cGkibci/Hpg/uHRG8LX/LONrDl8fLgQqvq8hp7eo2yfV/w7RcrOj5Z05kXcheGmgnpB+1zQ70vsgEBEAABEACBDRCA2O8t9o04s4Q8e4AwvCGlFkTeJCEQqFeuYCvT/l2iN1UsvDVZCESyJIhKaW1POozwsX9r3mUmHud/UMfoh+LZlMWtjxF0zmTCErzd71w5fKMIol6xuhwX+7INOxGrYM1O1GweWq4RmzN1ZRm3vsHkX2K1/CV1/qK2AmNf1o7GN5g63D3rJgUKm5lds1CsK31biO1n64tzABsYZpAFCIAACIDANglA7A8Q+76QjMeHd7ekxMW+5vpEXmA74sxf2Y/ErbeiSnFlZlBH8R1GoEtCT52vKyRTQr7kkXom+Luwsn9JzOQscZB0ZQ7LJuunsHlQrsg7wc09oUiufGWI8M4oT+Xv6+P60PaQPM3EQ+HbYRsTGLQ+4k1SttkrI28QAAEQAAEQGJEAxP6IYl8KqTBZ+KK6/F2zehkWURYu7UqsQhD5Yi8ljDnxHHsnuKZTEnomvCd6k4xfZ4VAHlPsM2FG8Zt+in2UJsQlzTVmz8b60iSEC38Kdpik9E14j3zNqFh2cVIkNSgzWbJCaaQQInFyJK3shwew63KvuhC72CRDc63piJ0ukgIBEAABEACBTRKA2B8g9t3VQyke2GQQj9tvw1o0K5/MCmdXDb0g8sV+KryIE/uxd9Kr5q6QbVfCBZs4eak4pVf2g/JniGrt5C7JVVMX/5noO74PbEDsC2cXWlNG4/b5cy+aibA0GQnEfmx3RcN/k70y8gIBEAABEACBEQlA7PcW+2EcdlLUsXn5MeuKVd6JxH56BToUz+mVfUvIDVrZL+BZgu30nXClpsc4Xicmlj5D7Gt4cROk0A0UNs8oVxieswGxH/XJSCPjDl9vaWVf+nbEiP0tkgIBEAABEACBjROA2O8l9rtVfFsgmLCObNHghLGkb5jhQnXSK/tXwc07QXkV4QxSzH74xVmNkM5b2e/qfUzH6zM6U3ylVxbkvA31QrmbfCS/tpvkqrC5FCPv3wZVFCv0w/5i30yw/DqGh4MVdYjt2JiY/vKZKcS+mYwwoUPpr0JvvF9GhiAAAiAAAiAwGgGI/Syx74bqiALXv8qvEmprel5d0Vmnsf6q+wKtLzbaWPBWmPjx6X1i9uuLLtsymxVVR/x0N89Ih3ZD8cyJZq2QzhX7nZAt39RMqmLldXgYP8hZQW+v7uSuunxKq3cf6fROmbCWa2Ejyebcrghnw5hdhZub1t71mW6TMGXvwtDs8CWnDbB5NzZ7/5yuL4tPfpXPPFt1X1gOzhcUuXO/VYXSh6gFYTzWJMi+kahtazYb3NAz2gCDhEAABEAABLZPAGI/Kfad2+Drp6N3k1tXNdppM1ce2n/2hWt4+JO5IpO9mz4iiF4+pNeP7fvtues/mfInD/ty5xWYrwsPDeMpgbWx4fLVpTZX8RCtZMMssV/mlLob3pQmzrVKqTpUavtbeK2rf699+3E3wdfqnwes7DvMTSYl+1P6tpi0vv7cO9zLfmfCmgxxsf3ianuTX/KefcUB3SYpzh/Eb01ovkGw/T4cJQABEAABEACBKAGI/T1wEG1s+TJQKOLbl1ERlBIEQAAEQAAEQAAEJicAsT854u1nsEtiv/e5iO2bASUAARAAARAAARAAgY0TgNjfOPLNZ7g7Yr//IdDNU0eOIAACIAACIAACILB9AhD727fB9CXwD0VOn+M0OVTx3q/pYXvwdZpskCoIgAAIgAAIgAAI7AoBiP1dsSTqAQIgAAIgAAIgAAIgAAIeAYh9uAQIgAAIgAAIgAAIgAAI7CgBiP0dNSyqBQIgAAIgAAIgAAIgAAIQ+/ABEFAT+BP1k3jQJ/BvFz/8EFhAAARAAARAAAQ2TABif8PAkd2SCUDs97cexH5/dngTBEAABEAABPoTgNjvzw5v7h0BiP3+JofY788Ob4IACIAACIBAfwIQ+/3Z4c29IwCx39/kEPv92eFNEAABEAABEOhPAGK/Pzu8uXcEIPb7mxxivz87vAkCIAACIAAC/QlA7Pdnt703d+UjWVR/EXf91TW9+WIMnBf04MYR0cux0vPLNAOx/80f0Y1nv04frr5PqzGQjZ2eWKa42K++8vz+OV1fPhqjVplplH7zlFb4WFuU2za+xF3l+eph4e+n4/h7pmfgcRDoRWBnxuhetZ/fS7AHQexH3HIbg5umlVwc3qCjt4d0fv2GtiGNNGVUPVN9EfeM6OQDffx6BOk6dnpBJTLFfimkH7+ng5MfF/X7jgpJ6qGLwz8sbH+nsP2PRrH92OnJ5Y+J/XrSd0bH2xF15UDw+JIOJ5skpqy6gL9P3rZ4BjvT1y3AxCjieATgt+OxHCMl2IMg9mOOtHtif8uiyoc9toAYO72RxD7d/0GxYv29MfosGlucj50exP4oZp5dItVgSecb33nBID3AFTCJHQBv2Kvw22H8xn4b9oDYj/oUxP7YTc5Lb2xxPnZ6Q8X+BPjGFudjpwexP4HRt57kBV1884gejRJql1cZDNJ5vJynIfYHwBv2Kvx2GL+x34Y9FiT2a+F91fjAAR1vIL4WYn/sJgexP5To2OJ87PQg9odaGO/bBDBID/AHiP0B8Ia9Cr8dxm/st2GPhYh9V+h3bjB1jK1K7DcdauCc990tb64O6fI3YTef7NQP6fD+JV06Mfv1wdTLoBBWXL9Qzq4MXF5lgv7EisnrpiLWmsn/4P4h0dui1F7Mft0wvcpo8mBW9iXfOXDy5DmHZyL8mP1fFrHmP6Yzxz4FMROj//7PijMJPy/qZ2L2/7yw009o7cfwB8+VdefSvlPY/n1hezdmvxbsYfd4+PKPrYPP+vT4vIv0nXAkPj35LIGJ2ef8p/Dpwnsv/Zh9Zduq/GV9TMerMzpzOISLAmw7LPzwsvBDtz0K7cFr1/yglGojQ9IucmS5uHWt67mi45M1nbWLJHVp23o27eWKqVPdBk2aTX3s58y7PgCvnebYhmPJDdJs/2DXq0moT5/bHgj+ak23i3Mc9j+3z1D0udXLvC+cf/6ajpyDx/Vza//8krBbGe8jBf+ybSPYL90GFGfFuL7+5Jwevjqi159b57OaMqz8szLsJGVAm2HLY58TG5B2c8mEOwZwY3ThCmMxV7R/KS8auX3yfVHTapr+wvRF/ngatm1dm2L7trZv0mqmomVyOsPrR+J5jT0lmTa9BRzQlRygAKMRgAP4JcW+abxcAypEhz+o5h5ENYOVPch0Dmp1umU5vrxHH+2bTJoOgRW1zEFIk67T2TP16zdDNjb0ylwczi33auwymjpz5UjyYwbGi8Nb9O3XH+n0jnEE0xl0ZUnaufUhV+zXIvvXil2m51365aHcn36vjtEfIPbXXz4txNqvnMO9nai3xX4puv8Z3buyD+zWk4rLm5+1t/bo0ys7QaFexWFjM4Go0yO37tG2Vov90M+szpkTI6m2VcqpttNmJrecQLXTtAZO2+dcsdtUTLlSmmojQ9JuB3FHoIdncTqha00CxPYsTOjbPBixX7C49e7UOVjPtV21bQTf8VlyfWInqMP+JdlnePmy3FpB57FU9Llqf28mBRqxr+4jRX9t7Mm2rT79og1R39cbX9aI/f5thvFdz+b90yZSj9Fm0jeUOTtBZ87ibaR9MvmKC26r4EKRoJ9U6hi+jdZG1dujLPuTYty0LzkJ20UsrwHSciuvzl/sSytIJa4ti31ZJHpO0yuWXD5MmxITtSdxnZyUptwh+gOLLm/Pl6VBJ+CSqHOxehu9gk/J2bdbP7HfCOrY4dveYr9ZNadOrBui2rAb97mc9KR6NWms6sPG/cT+v1vvQAUryZJYLScT9kTN8mur7fM+mZFm4J9Se2jSXMUPqsbbyLC0RV+t6rBueUnPBWXjFgXUPLx2zk62uZvD9BcFuOWNvOfXQ9kX+KNunG/qxibftglbO4su2pX9jD5S6ncT/bER3/p+0aKo7uuLd9Qr+0PaTErsD0k7Y4weibm2/bNqcuz2ybaxsI/Ur+xzpQ7tw0/4K6kv3uqm1S26xYWtaPXBmc5f7HPboKbaWxb7sgP5q8fC6mXUfHInpXPcDLEfGxj9QVRYCY1VReyggnwjuzhVBoktZOUAH5THmlC6OyF+rayVfTb0xhc/fcN45IlEP7GfkV5TL3M6JrCr2S2wntNdLVqs7L9fC1ethp20vm2Zlf3QN0wIiZkgimn6A3FsgUGzyBBrIwPTlraejZ3M7oTU5sKBN1zNErfXUyFMajHR2Cw1eS+XLJxrhiPCLVjx7NPnmpVBZpKp6lu88onvcKJEK/Yz+khBYHarlXyv3faB6n6xS0ff12eI/dHaDDN+DEpbP0aPxVzb/oeJfW375HxWEueKlX220FJ6kYUgMSwxHYLGi30ur8Hae+MJLEDsd1szPp10zPswnvGVjfjqFCcs3Aafcjx9R1KtdwrxZ5TY7q8IxcIT2AHLHXDiAjljAB3U8XaDh7N1L6bphy54sX6ssLHEfnOHvhsXvyWx35Ql9HYT7pMh9sW0mtRjcfvRK0ZzxH5e25JEfG+xL50VMIBTord6Tmgjg9IWYotbw3c+rRf7fvvk+p3IwsGn0OvCsMP0REzqqR3bRgU331/m9bkZfZWmz51C7Of0kUK/nicYNf3ixGJ/UJtpyuakYfX9g9LWj9HjMNe3/3aVeyPt04Ti/qI5O8ifH0rH7Ot0TDKiQiv2RdsPDWUbpjunensRYr+svNtpz+M2nuTqo/SRIONkUdGg70jYGM6cMB7Fyj4/sTKdT9we+tWe1JZrohlIOwXeDlBqezqMszX5znBl36ywe0Lb3QHIEPuaHQvGDOY8gTz5yRH78mo9t1U7uthXreJqu2SvjdCwD8npdvVk0cpuqdv1vfuE+cBY2C7ZOOcZrOyLMfqqPlcv9lV97hRin+3XBV+Mruznr1bK/eLEYn/M9mgmS2ZMGJR27hg9nLm2/W+mfdb1p5NjWr+oz99xu+/aMB5Vm2q14MCV/WAnsPZhrOxrx7Udey4lCnnnLCAIjmTj8VcdQ3ThQdLGHZvZczf75DuAjDAe4fBQ5/wRMd/UNThkZVeIPSzMHaaR6qx0LL/jFjrylF3NqmxwWI7sA7rhIdiglELM/qUnzMPDs+amG/9LuU2eZP0u7DCwMfufFOmRol6sOYSbhtpnywO6Tcy+H37nD8DW5D6YZDJtSyv2pfYaipgwtEXpgfxjThsZlrbY53g556zs2xOo+kYjfyXe70uEnZfJxb7cP2i4pPtc/oBfidZPX9fnCrZm/J0/YzWwj0zE7Kd2ZENnFkKNevX13Tgp3cbWtf1hbcavhys+h6StH6PN7vlQ5ho/F2PXx26f3jkhqY/k+yKz85mvY+TxO98e/vgCsT9opFvuy1pReOlcT2mc2NsqfLbqDpcqJgP2ANOG4jhbuP5W05V1q40VQuDtHrAzfmsws8N+2t0U71qr9VfX7ZWOUnqu1UMm9ram0wGaFThuNf798/gXPKWVfSvWv9sh6uxTluXpne4qNrlD5W7jKWraindvBZ1ZJfdXwI3QL3nZse/t7yZtJ5beEu3md+vmHe7WHnV6lS/UNwH5X/4t0316p75G1P7v2lfrd6Ir+9ZtPK3N7a1Ux+ZMO2pDY9zJp1bsd9fRmbbjbovbHX/o+81U2/MVaZIeayP9066m3+xWeV23NT2/rm+XyBP77s5pKEiklX3mGs/Kj7u2pLaNMEwE73P9g/TbkD7XrgeTvrFhV1e+zzX9XNrfuxAG99xFvV7aq48Ux5nO712xU9bhKa2aQ/H6ftE2XkZfz9xyZI8Lo7RHr1207cfqa4a0x+BdYYy2w2qGMde1/2ABwyrXeO3TDVXsvMBbHAwmt/Z7+TompsvU9mAm3J3vIYxnuaq9Z8nd0CE7EXvli3N4b2WMi7NUHi72Y/2qhlpttZNzlVX4XH2v8Zl/c4hXFrZDtarqD/xc7KHq7ETAoGR0St8e3HbvXi7zFmLpkvlwK/lcvi+JjoKbS9wjqfwKjH/Pvrmm0vaNUIh39+yXz5nVefNO+fz36Jy5f9+/P7+aDNz9Z43tras2/Tj7Qviff/4LOnrxnSLt7jl1erbgd9pOd82oPUkxj8QP6pp79sO409Kup++Ke+Gde8dtYSu1vU6AHwWr0cIhM9+3qnZ4j56U29Hefd98+0+HEGraSN+0mxrz39WwJva5Yr+bCHH108XsH748J3rs3hU/utiX+gc/JLJnn9tye/mQXj82oQllpsK5A+u7DgfNXfJun8v5+wdaPbtNZ0GYpz+WlHkeFX0Dc/++so90fNEZc4T4b04ER8YDdmjl+tx3K3paXLUchFn5z5b5/4zoQfGsv1vcr80oxud2cuxfS5Bu61Uv5Z2Xk8ZoMY4+m7kgsrnzeZ86C43fPpldEcueMW1RMnpDD6pvgdix/Bodk1qEVduDGQuq719YZUrl1VNabuW1xcTsb4UOMgUBh0Ao9gFIS8CIfe3zeA4ENk9gM4O7/urRzROYKMdBsfETlQnJDiLghkPZSSnCvQbljJf7EIDY70MN7+wpAYj9/oaH2O/PDm9uigDE/kSkIfYnAru9ZMXDwrHb/bZX3L3PGWJ/710AAPQEIPb1rPwnIfb7s8ObmyIAsT8RaYj9icBuMVkuVM4UR3U98RbLvodZQ+zvodFR5b4EIPb7kiOC2O/PDm9ujEC5Kmkf7J0o42pSkbpwYKK8t5NsHbpkH1zfTjmQ6/gEpAPf4+eEFPsTgNjvzw5v7h0BiP3+JofY788Ob4IACIAACIBAfwIQ+/3Z4c29IwCx39/kEPv92eFNEAABEAABEOhPAGK/Pzu8uXcEIPb7mxxivz87vAkCIAACIAAC/QlA7Pdnhzf3jsA/3bsaj1fhf6dI6h+OlxxSAgEQAAEQAAEQUBGA2FdhwkMgAAIgAAIgAAIgAAIgsDwCEPvLsxlKDAIgAAIgAAIgAAIgAAIqAhD7Kkx4CARAAARAAARAAARAAASWRwBif3k2G17izC/czftO6PLT3E9p9e4jnd4ZjmYrKYx9t/fY6W0FSo9MK78mOr9+Q496vL7MV8b2f9yHvkw/QKlBAARAQCYAsb8D3lF/9fGqqckBHUeFb/MBjNU5XV9qJFHzPB3Th6tTWpW5NJOFg5MP9PHr6pft/cucuAwtaP2J8BTjvFzEz47nJdM+PXZ6djGMrx2+vKY3X/gFzPWtnhUUXtvM108HlHmKdjO2/+NLpwMMjFdBAARAYJ4EIPbnaRddqWKfq75piXMrtUoQvXrYCfdkTrLYpzl8EntssZPgUQtpIl7sJmGyD4wtzsdOryt096VEIm7CA7Ef9YDGV0dtN2P7P8R+v0aMt0AABEBgxgQg9mdsnHjRyu37I7qkQyZsofjbwbd0albi24TWdPEN0aMvclbjGbE/J2Zji50t1G1scT52eoHYL4T+wacrugomexD7G3efsf0fYn/jJkSGIAACIDA1AYj9qQlPlP4UK8x8USH2JzJhm+zY4nzs9EKxf0zHqzM6C8KZIPan9pUgfYj9jSNHhiAAAiCwNAIQ+xGLubHw9YNu+IYd1mAn5IU4NKtlq5NjWr84IxNdX73hr46qtvqbVX0hVCeokhTuE7xvdgusFG4eFnsHl8X/rLAgbvVPG1KkLktoGNYe94vSvS32N7wYcjMZclLR8GLL19kziAs3tvVj2FkRxvlLwfd+wfetvUPD2KH2Pm8XR5uey1KcKJq6i+FZ9sTvHj0pd5YcpoLYV9q8Zrui45M1nbVnULp6UxNC1dbGs2drm5NV8f6lU2n3fEnNd120x1XRHusnrTYrlFcTusX6neHJtBtTZ/9QMTdh0/o/91xVQ/+MjelrLFIHRXuioj3RHM7jLG00RXlBAARAYKYEIPYlwyi2s1nRZISCLUQs8dANuEaoeRMDjdhPijK7Uny4jxEEtgAI62OJSaY+tiAIxSNxULMAACAASURBVEmTryMc9WURJyx2OSyxYgsx9hCpwp5E/CSqrNv5H9QHUoeI/RhzR8iXZf3yHn20D1AzhzvV6fkwBf9JH3B1d3moORjesefEvt7mnUi12oQtSC3bczZm3zc2dSZK1mQqmNjIPnDkTMjkyagzKShZ/y7RmzKkbojY5/oVwf8vDm/Rt1/bt1OZdsxNKK3f2H5qpiMXigUCIAACIKAmALHfW+xzYrZOLBAiktDsuwWfI/bFPHwBINWHCeMJ6sO/W00A1uEtPuEKKSdGXMOIQjSonxx2FJTHt73CHv3FfqJcCSHZTkRacTokPY63JlzLf8YXxozYV/sfM5GqWxM9ObhNZ/bOUvmzKJwpvI0qKEPkvItUXmkHp/UhBb8BYl/v/3yHFryfqCdW9tVjKB4EARAAgdkTgNgXTSSsapvnYyvF/iqs9GxSQAiFyxD7sdVa5xpJKlYg754x2/casc+t6IbvqcvC3JcvxqGLQk4yLHeg2Z6kMWLRSqq/2Jcnh7oYe//9gen53FQ7H4wvOL5OtTC3rnXNsTn/7AhiXzk5tSfqkvfI183K9mjTGiD29f6vE/uiXVR+MPtxDQUEARAAARCwCEDsJ9zBjX+1hGJsFdgfMKcS+4oY9JiQdAb8QWK/282ozyB8txZ9n9wzDuqyDBH7Uny4sXOEmUZ0b0rss7HfZR3alf2BYt+EtzTppUN4KinMrLLbuwSn9K0n9nNsPgexL3Jv/EeM29eI5E2JfbENRM6eaBYxMHSCAAiAAAgskgDEvtZsfiy9YmW/FQZji30juj7Jq9SmWumV1SYNsT76lf3XnwsHHpvCqMvC2ES/sqlYYRVsrhG8mxD77JkDT5yHYT1dpTSTlvLp7rlGpPuhMgEnYZW9Xd0/p4evjjJX9jsfnoPY1/gA7z4Kv9uI2OfPHPj1wsq+tuPHcyAAAiCwfAIQ+xk2dGO+5RtxnPCYcpV6dLHvr6SHX8Jdf3NB9MUjWolf7fTLL9SHOxgo7Fys2K+qWoDVZQmNwgtgI1jtHYR0/L9ocrF83RuS2PdjnOXDzv4ELYwf58W6Lyalesa+v+DV3OxONbdEJe0nxc+3E4fi/v2bxf379teZM2w+jti/Cm5mCn0nIswVPsD7j8Lv1OcMQhuq/V/oa6SYfT8syeQzi69jZ/TNeBQEQAAEQEAmALEvsSkH/Wer7kuzTJx8G+Jj3ejB/ZYl9jW38VRlts4U2NcGtjd0GFHZPRfcmvKJC7OxrugTbkIJ62OXxQUqXVWaKktgljY0IaxX+ayTjyk3dzXj++dFmFE4Oarz625padPzwrVCQWrq3oVI2KEg3C1BbSiOE27hr3BfWVcl8rfHBL4mpCc3f9tu6V0i8bBsmYGdt3PDjd7/xhL7ZXFascr6QmwVniuv8Y2ntHpn33Ljkm3t0fqdtxPCCfFgMm3Z2r5BSO3/8kTB/eqxeY73W0fscxN+jKogAAIgAAKLIQCxL5mKi3tl4r3dmP46sWBVLGdlXy3267y4/HX3sXtXftaptbH2BkspVk/fFfefv3oYTHy61WxuVbMTLS4PbmLAlYUxjD35KP9c2aO+752Ee+79VNJ3pdtiq3k7mMx5h3h9XynL9TOiB8WBZ3+13I8Jr9jcfUI3HpNzh374XBgiU0lQ7+55KT3JzdnJqdh9xW+cacsifVn3k51waPNxxP6Kzt+t6GnBvvuehbCbkvqegFNe42/FFZqR7j1sj+H9/f4ukP9OacM39KD65oBz/77W/4O+q6j/S6Kjx2v3piLuues6pOv154Vfft3UFGJ/MQM6CgoCIAACHAGIffjFcAKVCPGEhD15sMM6hueGFMYkoLhudMzskBYIgAAIgAAIgMBmCUDsb5b3TuaGw35LNasiznypVUO5QQAEQAAEQAAEKgIQ+3CEEQgwoS8mVcX1oCMUAEn0IcCcQ+mTDN4BARAAARAAARCYLwGI/fnaZpElM3HbuM1j/uardmTssxjzLzJKCAIgAAIgAAIgkEkAYj8TGB4HARAAARAAARAAARAAgaUQgNhfiqVQThAAARAAARAAARAAARDIJACxnwkMj+8zgT/Z58pPUPd/PEGaSBIEQAAEQAAEQMAmALEPfwABNQGIfTUq1YMQ+ypMeAgEQAAEQAAEBhCA2B8AD6/uGwGI/XEtDrE/Lk+kBgIgAAIgAAIhAYh9eAUIqAlA7KtRqR6E2FdhwkMgAAIg8P+z9zahliVbetgq8KjdaglJIFl0o7rJw3DyZWJe0ljC0Aa56UHedKMmmwK/ulS2rDa0EcKTm1mjpBBFjirvnXngyZOtLG4WplAi+TlvDtqNwD0RRtQbZL57Jo+8Cd1uJKNBq/u5B55c77/YO37Wilix/87e53z5Jq/O3TtixbdWrPhixYq1gQAQGIAAyP4A8PDqoSEAsj+uxkH2x8UTrQEBIAAEgAAQQGR/D2yg/urp9ssbev3ZuodT1Xl/94xuLj8dYSD1h73oxZS4gOyPoCirCZD9cfHc19Zqn/fqkyt6/9VmXweJce0VAuV69JQ2b9/T2Z29Gtg6B/P1A/roiw1dXZ/RoXoQRPYjpluR0edEp0uasM1XT+nJ2he+egE/p9NxJuAsuCyP7L88/u/p5M1fL2z02QoXFZD9da6cc0vdfKH7/sVIgYG55Ud/B4dASS4fXdLxpMGng0O194Drj30e08XNaxojtNhbkB2+CLJ/SGR/UQ4IZH+MeV+TfSoWlf9phSc9SyT7I9vlGEpeQhs79R0g+/1NAPbcH7sBb+50vgyQe09fBdknAtkH2d/R9B55ETrQyP6OlDdStyD7IwE5fTM7JS8g+/0VPLKf7S/IYb250/lyWFBrRguyvyKyX6fUXDd6PZoltWbv0ngW5YBGXoRA9jU+b2HPgOwvTCGyODv1HSD7/e1kZD/bX5DDenOn8+WwoNaMFmR/JWTfJfqdaqfOh1OR/WZSBwbn5ZdyY0jKz7R9dP+Y6M0lOTn7DdE1W6FWlo9NPnzj8D94UrZ/L35PttG8y8mUvD/QLNZ29x8f0zFdFv/zcvZZPBWbO5bsC+Mmvz1OPu4ugZuzb1JoHFTv/8Mir/g/L376v4oLWv+0GJ//706RN/iP27zB7edPi03s36TTJ/+Wzp//e+vh+jlq0nQ6nf5Gccfht9tLRvX75b0SO2f/3xb3If4Jnfv6Jje3X+6bSQt698/p1t3fJ9/G3PQhrl93vC4aNdnn58YF0SP3wnXlsLe+XgQy08eOhLls5mkt56bQ1bbQVYNEM88lH3XkzI3azrZPTmnz/Ny1DXsulqAk5lmFBV3Q1Z1S/65WAr+i9FEG39PNOZ0XqWHlv6Mn/zs9/Pa/Dm2plZeZO9Wbbn4si11jDEk/SALZV44r2/dWvuQVPSzm1PbuSVRPNYkI6YY/Jq2NG5z83GKWrAg+u+07Yc+l1Kz8mbYYjr5qubJ1x/8V7V588opOvn3Y3dNqxrDxc9tZsiz4c8VdjqQN9PEXzcDZtot1+rJYp1070MmflDWl90quOeYl76dae3B84ybIlw9teoDMrQ1wGBdc437BNbycfdXcNfZZ+Oxt4bNrT7vO3P8VpPFIBlBg7jsl3uv0/jVJ9s2k8+QwRtRO9F5RZzNuy7CsSe6QiMJR3Xp75lSqMA7DcTZitIHpyyJhXV/9ImwBHmRNSG7D4ThvZWSKwTjstxgUozP9rr8j+zVR/vdurnxJiH+T6HVJxsv///mv0PuK+Df/vv4fi0tb7woC9U8KXf3N6kfTDtlEvHmueuDjjtxzfXJkn83jN2Sdac/pm3mu3bhY79ZEobwv0JF5fuMRm34F2efmkLXw2varJvumzT52ZGyTuTjeLcLh5vPl8S367iu78oaxcXthsHyZJVtop+l51i1UXPuMz0j5KIf4MYuZ5DtKrD+/V9i5de2tedb2USx2gv8MLYbBY0rfK/hZM4ZuXKWOH9O9a/vSXyMr59fs3wQb15N9pp9Wh7b+ZP/JrhGBH03bIjfDc32+huzXbXpzTxNBT62/Q/xFrv9KyZ+S1ZB4dj57837yecnYFiO/2qaH+BJv42X7Ht5XZs7don03cNObVu7sxeWTfSniXBGhkSq5CPCnyL78d88RJycwI0Bscb177kb2Ofm5PqU2RYfpE5Y+jl96J3QUIp6VfNt46lbGIuUvcvlkv4lgkxtlT8/iJtrfRv8N2Rci8377DRGnYLNgvx/2YeTyNwsSOfdJPDWbj+AScCPPprkc3Ifsx3XuRsa0ZH+QHSnIvtbph3IIcyHDdo0uJZv1+1T7KIvss5F2DalqJ0A4TkkO3dzTt9dGNM3a0Mf3iu/o/J8/phwbVxOjxPrQkWeJ7MubAHee6cbs+j69zzeb/TTZT7S5iVRqStjAEH+h161S/pS9qvXObsHq0xYr0DBoXrKyNnZl6UNt0+wCKs39a4Z8J2xaUY0n8EfqgER69d/1E8sn++Jx1O7JvrxQ+SRZiGRHtC86kZQzMG1mkP3YpsaPpvC75MhARHnDiSkdq5nWo8f9fj8xnPzIoxBlC0dlIvsyoY5P6BnIPrMhaGXyThYkcm7Se0y6UXf6wI+uPamwUn3s0wsZk99r0gh0kWQt2R9kR0myry/Fqyb7jY/bWik/qXkm+h6PDOh9lEnpEI6oJyL7EhFIkUf9uPJ9ryGgYXlj3SmjL5tWV+WYtcSIS/WwMXNPH7gSx5ET86qhzg5SthjM7wyfryb7saBfKUA08Be3gSH+Qq1btfxxWfV6H0b2c+al7bfazXawodCk8QyTmes7FRzxe5TI/vpLnSNnP8rN4pH9uOPnnIA7UeN5X3lkX8pN946ehAU7Fl1j5XDyGxP59GrHL4+hVlJmPzFywsrkLn589LYh+zFCbVkUm9Nf/n3KyL4UhS/79eTWkn1xHM1Yo3n71ljDyTYF2R9oR33JvriY23YrRfdMLr/37YzIPNORjDwfFY2yR+aTSJYUEcQcUtFFJPPG1ZFoc7chkXOr9llFy9K9gYAs6za0WrKvJ6gCVmry2czaSXx+6ZPK+xHnlIzsizg38mXn7Rt9DPMXunkYsxNefokr6PUu3Meo1p/uFETiGbp52fVRr5c/ae5puGu11qZL0Yb4kmyyr5i78sY/Sh0X+ccVRPZr3FzjV1zYHAHuONmPRcISESBjZBEHlUP2/eh7NfRRI/vC4qg54spYOHVH+oJie0T2+ZMC4/w5G9NH9tmcfnNpd0qyr4jsG3KuJfv56Tm1jtLfAJiC7Cci1Em/kMpx5iL7fP70kMi+IyYzz7QkIxkBt+4m9CH7xi+7c0mfdqMjFWF7OeNysFT4XnVk3+jF8+PzRfY1p0ySPfdJz+nWletYJD3D56vJvvZEOzm/LeLd6G3IuqOdh71Jo2evKU5ihj/nvKTE5VUt2R8qcxbZV87d3nrT2OHMz6yG7M+Mi7XBkB0qb5yWQ4yQeT4lwRolc8nN3vQkj2kzyL6JToXRbJ7E2LpIL9ZCGwyBEfHUKF/Ke2YWJXZzZPchRZvIkH1TdUauNBPkvVftz5DGY/rwLtN25LuryKMl+yZnX5eaYwNZj3dr3TFwVfl77Sbe33iZCE9wQdfPuxzbjvpE9gUiMhrZL0Dz5xmHT61j9xJjjo/qQ/b5d6Yn+znj8t1H0vdKQQyfIChPSiVZOR3yZI4poCCsD6GrTOTsf8ivLDKmz5fIVIhNei3SLBPmGdsGqCnrna4KxaArvDum/I69KvU+y7zU3KVrfZfPo0KbHipz4SWLC/NFylpg0/L84dedsMAB0nhyZtcKn03voo0RMUf1dtpJOSm+2ATlxq6jR49h2/YRF3fb3K/+Ux5aOwRe2M12k6QsuXjTfIm1O950293Ss/aT0zoHbORuZbGPzxwyzuFpNk92v4wxMYSrPQ0Kji0LZLxSXdsvzbhDwtT1Flbj6arluJd2qanW0xFkqxTnlJH9yrnWlYLCdCHuN/9ysHn/b1olQruSmm7KTjmm/402TdnPcoPz9E5YaUj+uq9VjadNe3CP1blqUq3u7FSEseyIIcxG/7I/CBeT7iSyRxpPNa74PLN9gVsa1Lbtiv4zR+v8PIuSfcF3mHEGFbvKrkdLF+Ci0Mpx9fG9rF0x/YknLuXguSpqfOqIY+NBm3Z6IVNl54Pts42+nxZzsqsMJQY3jB/2AiKVTt89K0oIFxWWFLbILe16nx+epHK2XfbB+XOzwX16x0uBs4VK2sDwdeda4b9U8idlZdblaqzlGDq9zzovAwPwTsWVNj1UZtZGnHS1eJWyzu5A9ldI14eJ7KYO2W0J5fTaR7xoCZcfqakkFLxXtntG3xW711ef2M4tzDs8flHXKXcvz3g5cY4MXO6ioh69quYsJ98Nnb0tFhW75nLrtLz6zB5xYLUaja66dcj9Ewx7cTFt81Eet85+eHHVrWPv57ofPfmHRc3yf0rnG1OLf4pqPPUIuEu1fmReHdmvWhRq97OlPDsNxU8Dmo9q+bmTpV1+uaXbj/w61WFOZ6mnk2+4+vvCBURFbq//zQmXTAsnfdxcfUF04lSR0ubsc7K7PqUl5lUfVjVz1q+k2zOk6SRSscKZJ1Y//vw5enJR2PlJYedj5QbHcXO/ZTGC7219STOOglCLfoGx3aqWfPE9BqdWfoaN++tO6a9e04PqGw9u/X0h39y3Ac822Q2051S7Z3S2E/pkzudf0eYL5rKwP3dK+X9M9IDJ5efXZN19LmcVCObJAH/B6fb6Hj0uKt+Q9/2ApPwqrqDT+2zzUvhej21nWpseIrOxwbCNgivdfVxU9KPknAzm7pjpY8Po6OC3kcYzGEI0cDgIuGT/cMY91UgjX9DNqv4ylXzLbXdInvFyR7UQyeZa4A/OxnXVjBZiBRAjgYCcziUUHACiO0UAZH+n8KPzdSEAsj+uvkD2++IJst8XOcV7IPsKkPo8ArLfB7WlviP6oIPbxC5VQ65cIPvr0BOkXAQCIPvjqgFkvy+eIPt9kVO8B7KvAKnPIyD7fVBb7DtcypERVpMuudiB7adgIPv7qVeMahIEQPbHhTVC9r0LZ+P2u/7WnEuU6x/OwkbgXnacTri5+pluBLktw25zEVvD89Kl4TXIfjgyguwfjq4x0sEIgOwPhtBpIEb2x+0JrQEBIAAEgAAQOFQEQPYPVfMYdw8EQPZ7gBZ5BWR/XDzRGhAAAkAACACBEAGQfVgFEFAjALKvhkr1IMi+CiY8BASAABAAAkBgAAIg+wPAw6uHhsD/fGgDnni8/+3E7aN5IAAEgAAQAAJAAGQfNgAEgAAQAAJAAAgAASAABPYUAZD9PVUshgUEgAAQAAJAAAgAASAABED2YQNAAAgAASAABIAAEAACQGBPEQDZ31PFLmNY9WezL0f/wEZd1/fVJ1f0/qvNMoY6gRT9a1LXuNOLG3r92QSCoUkgAASAABAAAkBgNQiA7K9GVa6gFRF8fk2kINI5z44Jx3Rf+ZxqE9GNvpad6OhJekOR86we3wFfm5zrC6DRwcjy1/ZIdPr2PZ3d0SOCJ4EAEAACQAAIAIF8BED28zFbwBvdF+tKYY5jEVznk9bHdHHzmj7NGkFP0ln1+4oeTkLopib7TfsVTkdxUvr1A/ro0WWN6MendHV9RuOcNfTEvZRjyWTf4KXYpGaZKR4GAkAACAABIAAEWARA9ldpGIYIHtMxXRb/k0mmia4f3y+eezMf2d9+/ZLos09HIr6+kmYi+/cLfN8UuInEVK+HfDPbQ7JvNp6jborykcUbQAAIAAEgAAQOCQGQ/VVquyOCF5+8ohMxJaImxdsiFeXZu9tFWsp8ZH9aWOci+xd0QScybg153by4os0Xt+k8sunKx2PfyL45Leljg/no4Q0gAASAABAAAkCgRgBkP2IJba679YybMuOm03SPeakfhhQ+OaXt83MqMu27f37UWJXmYBHBHxM9uFu0yUSf7dzoe5+XOegu0TK55j4E7RjtFBUOA3ZcdR8/4PKynZQi02CHVS3vJkg1CnP/GbLPtl300SuKbLX/w4sqTYfL3e/kOqPvigvDAdkX8AvvWdhpQw0uHwunNmybvL2Rd98gqW9mLph3glQxg3fy1KM8dfpd+lGJzwc+Jcro/fTJls7Leyjtv9qWqLk/0f7cS6dw+UAACAABIAAEDhMBkH1J74q8Z5YIcakKFhHtSKPZKHgEKJfsFzniP6nIkB8xbdrfXNDN5acUEuby74/p3rWdw9+QTodMRSLM7LhqQMNLmFzbVMl18cO6aswgsl/gduvtmVOdx2zWoncaWP3bm4kfVJV/wqh9d2ry/isKnxFSVjibCX+zNpG2LliCzeiHsV2DhbtpUUTbBVKfvmTrnz5di3dLuk21NReEuxD9dXqYDh6jBgJAAAgAASAAst+b7MupJAEhkTYODaHJJ6MewePa8X7TVsbhNwVCikokBzsgg4qxDiL7nB4VGzZe/a5uOWLr/hYSbpkM+5seyY4y2qyw3XYXiYNxRzZsjV7kqkNm42FvJjUpRt6pVyQaz2Ml9NFbp3D2QAAIAAEgAAQOEwGQfVHvQnTVPB8jHT6Bkp5tc75z66H7RCiMmvukfUqy76eLcJH9dCR4YGR/QrJvqtt0qVI+/iExlfH2yLNoR1KbsqNqN41Bm5E7Dsl0nKI/f6OmItyW/F9u6XZZsUhI+QHZP8zFB6MGAkAACACBeRAA2U/g7ObtW9HNWKTaJ0OTk30vbYbKspfnZJNwlnxKOeVFjZ+uRGc6jUdD9jWbjWGRfen+hK5WvmsGITl25A90nyb/dvtOW2qyL4+vbttKgdHaX/We5rJz+qQjnEYuJnWqGV8mFmR/HmePXoAAEAACQOAwEQDZ1+rdz6VXRPblSGvT6WiR/aI9K0J7dedp8NGigGwLEd0+aTwasj91ZL+WW3dRNa1yhgBbpzVhZaMekX1TuUdN9uv7DaqKSj0i+5wO+Q2KcBk5AFXYADGXdEH20xaJJ4AAEAACQAAI9EUAZD8DuYpsbU1Ne/7CaRUr9YnnDJH9IrZfXxL90AzIS5kIiKJwMjEV2TepILEv0vKkj7tE6pPxsfO7uWi3WzHHHYeUX89cSg02WYIdMfch1JdTpZz9D2HZS3Wbxl6ailKb2IfcKhOULw5fe/n7IPsZTgiPAgEgAASAABDIRABkXwKsJDdfbLovojKR8DbFxyLW3G/iF025yH6PajztF1uttBz/0q8Y2beIV1eakSvRyZRNjJxuiNV4Crz90p7+CUhHBm2CbcskpdlYbRt9Ff05xDx5IbXarlXfJ/A/psVWjZGIrWnD+QKvGY+LpcG9lVP8Ki//fm1fW3pmvo7M6cW0aRNt7jfRgdibSU2tfGEDxtj3ULIvlgfNdIZ4HAgAASAABIDAPiIAsi9p1SKL7SNMRRE3p79+Mohe50T2h5B9QzAZOVU5+8V79Ue6vFr3HhbJ9KQyrsvV2W8JsAW6dwLh41li+ZoeePX3OTIe5rQfv7ggelR/VOz9V/WWSBfJFvLYxcus0r0Gpn6+cx/C4MDJfkNnb4vvDnz7sNtwVo9zbRY/2zhK9sbd0RDr5IcTg93IpjYHzIfG/M0NyP4+Li0YExAAAkAACCwFAZD9pWgCcsyCgJuKNUuX+9OJonzq/gwWIwECQAAIAAEgsB8IgOzvhx4xCg0CVcT7FT18+57O7mhewDMdAly9feADBIAAEAACQAAILB0BkP2lawjyjYRATVZffdKl9IzU8GE0o6nHfxhIYJRAAAgAASAABFaFAMj+qtQFYYHAbhCo8uqD+wO7kQW9AgEgAASAABAAAnoEQPb1WOFJIAAEgAAQAAJAAAgAASCwKgRA9lelLggLBIAAEAACQAAIAAEgAAT0CIDs67HCk0AACAABIAAEgAAQAAJAYFUIgOyvSl0QFggAgUUj8Fv/YNHiZQn3X/wq0ef/OOsVPAwEgAAQAALLQwBkf3k6gURAAAisFQGQ/bVqDnIDASAABPYWAZD9vVUtBgYEgMDsCIDszw45OgQCQAAIAIE4AiD7sBAgAASAwFgIgOyPhSTaAQJAAAgAgZEQANkfCUg0AwSAABAgkH0YARAAAkAACCwMAZD9hSkE4gCBXSNQfUDrOdHp2/d0dqeTZv8/rFV/ZXn75Q29/qynFiyyv/3pP6fbf/K36eo3fpU2VXP/gR7//r+gV3/rt+j99/9yzw5mfA0XdAeDXc2Zd8/o5vLTwW2VDYzd3ihCoZHlIPD1A/roiw1dXZ81PmegaGO3N1Ac/esv6cFHT2njrWH69/fvSZD9iE4l0mNeeXn8EZ28OaaLm9c0jivfPwPDiNaGQOkkT2j75Iref1VT1IOx93eP6dbdcyJm7GotWmT/5b/+Z3Ty736ZLv7+rzf+4T09+Jd/SJd/49fo5u/eUje5swcPiuzXG73zD2P686ZNOh2JfI3d3s4sCx0XCNT84SgIqgwBZ2xOMnZ7Q8aW9W65SXl0SccvBgRusjpc/sMg+yD701jpGMRpGskW2+oSHGslA12wkcglyDep8sawWZD9SVU0XeOG7I9JvsYm52O3Nx2aaDmNQO1PaVRCOraPHru9NCojPQGyHwAJsg+yP9Ls8poZgzhNI9liW929Y31JL7/+lD4VUlh2L9/EqhvDZkH2J1bSmpofm5yP3d6asISsGgTG9tFjt6cZwyjPgOyvl+zXKTXXzQDGjL7IpoU0ngHTbgziNKD7Nb66dMe6dPkG63wMmwXZH6yG/WlgbHI+dnv7gzRGUiMwto8eu73Z9ASyv06y7xL9bgxT52P1IfvV5Nie0unmnM6LI7ruX3qD0l6A/HJLt4t8M+dtJ4+4zqt2nyifDvNNOeyOX1wQPTohavPZhDxtifw0E8m1pm585njS/bstmzky9+zxPp8+4j7Fv3tk4cP37x+XmjGf0ub5uYvlx2GOLdtmKy/XlqXvBkezVTXjae1X+Ls9JmIxL1pKYsbh5dmJua8O6wAAIABJREFUsm3W8Svf5Zy8SRm6uvPU2sjXTzpzu8Fn4+dfsg5daVuM3Ef3j4neFLPKz9lP2Lszth5kv87t9xD6he9bF3uLv/3Zv6Fb/+qn5NtQ9Vb7bHMnIADbvjdQXPIsLw7/7K/Q6ff+lM5/9vP6ae4eQZOzr5tPoYZr37MJ7jSFdqSfi9Ja4MwVztjK31g9dnMhkCvL7hif/PFx4ZEvi/9Z/kSY6xT4HGV70li93/VrS/Fiyl9VbffzeeE4wwH0tTcjd9pPzGRvLI7duhDyi5x1mPfrx/cLe3PuEWq5grY9xuCqcb6ih2+f0faux0s8uzb8yL1ALGxilX6X5TiFL78sfLnLETVrg942lFNvMY+tII1HMtYCQ4aUjYlsb7JfkXyLUBmjTRCzzmjtjQGTS1pOrs/v0Xu7wkPTh7PoGWdj42RNoG4iZDgZ06YzFmayRqKk7MUk5U5cfPebkyrP3GDoLv7GhmySa9mVNRYuj9K0GRDQ3yR6XVU94NuqbbH5G+f0vMvdYhSF02PZsiLnM2XD7cLOyueSbokMXSve5eZlt6hzerF+yyBdOtti7MFamNk5lLJ3M8BMsl8T75/T8b3fode/0jTSEHv6Xle1R3XZt3zv6q/Se/vy7x/9AX303R/TkdWW6ZPoF+n07/02nf2S4DUrsv/rxcXVx3Tv2i5CwNu030ou2a+CF4m5+PL4Fn33lV0lSnmxVvRbD4h+XLc3hOyHc9EiFp7/vfX2zLn8zvkXdXvKBU+9tqj9lcLnecEn3jcHVtPb3nLJ/qT2FsHx4of1pdEhZJ/DkvWnSq6gbo+zN8F3im0WwdAk2c/kGc4axHIc4UJ0wDv0vEA59Rbz2PLJvhQJKSFcLNn3I+y641eRmKmIcGOk1mKpb09P9uNtbrvKAiLZD+WsZ0OD0SYW3ZfeNfMpgnOwGRLaCuTW6I7bTDQySbpjCKxE9mXCniZdKbKf07YvX867MtmXTqOs0p9qsq+0rYRO7Mi+2t57kf26FOc5eVH8ciNXRvv/3PzOV/Fxn5HWlPBdQ/btDQD7dqQaj+Z4P5vs+8EQZVpVysYr7yKUk7XH3Z/sJ+wuVY0nGOfA9hhlqtcCtb/q4fOMj+9R8Uhjb9lkf0J7M6dIseyD/mRfXpNUOJmNSDv+ge1lrPXayL7W76rtOhizxxla3qHlBYvh8GpBlk/27aipP6zVkP1mVxnsaN0BiYarWvRCIxUnvrCbDcotMv1KR6xmJH5qSpASEdu8pTZwSRwim4EgUiA96298UhuMUmj5Ge6I0dZ6mH4Ukl/ZgSuimlLEuhEip23/2Zx3c8h+sFBqyb7StkgifkPsvRfZl9JuTGMm/abZFPwlu2SnvFFwsZbIfrGZikX1y0Z2TfbbVJGwDKw9xl5EnjHI3mRf9EuaQEEhiP/+0PZyyL7Xl95fpXxe+J2OylP2LDepIrFaPyH6ayHo5eGpsbd+z2iDbjL2KpyC8Q9sL8NetWRfyzPUHEe5NrSn9EEWhs421Mx7Bw+ugOybqEyYrbrYnH2m9j5v5P3JvjgZgmNwpm50b7Iv5Ly1wwjz1HX5zxYOsVSn1AlHdDPgOzQl2U9uMOJkX+u0uoUw71RI59w9vSkiOpw8bl9xIqORK9dRJ3NxpfsDxryaces31Rn23ofsx/Lwy/asvP029abKrf9r9YnAXxRpVnb6T0mmuPz/si0rJ79uK4Psi7jGa9IPjuxzZF9ctGN3onSkex6yL9tUu/HPIE9azqC1eb2/6kcQNSRYvJ/E3Elzxj8F2e9lb7qLsv0j+3nYp7lCXnuBzWXYq47s6/2ueg1Rrg1y4A5kX+trBj/nRhzSl10Hd1g0YPrkNxV8VFUyvjHJPi/XnJF9xYdnJAegIs+C9pLvpiP73eZDSfYjUftOyn5RLn+UUdthP96mIzF2P8bxG5tORuetFITsyH4ifUHtqLWLeNI+aiS0xEfegEW8S1bOvvYjW+bLu9+nzc9+2lwmD/Pt2fx/GhjZP/5QfWjs2tuEazZz45N9Pm1NQyA18s5B9tnI9uIi+3xU3rX6fj4vqYfgBLbuNfle+ZDWT6gj+/3tTWOTc5B9HVdYGtlX6jtmF35gULk2gOyPwZzX2IbgeKqhZDolPdm/Jr+yhD9heccXTlhps+ITPsnAzfu2PPENkKVkcXLxDlRnHql35bSWUG4t2VekysQ2BNzFaWGw0oImYh6zTxFQN0KR07YvX867nDihHdoLe/qUSLTjVHqfoJNB9m4GmEX2m1Scv3Cr5QRYNScAGy+KH2wWgy/2lk8MJPv/yRv2S5Qa8sUTnmbeOVFa5VwUfIqeWF1HP2AkkX3/dFJtd2Z+tvYobM6DcQl+LmhP5zW7DW56bTFR9XR1o0hgRfR5Kf9dSCqc3mrsLUiHauDRrnddhaEmbWyAvWlwlMj+pbexDv2StCaFc0vHFfTtsRYn2SWzPrHyMO9reUY2x0mtDeqNoH7uLeXJVaTx7BKs9giMrWgTnjAMj+zX6UqtszXHT1b/4eQ3k7x40XYU7RGkicS7x2P2iYXvEO2TFL6yjTf2qq8tPbsxVTtkx962zUQLn96J5+e2+vDKXrYOksGrPRZ2JrqSYBSQtvKKi3Zk4WsvpXGlP5/S5m1XWUR2cEa/Nubcb+FMKfGyMRU3PZRuO7Tt/nKVkra6LP6/sUXeNsKKVNy7NqnxS5K6OIRy2+31s/cG+yyyX7zTVMuxU3aqcZSpNn/+gyJl51bxX2ZTEOrXTuMJL95adwL6pvGYyL41dzqsEid8wSJu+ak+ZL+9v9X12/mpxGlv6wvl0oehfevtzmAS+O1SZQx2XNldrnxwqr1uHsXHz/pzzleq/VWuz+vWnmj6LUP81PbWys6Xgfarz/mkOiD7Q+zNumvY9uttZLhNqnYdDvykk24Uzo/OtniuoG0vSvYdWxfWJ78yoS03tz4761LRgc8zMjiOjnfoecEueWmfvkH2FajZjrJ7nF/ohpP94gj1xUN69ag4Om87ky5tdtIcPbmgh9+e0LlfzcbPVSsnVFPH33W69kJctlv2eUIXRT3/4OKudGlaiEjUUrpj4DHVpWfZxIxrm835FC7cpB1+3UMoL0OOxfsGQg5iorY2Tzptg02nU3E4h1E7X/ehvjpS4fepe5ebZu1ceUF0Yn9Xgou++Lmz5TM/JnpQpJj4ufwq2/Lbq+zzjL47uk2vPvE3nNwYixFx+s4l+yUwhvB7IHVEnjsB6Ii8XVXHz9k/+t6v0cM/+UM6ty73Ds7ZL7C/+OQVnTA19H09+7oobe81PfDq72cssJzeKvuxKoFJPj141wqqFO9Eo46mTdHuwjle+tezt8W3Br59aJUa5J6rv3vi+tnc9jT3J3RrS1sZ7YMHpCpYYt7hfJ7Ovwf+O8Pegm8EsPqayd64dTJZLU+/DvvrYOXX7z4uTuLI+bZF+BzPFbTtBdOrPQFp2rXshtvY+f2Uz5x8U3+fyC3JqfS7HMe5vkePC+7SfUtIWsfL3zVruXsiLrmYJf8Osr8g7WiOo0cRN3XRdZRO0AgQiCOgOppfG4gW2R9N9Goz8KdM9RyuSs9ovUar8YzYC5oahICOhMy2tgwaC15eJQLqfPhVjm5vhAbZX5AqZ3PIIPsL0vrhigKyr9O9GIlnPr6la1H5VKT0prIFPDYxAtWa4Zwc8B3OtrZMPF40v0AEQPYXqJRQJJD9BalpNocMsr8grR+uKCD7Wt1H6vFb5Tm1ramfA9lXQ7WTByuS9YoeWvd+JDlmW1t2AgQ63SkCIPs7hV/bOci+Fqk5nitJ+BcbL29tio7Lo1/3cugUvaBNIBBDoCIg757RzeWn+wPUFGk8FjomJz/59dsxEAXZHwPFZbQx29qyjOFCijkRAJ+YE+2+fYHs90UO7wEBIAAEfAQmJvuzAg6yPyvc6AwIAAEgMBUCIPtTIYt2gQAQODwEQPYPT+cYMRAAAkBg4QiA7O9zZO7+f0X0e0UdLvwDAkBgHgRA9ufBGb0AASAABICAGgGQfZB9tbHgQSAABBIInPyj/YHo79wj+h/+u/0ZD0YCBIAAEDhQBED2QfYP1PQxbCAABIAAEAACQAAI7D8CIPsg+/tv5RghEAACQAAIAAEgAAQOFAGQfZD9AzV9DBsIAAEgAASAABAAAvuPAMh+hOxXX678k79NV7/xq7Spnqs/T//qb/0Wvf/+X16+deCC7vJ1tDAJ97L2/cIwhjhAAAgAASAABOZEAGQ/QvbrD9j8Ml38/V+n+rM/zZcs/8av0c3fvTWnnvr1NSfZb77Ke/Tkit5/VW+N8G9tCGzp8dFtOqfT7sNuY+p1zLbWBi3kBQJAAAgAASCwIwRA9kH2xzG9hsjR/Yv9+iLqOOhEW3l5/BGdvDmmi5vXzaZyhk7ZLmSyn6NXcTwDbWQ5OO1KP+gXCAABIAAEgEA+AiD7IPv5VoM3RkVgOSSWIfs9RjrVeKZqt8cQ8QoQAAJAAAgAgdUgALIPsr8aY91XQZdDYkH299XGMC4gAASAABA4XARA9kcg+3Vuv9fQL3zfuthb/O3P/g3d+lc/pWvO1tpnmzsBwTP2vQGi6uLwz/4KnX7vT+n8Zz+vn+buEfxn/w/d+vINXTOpNTXBPKLTt+/p7A5R/d+hcMcvbuj1Z83v7x7TrbvntHlyStvn581YmvST5m/k5Ow35PGD327Xb/2Xl/TgoxO6tB/72MobD8Sqn6cXV7T5osgxd9r30mEauQLc/fZNionV19GTC3r47Qm9+qS7h1BdYH2+CVJueMIujN/oQ5DNuffAyEU0FD8J82M6LrRwaefsM3qtMXARrezkB7V9+Fi342HaqnDbntLp5pzOHfuzxqjASWW/xOljCelTh7sAYeRAAAgAASAwPQIg+wPJfk28f07H936HXv9K01hD7Ol7XdUe1WXf8r2rv0rv7cu/f/QH9NF3f0xHVlumT6JfpNO/99t09kuCoRQXdF/+y99xSL1DrttNQEmCHtO9aztnvCHgNim2SFdwEVcicgWB4zYM11a7+ZFta3Ngb2S4nPDit1tvz5xLw4asdnKZ9iziJ4w1h+z7G6oK+0ZGGxNx/EYGZ7MWRt/z8es2d50cFhFmdN5u4thNnWt/qfHYG8KOpFvYC7n9UrtGn65Nhjqtn6N2gzu9e0UPQAAIAAEgAAR2jwDI/iCyX5fiPCcvil/Gqsto/5+b3/kqPu4zkjGE7xqyb28A2LfLajy/8L/SR48uiYsWOyScaSAgV4Z8clH3gAQ2ZIs5VfDJdj5ZldpWpqH4sjIEvIJDjGprIvsJGTfdReY4iWXIaSXv1juVyYlQZ+DnYzAJ2fdl5/UYPT2xTyOMLXvVf0D2d7/gQAIgAASAABCYHwGQ/UFkX0q7MY2a9JtmU/CX7JKd8kbBFUki+wUJjEX1y0aq0pv/UZ0i0yOSLpF9N1WnkTaHFPolGK1UldQGpO5N3kioNg6erCIJHEL2pfQho1yFPqTUFNNEi1UufiJhZ0h28KxwAmAZbX5kP9yomPSeq+uz5hsX5jTCf1a2BbNZa9PYYidT8/te9AgEgAAQAAJAYBYEQPaHkP1YHn7ZrpW336beVLn1f60+EfiLIsXFTv8paSyX/1+2ZeXk121pyf4jcsmsQI7Y3PCy4zC1RUX2pWh52SRLNt28/Xi9/hyyL90bKDLfm/sFk5B9Ec/G4KwTj6x8/9Ze43n7UfwGkf1aADdv3yXgs5L96EkDZyeePaBU7CwLDToBAkAACACB3SEAsj+E7Ks/smW+vPt92vzsp81F1DDfns3/Z/rIJfsOub77uErrYfPoPeIzdWSfj+IbMuaTWVtRerLP5s3PGNlnN0aezUnkWHVKEfgOBX4jkP22Wya/flayHznl4TeVHWDm5ER3mrQ7J42egQAQAAJAAAgMQQBkfxDZb1Jx/sKtlhMopDkB2HhRfP+58BJv+cTQNJ5HZRy2/TJqXfXES4UQovCDyL4hYUx+P0vAbTBM1R+7EpADFnOhtvq7f6lYyOEXcvb9aDh38ZM/BeDkYS44CzM1dfE0m4xq8fN1w93J0OboFxV1TMrNvGTfbG7CVKDwInYw46oUty2++jxkDcG7QAAIAAEgsHAEQPYHkf3i5aZajp2yUzZZRd///AdFys6t4r/MpiC0BjuNJ7x4a90JGJDGU8ljlUuUKumEFXLKN3um8dh9WicGrRxOJaDbtP2yK/GZ3Aw4pTqNfF16RljpxqoIxOZtG7LOlyJ18AoIsZ1+5BLOcKy1/svxPb3jl/O8dk9b7M2LX2qzkmFLz6ov7tbjzsOvq8bTjs1OO4pV4ymf+2LTEvsgL97Se7BJESs26XL2RfJuZLflZn5L4y5tIhfuxSEeEAACQAAIAIEIAiD7Q8l++b4h/F5bHZHnTgA6Im9X1fFz9o++92v08E/+kM6ty73ZaTylXC3JFdJj/BzzgjhdfPKKTuya8rEor/A3ria7v9ngLqLGo9ldGs8FnTjfBwhz1cOc/eMXF0SPvIhucKG2IKBvN/S0qBvvp+L4Yyr7fE0P2Pr73PhTdfL5EpKecQU5/+7f06cBHC43dPa2KE/57cOAzPulN51a+sHpjXD/YiDZ97/HkPwegZeWlrZFkH2slkAACAABILB/CIDsR8j+aOquNgN/ylTP4ar0jNZrU42nTOPZt3+RCixjDlWRwjJmd2gLCAABIAAEgAAQAAJjIwCyPwPZFyPxzMe3RlVwVXoTZL83piD7vaHDi0AACAABIAAEgMAyEADZn4Hst5dsOZ1b5TlHNwmQ/WGQguwPww9vAwEgAASAABAAAjtHAGR/FrLfdWJy8pNfvx3DNPaW7IeXUseAK2xjrn6mkR6tAgEgAASAABAAAkAAZH9msj+rye0t2Z8VRXQGBIAAEAACQAAIAIHVIgCyD7K/WuOF4EAACAABIAAEgAAQAAJxBED2QfYxRw4Bgd/6B4cwymnG+C/+l2naRatAAAgAASAABGZAAGTfB/nkH80A+0xd/MZ/SfQP/puZOkM3i0YAZL+/ekD2+2OHN4EAEAACQGDnCIDs71wFEAAIzIAAyH5/kEH2+2OHN4EAEAACQGDnCIDs71wFEAAIzIAAyH5/kEH2+2OHN4EAEAACQGDnCIDs71wFEAAIzIAAyH5/kEH2+2OHN4EAEAACQGDnCIDs71wFEAAIzIAAyH5/kEH2+2OHN4EAEAACQGDnCIDs71wFEAAISAi8pAcfPaXN2/d0dmcgSgsl+9uf/nO6/ec/oJu/e2vgACd8XST7GfppvsZ8TUd0OoY+JxwumgYC/RAo58MJXRYvH7+4odef9WuFfevrB/TRI6KLm9f06YjNjtdUzgcYJ8RpvAGhpT1DAGQ/otDt57fo9nMSF+eXxx/RyZvjBTugIdZaO6/zD/s6viHYzPRutcBdjrNwLpLs/wd6/Pv/gs7p+3T1G79Km7Fh/aM/oI+++2Ma/LVqiewH+hHmTPNcO7z7F3RzuUzKMrYK1tce/F4vnbWb2ebtj0/p6vpstDmdWot7yTzmS8346ckVvf+q9GSCHU2M05hDQlv7hQDIPsi+gIBxVohE7mzKg+wPg74h+/Q3fm3YyUE22XfnzKqCAmPa3DDt7eht+L0+wE9Nxqduv8+YnXdEsu/6gsWPwx7UwfuCwVaxqAZA9kH2F2WQEMZCYExne4iR/bGMSU32+Q4rsr8dN9I51tCCdsa0ucmERMNLQ6AmsZvJTrkXT5IDss9raGqcRrUL+IJR4dx1Y6sh+/UkuW7wmifanHIwq4rY7drS0H8+AmM6W5D9fPzNGyD7/bHDmweBwNQkNrUW7xxkkP2dqwACxBFYBdl3iX43oNEvAXlYpRwMR/ZNFO90c07nb+wGczYo5ijZFejI5AP6eX/mMS9PUpSleu536UdVTr7Vh5dLzG5m/Pxj8zr3bhHNVOHAtunh1Yx58+SUts/Pqd72WfcJlHKJ06Fq/xU9fPuMtnfrS2btPwFXNye10Rl5EVzN2IqOOBs/vn9Ml2/8nH3eNiiVB26TfZPe4oDxy3Tx93+9ufzW5NL/hY/WL9Lp3/ttOvul+vfqcu3P/gqdfu9P6fxnP3cePr73O/T6V+yf3tODf/mHLq6/8MuFBv+4+M3K2f+zf0O3/tVPaeO/38jstsvL2eboN23R936L3n//L1fCvPzX/4xO/vz7dPqXfkrn/66WL5nTX5B9rX6cOZPSfervpXC97F4zdxrdtHYj2JVt+xp5qbt8KM0fcQ62ec7uE8bvSetA6xeb1/bK702Ap+sran1tC7+6KfxqzO+xehPWom5tVvortp3Ojtu1+MmGzp87Unp3mhj789eK8r8ZW/btSLRT7t3CV1Phq7uc/cLX2Hf6Ujil/l57L0ZX1lzXtMH6kx6+QNMXO5/73AGMpNY1ukjqzozbvzgeBNQGzgfZue38Lysg+9LkLbAb+RKQr43eZL8i+QwRTREye7F64y3YpVF+c1Jf7Cv+/623Z81FoPolsxDaG6Da2biyOAumJU/9bCLX2ExwjvwW/aT6bh2sjYNp08GGIc6WcwkmdoZc4owT2jd42X3yaRkRmbVjE4hViCtjG6mLvIbsNwT42sljL0nz/0H0d2oiXxHiggg7xNq89wsdMa/JfknyrU0A81y1TAVtWkTdapMyyH7dprsBoXJT8H8f1Tn6EtmvSL69uUn44Wd/vdgIFhtMtX7cBY21lzHtXmtfxTA7OxYWUOk0SSnvkNNOzgdVPqPxey+Pb9F3X9mVqfhLkPvk9ybB0/EV1voarAf6qjpSZF/UKScDs65c/LCu6tOtWwy5td8r7fTze/TevgAfEMJmzMr12PUOBi9rjgtrB6c7HqemTXZdtX0Jr6taPmUbrKyZvkDZV4o/ZbFfgdSr50cm2a+2kwPmQ9bYZnp4+WRfimKXAC2W7Pu7VyHqyyq5pyNijhH5iSC0zyzy/vvy5A0dDd93iIPYZiXPtquEJBD6bqPDVU3iHSALu3gMG+KlJfvascWfsyP7km00uG4iVV4asl8T9AIrK0Lv4tFE4JlLrYbcm02A1FZNwm0yLbXJVONRk31ZznY8EbIfnjzIHnf7n/6ffFUuxZyplmEmZ19rGyay72w0GlFz27CjjlUTHLEXyL62L/XiG8Ddz+9xcu2T3xsfT99XCLgr01KMGqMkNiDVngyKdEXJ/nT4+GPsZ2vinCn/oFx/WZwSG+xNG41mNhpGAdo2JL1m+ALWb1gYGHlHJfvsBiNDj7lk37fZzPkwE3/P6mb5ZJ87xjRDXA3Z5xf8PNKZ0KvS2bQRAN+YFcRFdqxhhE161ic+XRSOH18b1Y5Mthy5RBTF9sMNipbsa8cmyu/rJLbxTW1+G7IfEnEPEYYgt094pSwlsm/Se9q0ILHNAWQ/JqcRWCT7GVH9kqz/f8XmhSuxq5gzEtnX2gZHIszwBrfBLYACaVD3ZaU4ZKVZ9lxM5yD7Of5ldL83EE9zyy3we+3aKREmk85gSknG1x+WxCr9FSVKXJc9S8RRd1dACNj4J/AK6iQSWOX6y8krpacZcbrTOJncqtuQ5lmGL8jtq7TBZJpNH+wVm8S22aFkv02h0s0HxXBmf2QFZJ/PZy6RylpMekCb2plyjl3r7EVxVAYs5EF6k2rcCFf8dMLvS4eDPI4an/DINohOmrxAP1e+AVgX+SkeHp3s68emJvtszrRlSbFj6YrsK+ras7nxTR8eed4p2Y/JuXiyr7eNpF1+kDyJYu6oF/gMeStx3NRL1UKv8XsiedSUOu17orljvzcQT3GdaX3FhGRf6a80PjqH7IsbUyHAFaw1Ea4wBdlXb6TNvGL8vLqNEci+uq8KR8939EqdahTiya6xG5D9zphXQfYrk9lZNZ5rYVMRyxcNL6Hw0WDGqygiXLWR85fwxAtCbVd9Fz3vwpEjuhD9ZqKhfGRfcWlnSGRf2Ag4Qxid7MfwcvWuJvsK2xDXqREj+6k0HkT20zn76oWql917VjDaAq+Yp5xf+KAoTpC0bT4lbxGRfcu/6IIcet/gajLjGwBJPE3LE5J9pQypoFq3/oepmn6k3PAENxCYSPeIpIj6/nQKsq8Zfy1HKrIvfwDUJ71B0Ey98ZdPWSJ7pFr65g5h/yCtzTPu0ePya83azQMi+7Qasp8ypEn+bpwAZ1DC37TOXpY3lWcuRJqUx4hD0nh4R1qMhMFCi4PYpg9QZOHIkUvEXXL42rEx72vHJj0XOseUbURmgZOz/3P38q3zWpMLb1+abf7uX4hVR/ZJaJO7zCuk54QXfGU52+GMlMZT5+yHm35u8RJP+7w6+1rbiKXxDG4je4GXAh8Ru5MW2eCVhG0L838Osp/jX0b3e4If7PK4Jey1vmJCsi9c5AwkVlRU0Ub2s06zLUF06UDFC4KsxkaCQg5ewIvtRzH+FNmX5AqwHmHjr+5LmOPb9ivD+ayttYOqKpN1py/VlDBucY0NOF9eWltKnF38HWQ/gXp7ZMVW4ggjVlpnH+u27VM4ag0M1DreTjmbIWS/O563x22O7DVH6dzdBf79muRs6dnN67ocZDRKxLUhtCsBb6cI+PmsdjpR+b45njb6Yd8tH8wbW0Glmo/SuEefdiSkPeFiSp0+vRPJJ/Sr8VgVdHzS3lbZsS7pyr+Fl32DyH6JRFONpy1zaZf/dDYWpkpPV2XHvFsial+sbX9v5fQu7Y5E9slU41HoR0v2c20jTF/Lty9VNE8McGhsubbb7Zd1BZVKQu4UUpiDcb9HVdnB4rp6++Gm7rRX43v6n2juzu8Nw1PnK6Yk+9aJfNRfdWlfra/z0rq0ZD8k3VZKmeOvrbVFuympLbqxw87m7LSW1PrLbyo6fx+eSDylzVtTgSp2QqFsI4fsi75A11eJi70mhZtmPjsiTsksfWbd2QxPxWy9dbiPMx92QeZTfYLspxAq/s5fSOGPtMcg+90iaQtn9xfm0B6/uCB6VNaD1sgJAAAgAElEQVRL7ghfVpRDednQz8etJRTSlhRpPA0laByopwymRCdPemwnLGGWUHTrBC/o4bcnzvcHuGNHP2+xfObkG+5LqW7+citFNH+0eKpyZPVRJXm1gXl7TKRK2HX2TUTdgsSvNd+V1ewe4p/Rkf32voBVu78k7md/VlQH+pO/TVe/8au0MV358pWbgb9TkD2m/r69Eahfty7fjkX2y49q+fnHgn70ZF+y2eL3wXavbEOIuju27SyoaVvm8nlzju3D9/kSh63feUF0YlftKumYXd+8Nd8hZF/vX/L8//R4pn3FOOQmFhlPyyDga80DLdnn1s6jJ41Pb6uVcbhnpKjZwZ12/Tuj74qN7qtP4uuvjJNwL4abf2LqiqKNHLLfzqVmEjmypPvi9O7e39GePrlrt/ERqrtA9qu+3srx/LhYV4qyykHFI0T2E4QJfwYCa0VAmV+61uHRIr+guxI0pS/orkR8iAkEgAAQWBwC6hQ/V3L9HYfFjXinAiGyv1P40fliEADZX4wqFicIyP7iVAKBgAAQWDcCVYSeIt+GYYfX7zRg3UiNIz3I/jg4opW1IwCyv3YNTic/yP502KJlIAAEDg+BKi2S2vs3agDUl5nVLR7MgyD7B6NqDDSOQBkxsC9D7RleSOPpr1CQ/f7Y4U0gAASAwEgI9DsNGKnzlTcDsr9yBUJ8IKBCAGRfBRP7EMh+f+zwJhAAAkAACOwcAZD9nasAAgCBGRAA2e8PMsh+f+zwJhAAAkAACOwcAZD9nasAAgCBGRAA2e8PMsh+f+zwJhAAAkAACOwcAZD9nasAAgCBGRD4+f87Qyd72sUv/sd7OjAMCwgAASAABA4BAZD9Q9AyxggEgAAQAAJAAAgAASBwkAiA7B+k2jFoIAAEgAAQAAJAAAgAgUNAAGT/ELSMMQIBIAAEgAAQAAJAAAgcJAIg+/ui9uZjE8cvbuj1Z/syKGYc5Ti/2NDV9Rlt9niYcw2t+vT4u2d0c/npXF2y/SxFjp2CgM6BABAAAkAACEyAAMj+BKCO2+SWHh/dpvMPx5GvzTXPbHI/PT2upHO0Vn1U400Mizmk2Jc+Gruh00k2T7Wujuj07Xs6uxPDbFo59kVbwTiarz5f39//eW+PXW9Xe6t5DAwIAAEgkIUAyH4WXLt42JB9mTRVUdFvH05C2HYx4lifIPtjamRakl3riih92jStHGMitqi2DNn/eJrN2qLGagmjt6uljgByAQEgAATmRQBkf168J+htSy+/Jvr0s8NIagHZH9OElkKylyLHmNiiLSAABIAAEAACy0AAZH8ZeoAUSgRA9pVAqR5bCsleihwq0PAQEAACQAAIAIFVIQCyH1WXSaFxHzp6ckXvvyoi6eYY3W/DO1avCOr2lE4353RepDW0/6rnfpd+VOXkW797ObgswVX2XaX4PN/Q6ZMtnT+/diRNpVe06UFfbun2o0vn3RaD6teX9OCjE9oaXMyTjYzk/95cJvZQ9XK7OeyP6fj+JV36OfsCFqnxESOHO65iZE0qiiOrQr9+O8777Pjtewi83RF5qVzNuDdPTmn7/Jwc7QZ53LWOHC1+XOBZ/HJp5+ybNv2L3uwF8Pj8qG2PPL0q5SgBY3Eqfk/mqNd90Isr2nzhza1ixBc3r6m7jqzEurXxU9oUWNc48ql1Yk65l2Nf4+POyapVb75w/qN+5ie1Tn08lLhx/afmDDsfTP+DfVKtG/LnnDffWLtS9m18tmrOqPyK8X2CXSh1ofFFq2IWEBYIAIFFIQCyH1EHu2iXzvubk7p6SfH/b709q4l/888soPai2S2QHdFwFlprseb6DMm+IUwucTFt2mSh68ciJspcX/Zd4u4QZJB99lJhGNnlxsLhaDYalxwBj17kbTCMEEdOl4Ys2BsYXi7BsMTxPyD6cX2Rlc1J5nRmkZFO5/wdj7BNi+Ta2GWQ/dT84EhZrhzXrF5T9wCsDYWtX0O8gvnmtcfOD6FNTs3CxVkfj5fHt+i7r+zLy/xlfNm+GBsW5naAu7QRj/hDcT78JtHrsjqW0h+yfsUmxZbOuT5Du9L7QztAE58zTZtJvxKxC60umo1ksGlbFFWAMEAACKwZAZB9UXtpMsi+yiyifOqJ0D4TQQ3eF8tshmSBj64aQhmvaiO9a6JQ3YZGT/bjbW6bKLCc1qHGQiKtrdJS+k3IUJzUmPKfORcGxfEr5AqIT+LkxNdPSCaYMarJfgo/IpGUBRssabPnnwqUIPEkzJ2Lkmx+P/IYQpLJE0refXCkXZeqpNsgmV5D+WX78nDLJvs6+QM8mH54GYX2Ne9n+ENus17J7LchtRnMD9ku1LoA2V8zh4LsQGAVCIDsS2rKXgybhmYg+zHC6EdbpWdNeo+b0uCCIfYTjFFP9tk0AKvbmqDKJMwn+1IqhGkylk4Tj8gz6SYOPN1GKeceQfLZmN01BMRPIwvSpHxCIrY5gOwr5kdgPxlyyDhpStEq7ScH60xCpt6Yef5HJvvcxjwcpx434WRnhuDH2GQ/xx+KZN+bM3q/orQ1B9fQhrNOB1dBLSAkEAACS0IAZF/ShuojVVK+r5t3O3ZkP0YY/YVvWWRfxqtWg0k10i+gus1DZMo5ObVMqpP0qnW8nyTwbRuK6GjM7nxyKpHVOci+Yn70J/txnNJ4K+0nB+tMst+eQDSnGOw8tNKwXDNz7wLI4/XHmY+bS2ojJ32KzV1xltN8EyScNGFqoX9q0z+yn+MPtWRf71e0p0guJqzMki9aEmOALEAACKwSAZD9AZF9Nmd5EZF9/25AmA6x28h+6qNYSrJW6C6dFqOcl0F+bTpNxbScJp+dDMlnFdHmNj1nl2RfQf76k/1YmpliwxQh5g7+OVhnk317DGf0XXkJ3/l4GZ+ONHlkX/qAGnOfwaOn/GVg6yGtP5w/sm/5G+Wc0fsVva/qoErYsJDrr/RkeAwIAAEgECAAsi8aRSo3WB+JGjuyb/JLwxSVUObhkf3roDqImM/s5WKb57gLw/GqH1KqBpMf66e2DJjk7gZIky5Sd5Yk8JZMIXa+wLLdBWRKSVzEPHeOVAhthvcSUvMjkrPvfwSKkUPEyTwbrcgj5VH7Mmdg3YPst3ngTbUkJ91KwHko2R+CW6Vj6y6Ka5mp+aD3h2OT/Rx/qI3sy20K85WxxyG60ARjBrg6vAoEgMCBIQCyH1F4e5TbOnI3ihMQIOtY3ia4o5N967i8I83dEbpNpMcg+yVE7XhMBDBRJcVOD+DKdF6yZSS39Kwpi9i+z5b148tUuhuIUldPafPWrnZiKbvSVdcfS4iFsVayvXtWV2TKJPtdNZAuVYNPvSpKMloEIsCj7FhN9rsKP4Eey3YcXYbVfOyUBrbKlDA/ZOLK2FMghyHsdkoL9xs3ge37FsZWYvNDgXUfsm/eqUT0T7PCDUk3Z/qm8VTW2JRYTeBW2vYXm+6r24pNVCtfay8uwf+J/8VkwR+OTvYz/KF+zvD2UuNr+5XYCaBSFwpfFG62D4ypYLhAAAgMQgBkPwFfmLsZr4d+/OKC6JFbc358sl8KzeXHhnW/h5P9IgXoxUN69ciu4x65LNjiWT5zQhdc/X2HBFkKYL8v0P29Iqp3H9NHj0hXK92PIDu65i7gMuMS6mSHpDeVmuRvNNy6+P4pjZtLXb8bnORkkH3OXsoxnL0tNi7fPuxIn7WJaCvAlzj+mOjB3XPaePX3Y/MjSuo+dHiIcrB2osG5I2AXdEIn1rctuAvbKqx7kX3rOw3cSUSQs1+M7QXRySNTlarGSJ+zbzBV2DZ3XyA6X+q2Q6xsnxP6JM4fjk/29f5QT/alNovfHZxS6X4KXSjsHGR/EM/By0Dg4BEA2T94E5AB0OetAkQgsCQEUgRsSbJCFiAABIAAEAAC0yIAsj8tvqtuHWR/1eo7YOFB9g9Y+Rg6EAACQAAIeAiA7MMkRARA9mEc60QAZH+deoPUQAAIAAEgMAUCIPtToLovbfqX+PZlXBjHniNQ545vvyw/0LbnQ8XwgAAQAAJAAAgkEADZh4kAASAABIAAEAACQAAIAIE9RQBkf08Vi2EBASAABIAAEAACQAAIAAGQfdgAEAACQAAIAAEgAASAABDYUwRA9vdUsRgWEAACQAAIAAEgAASAABAA2YcNAAEgAASAABAAAkAACACBPUUAZH9PFYthAQEgAASAABAAAkAACAABkH3YABAAAkAACAABIAAEgAAQ2FMEQPb3VLEYFhAAAkAACAABIAAEgAAQANmP2MDL44/o5E3zwMendHV9Rhvr+fbv9y/o5vJTWBMQAAJAAAgAASAABIAAEFgUAiD7ojrqr3Cef+geOH7hfpETZH9RtgxhgAAQAAJAAAgAASAABDwEQPYVZP/o4yO6/nBN5EXwh5L97ee36Pbzol06poub14SzAcxPIAAEgAAQAAJAAAgAgTERWA3Z74hxOfwjOn37ns7ujAmF31YX2T96ckqb5+d06fULsj8l/mgbCAABIAAEgAAQAAJAYCgCqyD7LtHvhuyn1QwFw33fJvtX9Joe1FF4K7ovk/2X9OCjk2JzYP+zo/dhilD9pLWJ+foBffTIbWGeTc64KKI1IAAEgAAQAAJAAAgAgd0hsAKyzxHnBjDm0ux4ULpk//1XP2kIfEfaWbLPknR/g5Ii+5Exz3KqMR6KaAkIAAEgAASAABAAAkBgdwgsn+y/e0y37p5Tmdke/JuV7G/InDAcPbmi919tKCT7Fkl3ZON/l3P2y83AY7p3befxd22Y/ndnNugZCAABIAAEgAAQAAJAYA0ILJ/s01Ii+2XRTSNLHd0nU5rTpPZYGxM/xYgj9vELulL0v0jmaTYbazAwyAgEgAAQAAJAAAgAASCwOwRWQPapjaj7MM2Zs19G8st/Jppf9n3yTVOH35D9NoUnvECcR/ZjaTwg+7ubLugZCAABIAAEgAAQAALrQmAVZL+EdLfVeOq0neqfid4XaTqnm3M6Lz+6FZD9Iujv1eTPIfvds/amAWk865pakBYIAAEgAASAABAAArtHYDVkf36o/Au63bdz6+j+ER19fF3U37fIvp1yZOfs2/cOrGo+PKm3NzZWBR/r4i/SeOa3BvQIBIAAEAACQAAIAIE1IgCyL2pNJvttdN+8yxJ4rmEvvYep3FOdCPwgcim5aNYm+3Za0evP1miCkBkIAAEgAASAABAAAkBgKgRA9vuQ/eKdthKPR76r5rjym0LlIDE9yW+j2FBc0ElxogCyP9VkQLtAAAgAASAABIAAENg3BED2902jGA8QAAJAAAgAASAABIAAEGgQANmHKQABIAAEgAAQAAJAAAgAgT1FAGR/TxWLYQEBIAAEgAAQAAJAAAgAAZB92AAQAAJAAAgAASAABIAAENhTBED291SxGBYQAAJAAAgAASAABIAAEADZhw0AASAABIAAEAACQAAIAIE9RQBkf08Vi2EBASAABIAAEAACQAAIAAGQfdgAEAACQAAIAAEgAASAABDYUwRA9vdUsRgWEAACQAAIAAEgAASAABAA2YcNAAEgAASAABAAAkAACACBPUUAZH9PFYthAQEgAASAABAAAkAACAABkH3YwAEj8JIefPSUNm/f09mdA4ahGPr281t0+90zurn89LCBwOiBABCYGYE5/PCWHh/dpu2XN/T6s5mHd/DdzaHfgwc5CQDIfhKiA3vg3WO6dfecrpthHz25ovdfbfYThK8f0EePLun4xX4uAC+PP6KTN0d0mtzM1AvhOZ3S1fUZ7am299OGMSogsHYE5vDDzbpGi1nPGp/74Zgubl7TXodY5tCvPweaPveav2TOe5D9TMD2+fEquvvc0PxupHs7YXbhhGY0oJrsk2IzA7I/o1oOt6sVzbd67hwAEcuyxon8xBx2sViyrwnGZClpeQ9Ppt+IPTZ90v0LnFY3FgGyv7ypsSOJyqO2E7pkJsf23ZY2d/Yw3juZE9qRCnt3O9Ei3lsevLiXCKxovoHscxY4kZ+Ywy4WR/b3cobzg5pMvxPZ456qBmR/TxWbPaxDdIaTOaFs9Hf8ApzmjhVwGN2vaL6B7IPsH8aknGGUk817rFs52gPZz0Fr7mfNUVTb75RHfk1kn9JH1yY9xIHj40S+d7WZeEUP3z6j7d3iBMF+2Xu3an/rtydM7ACjsuEQJy5F6fj+MV2+8XL2vTsLRkxNXj+Li31Swspa9OCdppjxn27O6bxIw+n++eMyOrMesbCsx0xezj73znGh9cvifx7mGmwbvDZPTmn73Nz1aGxIwJIcfdfybIv3N8X7tV3E7Nzkutq4FP29IDp5RF3+q5HLv4/BLjxcm6Fe/OmvtlMWo6a1xDFzpcNvH9LVl1u6XdwvcazByT9m9Fo97M9nJX5k9OLd2RGCAnGfIOBr20Hfead6TxgzlysttNemMg62dyL9/E7IneFTSTUXC3ORxlfNL9f+Kutq5herf+vvxm7Vfrh4QdtmsCwzfuuo8PVU+PogZ1/j47h1f4AvN7YUbiiFeRL4RI2/4vxqMxDVWt3d22uHn3qveFCvX80YhPZKm6P6vp3/r12nGT+ln3dFq0r9cqax1N9A9heqGZ5I1BOYJrpQak9UKU/fPOOQX82pgLXY2G2b9uzfcknUtUOYmE2B6dt2VtZk7sbSECZu85HI3xVx+U2i1+WlV04Ga0Gz8ewWOYuoMTmIqegjR/bDPH7L6XLkS4ttSdH9y2+FzLfenjkXvEOcLJKqyK8U7aXaFFl4ZZB99iKzIhqVbacORgb3+Aa+m5P2c8y75Xg/v0fv7WpKzCU1NX4ZZF/tE0RM+8473Xv8pjfu+MW5JfixqjWVvdskNj6/k3KrfSofyOFswd4UhGuAFEktf39M967ti6aMbtR+uCN5rgyagBTzjKQz83vKx/mmMtSXN+0FNsbMD84Odf6K96uqe1xKOw5mUIZ+VWNI8opIZF8i+/46weX2Z+h3ofSRFQtkf4naKg3wmxPhYklp4A+IfjxRuUhvR+s6W3ly8cTHAlecuOFdAS2JEhfDagzbNqIdf86K7EtkRCKO7fDSx4nywh0uijzRCPvIJ/vSvYywbS22LTlQRH0quAI70CzgBuiE/dkbMjXZT2CykS94ae00HHMzHsWGQm27rB/zx5aBn5rsZ/gEabx9553yvSRpZrBLkv3e9m7IvnDiYp2uJeXW+lTRzsymMdwkX7PjS/s5G0ofQ70tR/phNrCO+hI2YUf21T7Os498X84XSfDxYW3OW8sK6xHu1jWYtf5KeC5JoAVCpHhPr1/lGJJ99iH7Q+YdH1xYIoXkZALZX6Cmykl/8UO5HGQ5qR4UB1mTlsS0SX8b+ZBSBQyIkRQgceIKJFaRxiMd87bSOEfMjGzewiBVIzLtyVWJ5MvN5l2ZmIcLrvRsQC7Z04nOoAPnm6sDJ4XInSix49LolJLIviKqLy90DIHSkn0pvcEMIkLqBpP95CbSRDj9VCxu08Sh7tulbKehzWnTeDJ8gkDE+s479XuxaLxgrCmyry7hKEYYQ38U2FNKbuV8Jjadrx54EGGNEqxhZF/ENLCLiD9lo/ERn2f+FI308kYgpW6O4cs77Ds7qO1545TilHx4WDOvGUPrryQMhXmd4kFJ4i1tYouGff2qfa5w6tzKOgbZ79LqTNnpHP2mYFvS30H2l6SNSpZ05H4Wst/KUtRf/9CkEJBbgz+ALhbtUi5MZc0fHYmK5TeWknVpD9pFRrt5CMaddITxRVIV4RFxcclWmCJlEUW1DvTYilFrx37CSdbJmd4odW9nkFUt2ZdyM02nkU2Izk4jxHxksi/ar79ZZ8bUm+yrF25m0W8w7jvv8t7zbDqxuexH9uV5E6QpMmmBUXv60IBly62czz+JlBHVBwTM2iR8j0OcRx2Z1frhuE+J+wsxuhxgleHjHPc1ji/nyH6XQlVj9gNTCltz7yvwV0PIvs6Ofa+u1m+mz3U39fYmeQqyn6ffxdHHiEAg+wvU1iIi+w0ubj5uDjHzgFUuTHqyH4kkeF1rnVDy2Fy0lTQuyWiBdXyvjuxzi5DZmBVfBNYv5PkpQm3XkY1OEDUsX1poZF8dqbUwXxLZZ/PmgyP/jM2SOo0nbfstZNHIPnN6kfDNfeer2STELt33Ifs6e5f9Fm9P1lbX/26G0qemI/thGg8/HwQiJETbtUGMIPIrpqpENs7OeqU7CZN9ctzwxvDlHNmv7Lm4jG8XZghOk5OBJSN7f7KvtePeZF89Bq+HIL9+CrIf4xV5J1tLo5Yg+0vTSCnPLnP2WaJsouRMjqcWP7Mg+NF/ZqFgnSnzPk9wQoGk54JFP5UPKo41jYsoq3b8Rd8pMtBW0mjSl0IyJOQcDsBWjsLFiUFHJjLIYnXqVZ40+SkQTN6/sKCERK9/HqbWTkWM1JH96+Dys29PPAERcvY1+AmEy/TbkZC07afIviF72R/v6z1f06kM+WRfa+/9yb5JY9uai/BanyrixNh+nzQeYRPnY6j2w+I87y7uihs1Yayh3SraEvz9GL48JPt+zr202Gj9VV+yr7djX0K9frVjCDFw18BpyH6OfrX0ZwnPgewvQQuMDKVRP73jlb1rnOD2Szmfv+9wOGfYHpNzx4geaa/ef/dM/lqdfdzv5xX6pRb9HTz7buUu68tK/vvV81t6Zkrrte8bkugeU3YLR/e7u5iU/TylzVv5UnR71NiOzXdEnKy8/LrIft2+bQt+RIaLfBqdtsTKPlJlSmJqseUigQGxtvTYL43HKsVmbNJJI2GOeK2TjtaeC8ux9dvqjimBGs5Ba4Zp7VQiUBlkv+w10FlQZtXeFFjpXda4grGK+HVVYwxW9nG6Q8wNDimfIESA69TFchPnX2RMzTvde74v1QQJUgt+f3vXk/2k3GqfyuEkYJeIusaivval3m6uMZd/26pZkh9uAl5laUWuglr0cnToU+15z1f38Spi+etHsKgO9+Uh2efLTFZde35J56/6kv1w3scrNFngqNdZxo83zTg2X/qVLzZkculbOSw8WHss22LsWLeuSrxC4Bp9CdcO3gPZ3wHo2i5tJ2Xe0dR717bvPifk6XG5rULOXVS2dvJd0MNvT6qFPTYmf+xl2yffcPX33Zz1tlFfbl/masG4R4+DUqYCDorqG25uYUXP0jXume8aaJ1Syj74NIdwfCW2Z2+beu5lmdAWRAW2mkigo+sLokdlXX2zkc2J7NeC+eMuF/Bn727TiZ8H7RDZ4sVShz8menD3nDZe+dpQd5z+wpmlstPBZL9IS3jxkF49smtfCxc8rUvVR0+aueZVFFLj126m25la5BKf0EX1XQQvEKH0CU7fzpzqO+/S73G6TZ8iuLbv19mPprlE7V1P9pNyZ/lUDiem7GsqxcKbU63PZ/zrxSev6MS7cBrULxf9cGFznE1pLvL7877ysWf0XbGhfPWJH0BT+Dh2QeXek+YkX7hCc/LRzhduI/3cv6Zr67M/2bc3390a7fttgWWo11lpc2ONIdBj48PtNUqyx0Fk3yb89jjT3yDqx73meQtkfx6c0UtqEQFCQGAAAmLaxYA2l/Bq37z0XNn3Fb9cHFb1PHzqqtQVF1ZOLat9gFulZ48GjqHMhADI/kxAH3w3WJgO3gSmBGBfySrI/pRWs/K24VNXrkBLfFGX674Uuj8KWv9IQPbXr8N1jAAL0zr0tFIpQfaHKW5f8RuGysLfhk9duILyxOPSMusW4l/ZzusFTx8qAiD7h6r52cedumw3u0DocJ8Q8C9z7cvY5hrXXP3si14WMQ741EWoYWwhhAvvY3eD9g4LAZD9w9I3RgsEgAAQAAJAAAgAASBwQAiA7B+QsjFUIAAEgAAQAAJAAAgAgcNCAGT/sPSN0QIBIAAEgAAQAAJAAAgcEAIg+wekbAwVCAABIAAEgAAQAAJA4LAQANk/LH1jtEAACAABIAAEgAAQAAIHhADI/gEpG0MFAkAACAABIAAEgAAQOCwEQPYPS98YLRAAAkAACAABIAAEgMABIQCyf0DK3r+h1p8Ypxc39Pqz/RsdRgQEFo/ABPX5q68Gf/uQrq7PaDMGAFXdcqKLm9f06Rjtrb2NleJR2cW7Z3RzuadanGAurd1U55B/dH8zh9A9+gDZ7wEaXlkIAnN+QbL50MnRkyt6/9UoFGQhIM4gRqOn6/sX+7tQzwDjEruY4su7Y7dZLebPiU7fvqezO0tEcV6Z1Hgsat5u6fHRbTqn0/E2gfPCnuxtbLtPdogHKgQOBXeQfRj8ehHYAdknENZ8ezGk4eP9XajzQdmPN6ZYKMduU01u90MlyVGo8VjUvAXZTyo29UATsDrGSbiD1Nj+JqWGXf0dZH9XyKPf4QjMSfaHS4sWgMDeITDFQjl2m2pyu3fa4Qe0TjxA9gebJ8g+C+HY/mawniZqAGR/ImDR7AwIgOzPADK6AAIyAlMslGO3uU5yO53VrRMPkP3BFgGyD7I/2IjQwF4gUC2ydEFXd54WOa7XzpiCoz9zxOuP3EvVqBeWDZ0+2dK5aVOTCtM4Jrf5IzfvNofsN89unpzS9vk52aOrxkblJb5LqztFX4yMdk5/hef2lE4353T+xmq6wuh36UdlDuoH63cfFyXGUeNj2+jGVuvH1XXZnns3ob4IvS2w2xTYOSiVdxge/Yhu3WUwbS9N1+9feuOrSV0ovW9rIo7k6ahoim0z0ya1csVwH6MNv/32ItmXW7rt2KqvrwaHwvbcS648YdJgRtS8a9srHdPx/Uu6fHPsXX7lni1Go5n3rQ6PXZ9RgeHru7GrQBGuPC25fbIpfJBtvSFuJMw5xyZZX+JjwFsHi7XBRTnfWZ9adVfLQP68Yu2/uMOQxGPIvOXtRXdJmtHrx4WtFZ7n0s/Z16wTUQfJ22rgx5N+SvaRFKQvaueSadO7JyateywWpU2c0Xf+WlNiYsvFvhvOWc4X97rHVo3hFT18+4y2d4u1wdYRk+6p8qc952PDFgcAACAASURBVCUXXFD1tzLWh8j+yhQ2pbidgdsLl3G8qd8KOtAQR3vyd2QyJGbiWNiLYQxR6UH2S1rbyWcvKpZ8XP9BX/xCaI+Jw9Mh1xb5qZ+1MeJw5zGWbaJpw3OeZV8XP6wrGL08vkXffWVfXDQLEadv2/m7C1ZHhrg+Q6w4WymkqTcFDWkxNTdYuzSLk4WhaZMjZmRdrI7ZZI5cEu5jtMG1zctt9ODOL7Mop8h+LmY8CXKJbmjLxWgyoopafVfE/PN79N6uzsJcpOdxi/g1Zr6c2Bsai5TnEB0R698kel1WHipkv/X2zCkAwL3Djscma5b86vfZudd/3g45PTD67+ax5Wts3WjXiciiKdrqNydVMQH9XLbWksCvF/svK0+eazO29m79ohDcuidi8YDox41/l+agcDcj1IMdTNFtbpNrvLMexzkEF4By1oqe89In+3qdT8nGxm8bZH98TFfbonR8HjhuceEOiSI/ceIQiQtF1e+2i+73IPs26Sul4PvSbCy0ZN93isJ7PqYZGItoZhAsu40QE6XMTSOhHfnvR47kGbLG26XfhtymT3xlm8yTi8d9jDaElqWqMoyedWRfi1niOSeyL82Lpo1NuiKTTt+S1UsElanGo51zJmJoCFuvi6s901AYH6f2WSVE6ve5DVn/eduf7Cfsx4rsq9cJ0UGmfHjOXBbaCvDPn0sasq/CW1gP5HfDwA23AehFeMS1u7/NtadymYUgXH+To/NeI9/ZSyD7O4N+eR1LZN+PysUcix8pUTkhDwrpCM081kZJdkr201EOHk8dcc7BOB5hzi85OD3ZjyyyTIRKskuX0EopHa3VtKkmycWNSzdhI2cc8nljy/ECotzMPNCRfS1m8pgC3UipKGagioVYp+8RyL6HWxcx59tuI4s5fqdtKkUshfGoybpAUtTvcxsDX+YM2+4ZZeU2JzUy4fjU64RkKkk9ZozXnIwEvqNuoyPsGXOpaVND9sW12x67QPbld8PgnaofjVMTsff1nKGDpD55wdwxZfSnGeeCngHZX5Aydi2KluzHJrxPSPLJvpDv24ITptv40XoWR8ERqKNkkiNxch2ZVIogn1lH9nMwFmlPlRqUOG4VyRmTUuQvZOrFwxtz1CmH+KjIXwbJzCHNHbZKspY5tpw5nyO3iuyrMcsgKFLurxmoIm9fpe+mPZHwBeldzKbX05WaPPYhFap3ZN8Xpkb645mB7Gfbtjcehe71ZD9jnZAmWerkM2u80hyZg+wrT43Y8cbf9efi7GQ/RweqORYagzOmnP5ynPcCngXZX4ASliKCluyno84dwcwn+xkfuciZ3FORfaM8Q5ysyOW0kf10zmQa+/CYtoqhBekiug2KgSIcd36E0N7A6cifkoyz42slZy8SV39V21o6MqTanDJOYXSyL0Yj/c4zyL4aJ9nr6fTd5fe6F7pDWbW4pedLI3OvMabt0z8VlexOHaAQ7FaLR3uHpiXp/W3bbKSSNd7VEd+MdUIytaQec8a7S7KvxEIdnDGASacp6bUnyWnUes7QQVKfvFS5kf2+/juJycQPgOxPDPCampcccrAIiV+TDcmjegG1gDLH6f0XBgb1qcl+SyI3bbrIELJvUqfCC4A8QWftLPXVXzUmY5N97hJwPQJO9zryJ7fpYyPbZJ5c/Nweow2hZeYCfBZmwYZUi5n0nEkDYi5zK9J1JN+o07dEcCSyf+1ckmRxS80XI3AvUpHCemhkPvd9BR7BZnCIbfsRblH79Ybbtx8mmKJeJ8RFOOVLc8arJfs95pJ3IsLdOVJhEc3ZD+2hzYEPLhyPR/avJT23fWbooNe89P1IRn9rIneFrCD7K1PYlOLax9iGaLd5rI7D6Y5QuYoJYeWB3LxxQyK48pdbelaUl6sqteRMbjWxrWhA+Gl2//3qvy1ZzMI4UmTfLnWYwli2CYOjVQ3CcfghWevylidM4ykFNukeXPm3VDWUZsBBqgrXptlAvHtWVdfoSJ5gkxlyibjntKElmNZGqOy33QQKY27x5co6KjCv7CDArKhlxZaJ5EpdWs9a+np6xysjyICoJfsh6ens3S7zaefix3Hj/FopYNnuU9q8baqa5Pgda3ytHC3+rp/5SVMy07+T5FYQyygqIPhIPR4MgVXadqlDW9cqMmrP66LUZaCr8u+Ob1CuE5FFs13zpNML5XjDUxDTabjJCdZUJ52Oq2zV+W9Wd5aer63ytEFQw/Qj3Cu4dErb8thG03jE9hkF2GNudSroU6uDnvMyGJO2vynJ2ARtg+xPAOpam2yN/gXRiV3Hm43ScTmTYXnNPpH9Gj9r4bYBtR1VzuQem+yz8nGOumc1npqW1puODzYAGSVMJRwZDLtK+4W8lf6tqkdSuof6WDh+MuDMFyavV0v+qnaEnPGsDSjXhibf2B6Iso0cEtTOpRcP6dUj+7sGfKTNz0EvMTj5pv72g1OSU4FZNSO9+u0VGbv7uKiQRV6d/e6ExvWFOtvN0Xco0wU9/PaEzq2qPzVuxYnb2w09db4HweEm5IIzJR/7HOfbZK3GxsYk7Pv4xQXRI/uC51hkX4NH/3kbjpP5poG4UHI43NDZ20KP3z70vh2hWCcSC3J4V8OzC9Vc1kb2m9VNPZf88ZWyFV/DcS79NgN0Ng2NdXllO52xshsnG6xwfkTJfkbgogvUNfPVWuPYE32NDnL4gDVMdkya/lZG9ED2V6awKcUd7fLNlEKibSCwRwgEpxORsfXfOO8RYBgKEAACi0Sg3VSbk/eYlD2J+SIHvhKhQPZXoqg5xATZnwNl9AEE7Ehc+RVJ+6NmMjog+7AcIAAElolAfQJB1sfDonKC7M+uRpD92SFfbocg+8vVDSTbNwTqVIVXn6Rz2M3IQfb3zQYwHiCwHwhU3IHSH8xrRwuyP7viQfZnh3y5HfqX8pYrKSQDAgeIQJlH+sXGy1k+QBwwZCAABFaOgHfpfeWjWYP4IPtr0BJkBAJAAAgAASAABIAAEAACPRAA2e8BGl4BAkAACAABIAAEgAAQAAJrQABkfw1agoxAAAgAASAABIAAEAACQKAHAiD7PUDDK0AACAABIAAEgAAQAAJAYA0IgOyvQUuQEQgAASAABIAAEAACQAAI9EAAZL8HaHgFCAABIAAEgAAQAAJAAAisAQGQ/TVoCTICASAABIAAEAACQAAIAIEeCIDs9wANrywJgcwv9y1JdMiyZwgwH8oqa+M/IrrQfEJ+djQOpdZ1rZftlzf0+rPZQUaHQGBeBPA9jnnxXklvIPsrURTEFBCY40t8TR/X9zO+EAiFHSAC9cbz0rKTRX/1ttqIXNKx9hP3a9Vo4CNq8n/+4XiUTVj95fEjOn37ns7urBWkHcgNvzoJ6LU9jmPbagEbX3L0RP9FcHXbeHAUBED2R4ERjewMgTnJ/sen+Hrp3IpeFSEF2Z/bPFT9iWQ/h6A3GwQKfUBNrqjfpmkO/6UCaQcPGbIPvzoq+FOSfbHtxk8TAmKj6nLMxkD2x0QTbc2PwCEvlvOjPX+PIPvTYb4qbAfAMIqPkMn+AMmIRpFtkAR4ec8Q2AnZ3zMM93E4IPv7qNVDGhMWy/3W9qoIKSL7izTGUXwEyP4idQuhAgRA9mEUHAIg+7ALC4GGrNiYFEesF5+8opNvH1opLPVzWz8/T1hUzTG3A7Xm6NYcDTovekfvqoXcyHtKm+fndGm1V+UYPvoR3bp7TtfW724ec0jiiHisrq7PaFO0U+dqb+j0yZbOnzstV3nC1Bz9t10GeJi8Yt9A06kHVd+lvr7c0u0iJ9v+5+RUmmN0vwuVLEVO6AuiE+fy6Zh2IYzfkU14RnGUrLJJxv7iOalasp+SO5JT7uXGsuMo9Onn4df2aNth8cz9Y7p84+fs97e7Sha6oKs7T8O+/HsBStur2tye0unmnM6LVJnyX1QHnM6KcVIxTrL8VUiIuHE3ec+sH+owDu9lyP6GLPvldWfnWmt1EfdF/BLHt91iq9LPFH618Ky+b2wG4Ns0ZxuNhYT3JzLWks2TU9oW60Q9Wzp9aOVi51rkXgz3fNLOK9l4mz2+f1nMaz9nP+Vz5Paq4gKCPfj2Eswxb+7m6ad4WuHLQeF0CIDs63A6iKfC3FPLQTgkS0/qjCNzHLWGoLOXt5jomqYtm5i3zsN1fp18zcLJjNe+eJmKnnQO3CLn9oJjtc9hxOYBK3Nc2b7bhcGV59bbM3r/Vbk9qf9xspjfbJLVLXz2ojKBXUQi++zFSMVJgM4muQ1eyg3oyL5KbuHCm2t3pQ0/pnvXxWLcisbYL2c3li3ac3OI3cVsothSWJdhDTl1CYneziQ9MO1aJCW0367/9EVqObIvkf1qm22RlRi2Nkkyo9PqIuWLOLREG/zmhG4uC2sq7CPtG6xNxkh+lbOBLrDi2gtrb1zueOZaUpJ8f0Oplku1HrkaeXl8i777yr7crbtAnjNfND4nPQfMRoy5/MuMO1s/XpBp0F2YlKs+wL+D7B+g0vkhS+SGW+S0pC5xqa3Y9ZtIuC+T6HgqZ77tIjcq5yqMTSCG4eIZvp9aYHn5BTyCMchEkyWqHnhx7BLVV6TLjOLFxD5kP8MuRPKesNeNVDlJ2/dUZF8rt27TKRM5BZENsB1md9KcCOxR1GlIcrIWfKldkYgoMOq2wXUFH2YeiGTfj0pyvkr0X3pdpHxRaCN9bLtoReunevvVSKoUs/nlxx22kbuWXEsnm4zuy01RWdEqFuHuQzHSxDt1YZzZXAdR8qaNxlem++xD9oUTBgtLuV/OB/ZBE++UCIDsww5qBMRFZwjZZ46XHbzl8mDSkal5vY1G7ojsGydfysOVLhxE9mNjUpQ4E52nBivtgl6MW9oUpdO7MuwiQeDcxBTLuMQ0MX3ffKQ65jAUkX0pPcI0G6R5hCdDqVKZvl5EMuhjO9DutP3ESIUfgcwhsjl2H7QrnAB02u4R2Q/IFRMkkTDP0YVwSiNaqsYPcC9rfUNvsh/ZhDDReck2qt+tQNLwtSRHLuk0PI9opIm3LFPMtlkpjM9JzoExyH7TRqAfjgvoTjjykD3cp0H2D1f37sinIPsZxMYVRspVNU9ZBEi1cI0f2a8lcYmjffQ7iOzHUlEU49WTHhnnbiwZi0qDR5Ls59iFhIWQR93akZTrmdN32ZjTT+q+hILs58jt6ZolN2J7fq4xs5j62A60Oy3ZjxF433ZnI/uV4XjzwbGhmcl+ti5kXxQscYpUNz4fvG4p6Rv6kv2ob9Ofrrpkf4S1JFOuypKcOzKJmveiT4r5mwy/nONzonNgCrIfOc1hA0ogbH0RANnvi9y+vTcF2TdkuMclG/UiryC/LSn35ei7KAW6NwtK55wHkX1FVC8W3dWSfTaPUxu9Yx2xNr0rI40gIzVDNyUz+rYbNAty9GK5guyr7NV0bC+E9+ix98Eucxrnf+xtysh+zO60ZD8d2VdsVBhla+2+2qYnPjwUpg/NTPZ7+4DQFwVQKWxwkG/o7VfTEfT4JesmBMNG9hUfmRJxyZPLwZu7Q+A8wKeqTBHZ5+6FxHwml0InzhsGu7yTl0hkn0uf0jl7PGUhALIPc2gQEPLjWJLDO7/wwlD/YzhNbnoluGLhmp7sd3JsmqoLg8i+2SQxxJJdhD0b5i+T+ZdvtfcHJB2aSGI6N3SQXaRy9jVVnRx8htrkJvLVVQXZj+iWc0WtHT3ZFFWdvPsWSlIlzaVwMZdzZDV2x5GDjliH6UhhVZ2w/xQp54iV5nJlul1/4zoz2R/iAxqfaHxRaFepXGitbxj7xFSem5wNa8nk8LUkTy4fbz+tyPm7sH6lyX4Pv5ztK8PgzRRkX9QPk7oFutYfAZD9/tjt3ZtmsW4XS/v4L3FT3j62dBZb04b3fvX8u2d15Qf2nyGTXKnNLT0ry4HtjOzXjnb75Q29/syKJr0ZKbJfNNniaZ1GcL/JBLHOZg90yZT+8+8/+NUogn6dY2e+QoZpc7BdRBy+hEdpx0/vRD7brrHJql/LzlQkXUP2ed0aUhzIbWPtL9bMRrzLT7b00rZhfnNTG+xo/RC7s3OjA/1zKTEf7PsunUxhdSBFVLay9tBn2DLFqvH4NiOTyzC1IiRmUiSYO/mSibdOF2lfxPmIFpdWL67MwcaNzecem+wXknJzU5ivWrLP2UWFiT/HFacpdulUUdYvNl3hiSRhDYMmnc+Mpw3m+GWNr9TMgRQx73PywuuHX/+lgMLekbEJBgSyPwGo620yzG88fnFFmy+4KhRujmhdj7ioss3V3xdyBlMXDdla9iW4NnHYUWTfJhFG3yFpIq/eszZiVrfo5n3Wv8XrvNvvFX2/eEivHtnfD0jXXj5+cUH0KPyGgj/eUo5n727TSVDPeXy7cPrmNo1e/fgCpbDOtj8pkzbpj6NsIEU6dWRf0i0vdzcnWd374zDfxSi+8VDVxzbjZp67uq5Tg8irAd7X7lryVX1/wfq+AxtR5HKpQ72lI/CeYoP851JnZ/RdsTl/9Um3AfTbVY3Za9vd0NhzPYfsx/O7NXKlfJG0HoXvxWv8h75hArJfCsvNTSYVVE/27Y2gh0bOWqKRi8u/T0XUOZut5pBVdU5QIueX3999XFQIouAEkrMl2+dobE28pzYgjacems7fguz3Z5cg+/2xO5A34xdoDgSEVQ0zfQQ8znCyidg43aKVhSIAe1ioYiAWEAACB48AyP7Bm0AKAJD9FEJL+zvI/tI0chjygOwfhp4xSiAABNaHAMj++nQ2s8Qg+zMDPrg7kP3BEKKBHgiA7PcADa8AASAABGZAAGR/BpDX3kX6Mu3aR7hn8pe5pfYlsamGN1c/U8mPdkdFAH5iVDjRGBAAAkBgNARA9keDEg0BASAABIAAEAACQAAIAIFlIQCyvyx9QBogAASAABAAAkAACAABIDAaAiD7o0GJhoAAEAACQAAIAAEgAASAwLIQANlflj4gDRAAAkAACAABIAAEgAAQGA0BkP3RoERDQAAIAAEgAASAABAAAkBgWQiA7C9LH5AGCAABIAAEgAAQAAJAAAiMhgDI/mhQoiEgAASAABAAAkAACAABILAsBED2l6UPSNMi8JIefHRC9OKGXn82HJb6Q1Mburh5TZ8Obw4tKBBA3XUFSFTa+VPavH1PZ3c0z+OZNSCwV7aP72msweQyZKw/lLn9cpy1NaPjlT86LieZGwyQ/bkRX2R/zVdyP8SFOx6JeKsgePeYbt09J3pyRe+/2kReMbIfy0S+aWszp/yqQe7zQ4f85WWFTRrVl0Tq0SXNOrf22eyyx5ahK3Xb+2X74ZeRp8BMDS4eHIqAem0d2tGevb9y3ED298we+w2n3rFeJl4+ShLvfr2zb6knlll4juiUjY42f99c0M0lYvojaijR1H4RnjzcUjZptQaynwft6E9n6Erd937Zvkz2JZ+rBir+4D7OjSWMSb22jqTHfWlm5biB7O+LIY45jiUY9VgyvHtZJEp8Sp8iRWJMC1G0tV+ERzHgfo8sYfHvJzneEhHYL9sPyf5Mqt/HubGEMY21ts5kBovpZuW4gewvxpIWJMgSjHoJMixIJesTZb8Iz2T4L2Hxn2xwh9rwftk+yP6IdryE+Y61tZ9CV44byH4/tc/zVuMYus4mPjY1HUWNWkr58XLmTZ78k1PaPj+nawuxKj+Z6lxlcWytDKe0Kd53Uow+PqWr6zMymfzsYtS8b/db9uXkRkdkpPsD0n4CvRH5KVC1zJ4ZeePKMbKqPbqgqztPi4vI7qjZMfv3F9hFSLjLEWDD2MTHx3RcaO2SXF2RRi85Ay+fZdt05wqLt28P1WXZE9oWNpuyOUromLPJ+pK4p5v7BUpv/Jx9He5VH9tTOt2c03ljS8bO+o+3p49h8bigh9+e0KtPuns30kX53nM411aY54O+s/xChu0zGBWewUk/rPD59iFdfbml245/DH0IUX87qWHwdc21V8zj+8U8fuP6d05fGp9m9H/6ZEvnop8SxmX7R40fGboGlRApdGb8z4ZZ67p1RDEmTV+59s7Ny8LnUOFzgvtwE/TP+rwXF0SP3OIbxpfZ63pr3/4aMoGcOXpO3yPMVdI8z4Psz4Nzdi+88c90GzxG9su/fX6P3tv5783kcwit5Yy73+2F0VpozLM2iWTfJzILik1gw4Wn6Se1KWD7GJrD2/Qd2SwYB8iR8L6OpFto7UXZ4G39Jl1WZsh+3aZHCMTn7I2UtbA5OlDqJWu2yG1e/LCuNmHwdjdcDDYN2a82lpb+QptL61gikNc2HtaiFdqzHvcCee9yeon/Y7p3bVee4nCy5uOQzW2LW2hn5dbGxl1P9qewFd6wRF05svN+IbQNwfY5H2fIukVmOnJk6z/Wd087MbZn6Z2bJ7xfMX6407fWp7HjM9j4wQ4xCq60jbHWIGduMKc2OeuINCalfWS5xox52QZMUmPNEYDTa8znFYGLJNmfAidtm4js52gfz6oQKCfENyfChdLS2Twg+vGEpfqyjZohP0IbtbMn7zKt7EBD8hv2FSzWCYfaVuWRxjnoqDVFBOUjfn6Dp7KYZhMUViQK8FaTfWkc/oXnxHN2VEarF92Q66eSuoqkVASbVGEsgZ2kdCyRId/uOfm1uPMb3xh04qY42CzkKCCiA2Z+qcn+FLYiDEsi+1Lks9uY6W2f93sGu23rD+PP2SdAuXbCbQhv03k7PxN+KRrZ1/s0aXzsyY5kA1rbGLgGaXVmiHLaXuS5ou4rZ2omcLLlnaJ/vS03vkxB9ueXs5ubop5zdLLDZxHZ3yH4Utel4zNRSe6Z0uAfFIkw8ZKUAwa2aLIfLiz+QsEdHdpotJFGaZwSIVZCKkXD6tdTlY8iJUQj/Yt5tb7D15J94Zi8FcFE4URbCfWk1osS5/Ix0fm3bUSIeRDRkZ416T1dOkpcxyHZz9WPn34W4F5aUnXyorcXkewPiupHdDCA7E9hKzF/6+Co9QsZti+lVRmZzAZCtGe/L+38jNiJG1yQ54mcsmNsT+/TpPGxm0CBrKptYyDZ1+pMJIGcrxXGpO5rDN/I4DJF/2qfZ2xUQfank1MGtt3cZ/OiDGXN8CjI/gwg53WRjtzvmuyLE45Jw/GjHcMj+2myr3YI2kU9T4H1005eIZOyJLXZM29f7Vi1ZJ/Ni7SENrqegPDkwJ0kvFEH7RMcPdmP6pghWGr9aHFPkX2xHSbNa4FkXz2Hc4xFeFYd2ffnjtr2hXztVp7OP6jJ/gh2MhrZz9h4jEH21bYxiOzrdTac7Gf0lWHvaluS7n4w9pnRvRyMkFJBk2R/Cpwy2gTZz1E/ntUgsOTIPpubaaLVCyH76Whvo4Upyb5RtFkIWxKfTgHR2Ij/jJpMasm+1rGpCY8mCp8/8rSu05H9bkOaSfZFHQ+P7Gvubog6D04sakHXF9ln0p7yTST5xvRkX38KoyZo2vkZ2RSORvY5/y+gPgbZT8/5uH/XBpySgQRv/gdzNjuyrz+lSxp18YDallKBA01nzDPqNcn0nyT7+nmUI/JgPed0tsNnEdnfIfhi1wvO2ecnxnQ5+9d+1JEhMoFM3IVhDuw5yH7rdDfNJUoTSRjXsZtol/8l1vr38GTBX5jC9/lLcCGMwnPBJqd4U6uXnDmZbFPGO9y49iT7gY6VFxjbRda+3KzFPbLwRVMFxo/sS3o1+IYXdH0Sz1yWTuo1x0jiz/Ym+4bk+qdxjO3zQZJQLg6z8inRVhUngRKZccm+NE8Y3QTkUO/TxiD7aj8yKLLPYS7YUc46kkhNGvVL2sIckufl9ahf8pZsnlurWBsdMI9yvIN2biJnPwdVPKtGoDT+p3e6HOH6xdqpbr+sq4xM9i8SNQodhVDRY6Cjdcop+lFxr2Rc6Ci6oznXeZayPqWN+dJujpPWgl21uaVnN6YSCkPezBG8t1BX2L571utLv/bRtpv/W2R/cxUWPnQbAO5dm2D4ZUh92zTvt6TOTjFwxqjUixbr6rnO/lpd+wsqhzerAyXZV+hYIpDFcupt+urB2nba5iR7G10ed2bTyCySnY4nIPutDnibYqt0BXO6QsGqKqS3lWBDm2U/zKYpwy/obd/YqVc9x7MlOx89mE+cvyjLV/a0E5fsd+S2bc9Jz0mU3lT6tCyyL5xQ2SVH+/h3bWS/8y1xnWWl8Yhj0tlHnmmHbdq+nq9OlhhrjgCt/aR9Xpv26qWHVneXuIpuftnYwCfnCKrEPuM0Laf3uZ5FZH8upHv0Y09M8/qoO39JpoRR+3IdPanraZ9vrNr0I5H9zYsr2nxRVI340AnLR6+FahPWe1ULTK1m1fGrWn/cZTWGkAk5t33125LLF0Qndn1uLvLnLOINJj8menD3nNpKRc14+ctw6frc5TjO3jY1w61vIoi1wRURSlkFDOb+iRCHt/S9AOH37ROz+U7rmI1U+TJUY75Hj4va/uR990CDe/T4menr4pNXdPLcnDBZG6WBOfuVXnybKon72w09LWyKv7fTXUEuSUf53Y3bjmxlo4ra5O0z/U/K+kf2eRll2xcusgblL4uTjxcP6dUj+/sk/PiG2IlP9iuL8L7/URHCu4+Lb6KQU95VZd/NhA03smF6Vj0O2zbrlx15hMCB4xcU/l1P9q054jsfRcpqW3/fm9vymNL2oV6GzIPcvLw5o++KoKH9/YsG7eo7I843bco/DPEPnM9rviHBr+PuOn/yTf0tEbck5wQ4SYUzNHrOVspuXgDZ3w3u6BUIjIpAlPiN2hMaAwJKBGaJhIWVkpTSLfIxdT76IqWHUEBAgYBUElTxKh7pjwDIfn/s8CYQWAwCIPuLUQUE8aKKmsvGfUGryHH5xVnn9Khva7t/D2R/9zqABBMjALI/McB88yD7O4EdnQKBcREA2R8XT7Q2AgJTR/ar9l/RQ3MHZwSRd90EyP6uNYD+J0cAZH9yiLkOQPZ3Ajs6BQLjIjDkcu+4kqA1IGAQmKmgwD4BXhKhLzZ7c1KxfJA33wAAIABJREFUT6rBWMZCwCuUMVazaCeKAMg+DAQIAAEgAASAABAAAkAACOwpAiD7e6pYDAsIAAEgAASAABAAAkAACIDswwaAABAAAkAACAABIAAEgMCeIgCyv6eKxbCAABAAAkAACAABIAAEgADIPmwACAABIAAEgAAQAAJAAAjsKQIg+3uqWAwLCAABIAAEgAAQAAJAAAiA7MMGgAAQAAJAAAgAASAABIDAniIAsr+nip19WAf3oQzUCp7dxtAhEAACQGDRCNTflnj1yRW9/2oTl7RaM4kubl7Tp4seE4TbBwRA9vdBizsfQ0l8T+jy/gXdXB6I29rHzU3zxdPrQ9LjzufOngvQzJOjJwrys+dQYHgrQqC33erXwp1/LRn+fkUGOVxUkP3hGB58Cy+PP6KT7elhffVxn8n+xwemy4OfwRMC0MwTwgZyQpCFphsyR9ho5WPf225XSPbh7/PtY4VvgOyvUGnLEvklvfz6U/r0s2VJNbk0+0j2JwcNHQABIDAbAiD7s0HddbQisr8DdNDl7hAA2d8d9uh5zQiA7K9Ze5AdCOw/AiD7O9AxyP4OQEeXCgRA9hUgHcojJh3ndHNO52/sUR/R6dv3dHbH/FY7tK1/PMwsLnVe4oZOn2zp/Pm11ehxdTGJyhQguy/mSLGSy5GnaMZ7ju2nTR2oL02df/A16Y+L13Tdti17Ifb9Y7p8c0nHL27odXuqIfSjSWEw+ZOOCJ18LAbFs27/Ri+ntHl+TpdWW1XO9KMf0a275+RowZGfX6iG9u3rqhLLHJML4y1/juuUSCcXp5Pa9qTbJVW/3z6kqy+3dPuRjSKRm3ve4BWYjdt+bBycbZXNpXPcx5iDvv0w9t/Y5ebJKW0Lmwpsh8pLho6lub5C9AnefLLscDKfEcyXcLx63Wvtz9ixP94LokcnRNa4+XTIxn7JS61LzB9+bth22ddXKeaTYm4T6+9Cv+5oKJJjXo8301+ytt1gpLTbcK4aH3pKp9tiHXXWHM4vkLe29tULt3aldMX5e13/Ileo1uXfpR/56623Blbv0wVd3Xkarq32mhTTkXIdYVd1xkZdn6vDYU3cEGR/TdqaWNZugbCcEpu7mEs0yoXOItb2RLNIuyE+NoHlfjMLhZ2L2pGmkMCbcTnE2CwcqXxF7jlLfrtNf8GxSa1Lyn1FNk7Xk6Vs7+KH5WaidDyP6d61TVC5dyzyKWx0Ojki71uO2eDKk1x78eL67ggRi72zAISkJqZTrVx9LsHx/Rrnb9lXaRuf36P39qV05mJf3DZv0Xdf2Rtp0098Q1Igm7nh9uZgrv07GxB7k+PhUW4mbb36pEkRbWbx6uEz0jYrkP1qY2/7EUb3pJyTuf4juPvEkH2W9MrPcTn7fX1Vcj5pZSv0eevtmVOxhvX1nopYuZu50BWIyNQNt7lm7PTlsWau8n6Q81ccln31wlL9KkjlbybsJ0Oyr+2f4wpO4MLyAVybLNcweiTL91mbwiAAorW1AJz06YsWh4kp2ajNg+yPCue6G6sN3CcZXGQpl2gI0Qs/WhU4WCGqVcDsR8F48lfqQ57YmsVFXNyCNB6pn2YMm0ilop4pQaG+BBmE9tPvy/ibyHzngIW+xQgZswhVcm7bSJesU71cSXLCTFm9zrn5HuIgj4P3FzqZh85BsxFLbCoEcs7LqCCcarI/vs8IbVYi+5Jt+id54fv+nMqxJW1kP95mN3+4oEgtcX9flbJNtWyc6Stsg9Wh0n8G/i624dXIUowhHG8CW2vNy343tobk+LH2WV9WvV3wXEG//vDvM3hGdNTf1lJkX4/DmhgfyP6atDWxrNIEDBehoURDIGuBg5XSJAwQHVERJ37MaSvKq0mYmEWnjVhLx9JG1MgJQmoBldSeJuvNm73JfsQpBlEV6dnQVqT0m1arzTGujEuGXLHIkABsL1sSF1COEMQnss4ehs7BLk0qWud7bLJfRcSblDphTqg3EiWMks/gUuciaSBGI8N0H26g1P6DCWDUMoW+Ujt/RLI/wFfZ6Tdcqplatr5k32xULNsRMfb6kMg+W61odLIf2kZga0P0EsGzOqdiKzJ5fjSj/6nIvrSuyqdTsi+NnabzJwtNWxk4TEzJRm0eZH9UONfd2OLIfsaky4mgtVpSOHT1Ys3mqVr2EMnbVy1WYvtMKo3fV1+yH8VHGxXySal0f8Jg1aVP9CNe3EbA6zNxhyKnX5HcBKlQwnG6aOOp+yRrJfsNhXXuwWTkMqdOA7NsNvTXObrn752UbXbjUfsPNdnXzx+R7A/wVc4G5EODX/JuVDi3202MacNSReq+iqujeDQ51HCYIqIm+6q5Kgcikqc+g/XC8Y+Y7/Nkzeh/92Q/Yx5ItMwZr5BmzL2ruYO3QCoIsr9ApexKpMWR/UgKjo9R1iJtXlYc/6oXa8XGQdJrMpIrRCSXENnvFsrcyH4qJz0WEU9H9qXa4oacx6I+Wlvi08CkNB6O7DfPspfNY7m2pSWtm+y3c4G5EzR1ZD9Wd16r+zbCzV08tFIh1f5DTfaV6VclwJJPGuCrfB/mzydV4MKM1bpQW7Wrlct+7u7j6oJ4+k4Qg1usP+nEKDlXB5B97fh7EoTQ9/GRfc13GXZP9jPmQQovP1VoYj2kxJnq7yD7UyG7wnZzyb7/xVwuN3nYwq29rKgghmKVn3gElSd03MVTnripzCCVTtQ3Mp/Y1KQ3CzL+IS56si9hqt7Atakg4YYh3bZAkq3OOTsu/+y3rV3w1ASykSG5+aue4/HWz8FdpfGEM8JPE5zKZ6Rto9OxH10O3lXOSb3/EMgLk7OsGUecPA/wVYH63Pmkk02bximGR+pUsOKUp64c5/kBpW6imwuf8KnT2SRsw99DOx9TLxx2vu8TTmdTRSvazZrvf+OnLGExi7AaWO1Tw0v/3AZEZ2uqFbit/FanNE6tB51MYz8Fsj82oituT0/2Q7JrJl45fHuhHLZwF42ZyB8XUXn3jG6aSigxgtTKxlSZSX7Zsz26NY7NPT7kKgf5bZa4Pr1TlL78aiNYR+Ncir+27dkL1g+Kqi9llZMgT7VsbsI0nrJ5Dn9WJ3qy3xJVp+JJ0VeF9ZaeNWUxo6RXKZePvWaBYG2Z6S8k1p0ebRuQx2Ge9++e+NVgeLPxI3V5c3BHZL/E8YtN97Vt5tRqEp8h+BF+g1mXyWz9GPcuQ8LZPOAM/9HONeOn7LQRx/8Zu/ECFd78aecZQ944n1htIRO+Kj2fdLIFUWZrrKk0nlJOydbtTU7SX/aJ7Fv+tpPB1oPlA9pnuzUjXC/cEzy1XlIBIkaXmgCNtn9toKPSB7P5stMfDSZs35q0vMQ6EnhPxTzR4rAmugeyvyZtTSxrDtnvCJsRqiQsReVcr/7+4IXbJpze+FOO037cXhzM75pFxXZWbXvV4nmPHhdjtetk+4tQ138q/7paZqtSik5VdztFwM+nLGS4+OQVnRTfMOguWOojK2Zhd6svZeS/BnmLOWRfGG/5szbXXbILT64+em9t9sVDevXIri0fniT4OftHTy7o4bcndG5VzohuWoI84KKPF0QnVlUiedr7NpMzB3dE9rm852RqRDWz2mju1fUZtdtmiQxw+ceKXNsc3Qc5++yc7MiO4z+abzj46WS+PZV/P/mmiHYGJTkZf+HNn9AfcXcj3Pr/bsnR0PJ080kjW5hzffyi/vZA8P0WbgK0diT4Vo2/zCL7hRCqudpFz5+9u+18H4Y/LQrT9TiMfb3kBi34NS9+OujC7uI8Dtk3vs5a9fyNaTKlRmNrvgFx78inxDEcJqZkozYPsj8qnGgMCACBtSMQJedrHxzkjyIwm+4V94WgKiAgIeCnvq0NKe3djrWNa8nyguwvWTuQDQgAgdkRmI3wzT4ydJhCYDbdg+ynVIG/SwhU0e5X9ND5qv264ALZn19fIPvzY44egQAQWDACsxG+BWNwqKLNpnuQ/UM1sYHjrtOfXn0SuwM2sIsZXgfZnwFkrwuQ/fkxR49AAAgsGQH/EumSZYVs4yIwm+7LvOGntFlxdHZc4NHaISFQbaqtAhuHNPZdjRVkf1fIo18gAASAABAAAkAACAABIDAxAiD7EwOM5oEAEAACQAAIAAEgAASAwK4QANnfFfLoFwgAASAABIAAEAACQAAITIwAyP7EAKN5IAAEgAAQAAJAAAgAASCwKwRA9neFPPoFAkAACAABIAAEgAAQAAITIwCyPzHAaB4IAAEgAASAABAAAkAACOwKAZD9XSGPfoEAEAACQAAIAAEgAASAwMQIgOxPDDCaBwJAAAgAASAABIAAEAACu0IAZH9XyKNfIAAEgMBkCJQfbTqhy/sXdHP56WS9HGzD+ALuwaoeAwcCa0QAZH+NWoPMQAAIAIEIAsM/R7+lx0e36fzDMV3cvKZD2i7U2B3Rqfh12wabDTZSmIRAAAisAwGQ/XXoaR4pEa1icR5OnOZR31738u4x3bp7TvTkit5/tdnroQ4eXDWPtxGyqunBkP0Y6dW0s75n6vlOdPzihl5/Fsq//fwW3f72IV1dnxEscX36hcRA4BARANk/RK1LYwbZB9lf6nwA2Vdr5uXXL+nTzw4pFq+GZoQHt/TyayrwBc0fAUw0AQSAwEwIgOzPBPQqugHZB9lfqqGC7C9VM5ALCAABIAAEFo4AyP7CFTSPeObI3uvt49PmqLq+7Ld9ckqb5+d0WT1mjvebi4CBoF6ub0PWNkUb26KNa/v5/7+9c8mR40bCMI8y0q4H8mJ8C0uYxRjwwhZGl5DkleCFoZUtXUJAwwsDnoUh+Rb2woZ6J/kmmszKFx8RZJCZVZXV/XlltIpk8As+fpJBZnSJ8HBM/mPwC+9IfSjPvXnvrr7rY4r9jNL44ulIPjYvPKJX6ve/L90v/4ls7Ws+hZKMdQot7X4wc9O8N5UXhaQIgnZgceWePr9xr1UmcjmHurtr9/7BiwzPPq3Rh05qJx3zN849fuK82G57/Q6lj2ETQS08hrIPfV8r7ddyOXVc4IYEw9CVNT5wU7uPQ0KShbXUBkeriu1pZHgz9depNiMX5/29oh+K4Wtim/d5Kb6Yx4v8iCb6evajrZ3q/hrajIvbW8R3SO/CMChjX1/VVk4z2FMKBCBwBwkg9u+g09Uqqzv73iQbC6h+Evz2c/fBf/FjzGcWxX2B3mS5/F2ICy7u4Cq2TKLNs29aNAR2zMLWF4uZ+s1iVLio2JV5/89XQQz5VKYW7zuwt4vhZeHjCaqJZUEELsJJqqv3N6MPJZ65Mm7i+Hp1MfMxjI+W2kCmXYgXKi2nVBPHoE2nAnmND2rF/mEh7dlTih+f+vLhdxViv1+gZvuh2O7HfhK1u77s66+H+HbRXmN7FftOn/bfzr3t4+Mr2+myIdFVxl/UefZLZaZifxofwjFA6g+r2gpzEQQgAIEjEUDsHwnsRWZbFPvWlzmEZ/80sRaXaRX7ya5tLNKEXc3JKcliRJ7MAyH1m7HuRftbxH60y5hbgHgNT7tYLO5cJg029qHOMy3Hupgp5OmLV5Wr9sRk+cUUlUN0wVX7neniduXOfvJUpqk91e/sJxedhb6f1K+4gNKf+ywvgjP9NTuYpmXK/lLyVxegXp9T652+WLSqrVzkpIHREIDAJRBA7F+Cl05lY0nsW8IivJ3rQLhooiURQ14YgLhzrQuKUJxk3hlPdnTzb5KbRN3kI5M4s4ph5zTxMIUL5J5FVO0uirZlQbL40Mq9ZjGjhWVMMKPTB+k1Hi28Ysoic/qhhXjNpY+hN2t8UL2zn/Qxpa1EY0Ltzn4i9oVFSdx+iovEXNuXTvuCOrR+F+D4Yj9X7/hUaVVbOdU4TzkQgMCdI4DYv3Muz1S4UeyroskXLmaxP9gXxu0LYSjCwiMQJ1nRHQuEVrGvxSf7IRIS7/2J/bIPjyD2a4R64WRIbdXqAlX33ZDXEja1SsCt3dnXQr7OIPaLi97cIrK0CC79+1jfcjvVFsjtO/u5esdtY1VbYS6CAAQgcCQCiP0jgb3IbBvEvnw8XxHGo4mhCWASi28VneWd/WV3s03si7HiJtGyL7Fv86GVe+84a/0qdnMLi8WW9/eL4nVsg6sE3C0S+1vs7Ot3WcptwdZOtxf75Z39ZTNiVVu5yEkDoyEAgUsggNi/BC+dysYGsS8Lpg3Ffi8dg8uHWnz9+Pc5bEP/AmgqGlrEvn2nMHWfXJ5+4S+N2beH8aQfB4oXKTYfajwlf1jrV/GV1lLMvuHFmtgP5TjyIcUqAafYnV5k1dpgRRhPfK9EuhhbccKmxeyHF959qnEfXP5NXBgHDim3BVs73V7sT5d703qn9V3VVk41zlMOBCBw5wgg9u+cyzMVTmLZp9/qYjgVqF4cdksYT7/g+O5q+TqlFl9/MG3aUVtCMoKdw+lUwBeC0t+mF3qUkA9NFCaCzQtL0QXRwDRO64ct+WnXiAc/5GHiMpeTfbVI9mGSNgjDCS8wW+s3v5IiPX/410v3aX7lSReSUp0mxi8e5L64O9Uz+krsoV437mX3TGP/aao1PuhSu2f3+idilzIkv8zPnzbG7M8cp/S+b3y2a8S+90Tr3M+iDYJc+/JfGZJGoTltvGAfnw5145O8S//ItdN4gWxfnKf+lsYXecypaSvpgo/JCAIQgMBxCCD2j8P1YnMNYmKjd/aTl0LGWsZxtPeeX7svf37sXl9dL2LNKjKkOO5ACC4Lj+vuFfn+s/bTf6LAlt5RVwSVVr/4Hfr0ycLFhodvrp170n+TICcyD1L08L2A4ZsF08KlexX/8D2DJW2NeIgb3bwTengHfylJ+g6AyYfeIsVn/vKvf3Z+iF8rstXvkI/41n16IqHf44jveMzWhW+li70ytnP8UbIYajtdOeQWt+m+Pf/q3KPuwvHV/P7+up39Q4uK3o/vBfnjn6InOa39cM6v5Nfuh4bvZJQWv5NrQh/3fw0XYpZ2KveZNWK/t0O64xEtEvtfSW/0z3+/8r5FoTxTKrZR/ggBCEBgHQHE/jp+pD45gXJs78lN2mmB1pj0teafqpy1dpIeAhCAAAQgcBcJIPbvotcvus6Ifav7TiXCT1WOtd78DgIQgAAEIACBhQBin9ZwYQQQ+1aHnUqEn6oca735HQQgAAEIQAACiH3awMUSGGJnb77/5N7+92IrcRLDD/HDwSXXIxUbX6o+UjFkCwEIQAACEIBAPQF29uuZkQICEIAABCAAAQhAAAIXQQCxfxFuwkgIQAACEIAABCAAAQjUE0Ds1zMjBQQgAAEIQAACEIAABC6CAGL/ItyEkRCAAAQgAAEIQAACEKgngNivZ0YKCEAAAhCAAAQgAAEIXAQBxP5FuAkjIQABCEAAAhCAAAQgUE8AsV/PjBQQgAAEIAABCEAAAhC4CAKI/YtwE0beagK8U38G957jew1Dmb989d59+OHqDHXeS5H9h/FeuKs/P7hXD/ZiE3ZsRoDxbDOUZASBrQgg9rcieRvy6QfpJ+/Emjx8w0es6lw8CLvXfz9015/eum8yiXf9Bdq/nrn7n712H7+4dp/e5WpRR+fsvx7r5Z6fUnjz9eeD38dxZhlT7H3l7O1mbwasHbOn/u3Xa2VfT8ezbf075H/PPWWxuLfWiD07JoDY37FzTm3a4YurP34Ui71XIYp2LV5PBnWa4MqT0q55TWLgH0/d+4+v3K3Zj0bsn6wnJAWpYr/cV85n9D5LXj1mZxYLNWO+T0cX+xX+zfTPIX/nmjagztLv99l2sOpuEUDs3y1/Z2s7TBxu9Y7JrsXrDv0NrzM45SyTPjv78s7+Gfx/S4pcPWYnC68ejH2jQsK4yXh2rP55rHxvSXuiGreXAGL/9vq2umarJ46xxE0G+2rrLzcBvM7gu7NM+oh9xP62bX31mC2K/U7uj6e8Lbvnm4xnx+qfx8p3W7eSGwQ2J4DY3xzphhkmR6wVx6ANZtgmjmnXxy9gjEuX4j+7n83Hwcq/uyhERDqaLk464nG0Hy8v2d3XIWI62nj1/Km7+bGLVferGcWyluzUj7NDdg+/eOfe/RbF9iusQg6DeLzpbL3qbB1uW0z1GYVl0g6EOwRZdopA1Y7/A0aSfaNBUliQmGfkH+E3xXADKc0XD537rSPmhadpIRFh/pV1CvgLLKf2Ft+JkURYJuTCTdxNfSzXboSBw5SnPOCIfaRj/65j77flpK9Yy9R+15sztTGxT+fHLHlMunJPn9+410Go45CPG0NLZgqGMe3QW4PwyMzYqozntjE7MxmsEvuyvdJ4lo6Fwvg0MvsjZnkwfxm30jrb+uQU/hPSaJgjnG77rQlzbNAPJNk3AcT+Tv1zGJhu4jjpYZBxR7osa5k4LL9Rd3a6ieX+n6+Cl0iSHaSWnRfxEmk/ET1y7tfhxQ8xzlOKR/fEwzIRC8faBjtjDlNd/Ql+mYD8SWecTCLBkJ0w40t1vX3ffu4++Jdqx4k9EBhFdrpA/Sja58fSepOiZ1/WF0E9Ru5u6gctO+OTDR5f0cd9G7nvfv/BfyFGulhYUadkbFkj9mMWXeZSG7T0MV+sWC5jmvLMLBL8duItWLJi31im2if8ein+PlhsLGdZtHiLT3/x5dVR2hW3tC3L2BpTbkkT5CGJfeM9Hft4No2/Sx8s7v5nxldN7B82O4zjjHQx3zpHFG3fqabArLtNALG/R//3A/BPj5XXT0IRu6X56mWvZCLLx/VXDYbxoG4Q0fUTni4SzYuNeFI02BlyEMTaWJGEl7LbNom7q3mxJwjZbINIOZTFQk2aeJGicBfYqXYcWNyM90gaxH6BZek1HlVYSIur7tWifH4rxL7Y3sY2dVV4KSlJW9tudCGfq2/ep4Wdfakda/WIfJFslBjF61ykuX0qfdowNvRlxXzKfTGFYhmzs0OC6YROyqFiPOuSx2NccY5oEfuWPqnma58jirZvOSmTFwQ2IoDY3wjkltn0g8n11/pTl/0A/8i93fytbtNkk9sl08RrDk4y+HpHw8YXYIqDb27yjXe7td9OoQCz0C7bGdqlTybaCYCGbdmZrxW/6e+L7KZd4GTHTHpSNN4J1+ybjt2XZy/lI/aFwLQLLJ+E6A1MbdONgqyTLYfTtXfJjnhap9SqFWJ/LPcmCPsw+t8okqvGMAO/3Alf/8RvdmffJPalxY7xBKRqTEqF+ZB8W7E/Leb70MFiaNpov2nMzoWDRovhuX8Vx177eNabqm1o9P8mhmhuIfalPlMY38XFazxHKKdTVf2HH0PgxAQQ+ycGXi6uvHN/VrHvT3J/j7WRdtbiGHQpnQcjntzCHavcW/X6DtOcvba72//AerKQiP1xug+eKw3tbBX7VuGrC8/BNjWf2V8Gdom4zaex1TkWxtp9ismDubj9/D2WKrHvLWTDfuqXcS6xv/hz6Ct/DIuO+M7J/JJKOtK0LxJ1/+RE6TqxbytzHicObfpf47ctIgGZXZjUlBOfaFaIfVPb8hYQytgae9Ui9sV7E9OmhTA2SuE5aWtaKfaHEWpsw0PuUnihJL7Np201Yr9mjijZXp7k+QUETk4AsX9y5OUCd72zH5kvxTlqk/zwd/lCrBoOMO2iZGKLi7vThp39eXfJvLMfgRDstAnfdNfLMoGPcl7ZZdZe0zjRzn4xxl7b2S9/gCygbgjPsIv9OATJX8z5Iu9cYn8o1wUXx1Netj5mPBEYYdvyFOTgob/rF8JzO/u2Mgex/ctX0gV1z55M/7eVs3Zn39q2QobS2Noi9rMzjihyZXsj69SxRxqP82N03Z2oo4j9mjkiALHumdKyGuAXENiGAGJ/G47b5nLWmP3ad/atwq1iF0xaUCSXlZcfSRfixIlJOJpOJvtWsd8VeMjLszOc4KTLnr2VQvy0dJFWbGF1u2vSSYCZnbfYUtNM4nv+rV0Yl+2Qu9iQ7kr/SrHCMtm9VPy+SlgkJuthPPFiNxF6wd0Fbbix9rEasW/NM7VJ82l5g8BYpnLalliiCjljOV2G8qLRmN7ctmLLy6Fh9o0Bpc00v8ZTMZ5NY6N42jvaFfvy1GE80zhsmSNilNZ2uK1KIDcIVBFA7FfhOt2P+wnxxYMlpnkoeRhgb77X4/nXWGiZOGK7pAndPMlL8f/95PPd1fK11kRACjWc81lODeTLb100rCBa/b+JL5z0RcYDusFONRZffCZRfgIufWrzhbuaPxNfvlSWhG70dRFfKtHYSWVMCxQhvCUIK7GL/WXRI5383LiX3fOG3xx8MP7/oRlU7EB6dvnhTSmf+Im/QwS196G5mjrJ4i2M9093Bn37Fv+HIQ9LziGvREhLfUy9dyCPHrY8c/1yYhqGzJR39r1wHLEeeghO0G+KO/ulclaKfWFBv4TWLP6zjK0xZcuYnZ0TChfYP2ZOVMMQqm/mMXJ4rjgX0pjOY+kJi9631y3AS/mW5oiy7bYwqDUzNWkhUE8AsV/P7GQppJjr4nvzK6yTYjun7CZRJP0mjdvVYjHTyfnhm2vnnvRvxY8LGym2tXhZbBHj/rv4+XsAQ80S2607+wY79eNsT6r19f7sWffijIt2pxUhE7DI79DG7efe82v35c+P3ev49RahLuX4bkl8xiEbtcJYEbTxSUHQxg2hP0n9+jSv3O+HEBBvQS397o1zj+fXgLwFxlYXdPss43J7H//q3KPudZ/k5SXf/166ZVww9LFKsb98UXUBn/RbbdyJL4ce7P/cPYueEE77iqUe0u7y0obi73vIoYKWctaKfWl86tpg1LZsY2sI2jJmN4l941d00zFGHs9i/1rmtrBu5Xf2rZfmtXx7ThYflGxH7K8QISQ9GgHE/tHQkjEEIACBbQjo4UrlUI9tLNhhLmpo0yjgS0+S7rBKmAQBCEDgGAQQ+8egSp4QgAAENiSgXnDMvSKyYfl7zMp++XqP1mMTBCAAgdMRQOyfjjUlQQACEGgjoD7d2GVn+QpuW6k7T6XdY+jMtoT+7bx2mAcBCEBgKwKI/a1dZ4mSAAAC4klEQVRIkg8EIACBoxNYYsyPeX/n6NXYuIApjtr6MaqNiyc7CEAAArsmgNjftXswDgIQgAAEIAABCEAAAu0EEPvt7EgJAQhAAAIQgAAEIACBXRNA7O/aPRgHAQhAAAIQgAAEIACBdgKI/XZ2pIQABCAAAQhAAAIQgMCuCSD2d+0ejIMABCAAAQhAAAIQgEA7AcR+OztSQgACEIAABCAAAQhAYNcEEPu7dg/GQQACEIAABCAAAQhAoJ0AYr+dHSkhAAEIQAACEIAABCCwawKI/V27B+MgAAEIQAACEIAABCDQTgCx386OlBCAAAQgAAEIQAACENg1AcT+rt2DcRCAAAQgAAEIQAACEGgngNhvZ0dKCEAAAhCAAAQgAAEI7JoAYn/X7sE4CEAAAhCAAAQgAAEItBNA7LezIyUEIAABCEAAAhCAAAR2TQCxv2v3YBwEIAABCEAAAhCAAATaCSD229mREgIQgAAEIAABCEAAArsmgNjftXswDgIQgAAEIAABCEAAAu0EEPvt7EgJAQhAAAIQgAAEIACBXRNA7O/aPRgHAQhAAAIQgAAEIACBdgKI/XZ2pIQABCAAAQhAAAIQgMCuCSD2d+0ejIMABCAAAQhAAAIQgEA7AcR+OztSQgACEIAABCAAAQhAYNcEEPu7dg/GQQACEIAABCAAAQhAoJ0AYr+dHSkhAAEIQAACEIAABCCwawKI/V27B+MgAAEIQAACEIAABCDQTgCx386OlBCAAAQgAAEIQAACENg1AcT+rt2DcRCAAAQgAAEIQAACEGgngNhvZ0dKCEAAAhCAAAQgAAEI7JoAYn/X7sE4CEAAAhCAAAQgAAEItBNA7LezIyUEIAABCEAAAhCAAAR2TQCxv2v3YBwEIAABCEAAAhCAAATaCSD229mREgIQgAAEIAABCEAAArsmgNjftXswDgIQgAAEIAABCEAAAu0EEPvt7EgJAQhAAAIQgAAEIACBXRP4P3R64+UeO51qAAAAAElFTkSuQmCC;" vertex="1" parent="1">
          <mxGeometry x="830" y="90" width="194.61" height="188.74" as="geometry" />
        </mxCell>
        <mxCell id="S7uSwl5i3R4dip4OoaD3-5" value="nif" style="rounded=1;whiteSpace=wrap;html=1;arcSize=50;" vertex="1" parent="1">
          <mxGeometry x="280" y="60" width="70" height="20" as="geometry" />
        </mxCell>
        <mxCell id="S7uSwl5i3R4dip4OoaD3-6" value="nombre" style="rounded=1;whiteSpace=wrap;html=1;arcSize=50;" vertex="1" parent="1">
          <mxGeometry x="280" y="90" width="70" height="20" as="geometry" />
        </mxCell>
        <mxCell id="S7uSwl5i3R4dip4OoaD3-7" value="direcciÃ³n" style="rounded=1;whiteSpace=wrap;html=1;arcSize=50;" vertex="1" parent="1">
          <mxGeometry x="280" y="120" width="70" height="20" as="geometry" />
        </mxCell>
        <mxCell id="S7uSwl5i3R4dip4OoaD3-8" value="" style="endArrow=none;html=1;rounded=0;entryX=0;entryY=0.5;entryDx=0;entryDy=0;exitX=1;exitY=0.5;exitDx=0;exitDy=0;" edge="1" parent="1" source="S7uSwl5i3R4dip4OoaD3-1" target="S7uSwl5i3R4dip4OoaD3-5">
          <mxGeometry width="50" height="50" relative="1" as="geometry">
            <mxPoint x="280" y="170" as="sourcePoint" />
            <mxPoint x="330" y="120" as="targetPoint" />
          </mxGeometry>
        </mxCell>
        <mxCell id="S7uSwl5i3R4dip4OoaD3-10" value="" style="endArrow=none;html=1;rounded=0;exitX=0;exitY=0.5;exitDx=0;exitDy=0;entryX=1;entryY=0.5;entryDx=0;entryDy=0;" edge="1" parent="1" source="S7uSwl5i3R4dip4OoaD3-7" target="S7uSwl5i3R4dip4OoaD3-1">
          <mxGeometry width="50" height="50" relative="1" as="geometry">
            <mxPoint x="280" y="170" as="sourcePoint" />
            <mxPoint x="250" y="130" as="targetPoint" />
          </mxGeometry>
        </mxCell>
        <mxCell id="S7uSwl5i3R4dip4OoaD3-11" value="" style="endArrow=none;html=1;rounded=0;entryX=0;entryY=0.5;entryDx=0;entryDy=0;exitX=1;exitY=0.5;exitDx=0;exitDy=0;" edge="1" parent="1" source="S7uSwl5i3R4dip4OoaD3-1" target="S7uSwl5i3R4dip4OoaD3-6">
          <mxGeometry width="50" height="50" relative="1" as="geometry">
            <mxPoint x="280" y="170" as="sourcePoint" />
            <mxPoint x="330" y="120" as="targetPoint" />
          </mxGeometry>
        </mxCell>
        <mxCell id="S7uSwl5i3R4dip4OoaD3-12" value="" style="endArrow=none;html=1;rounded=0;entryX=0.5;entryY=1;entryDx=0;entryDy=0;exitX=0.5;exitY=0;exitDx=0;exitDy=0;" edge="1" parent="1" source="S7uSwl5i3R4dip4OoaD3-2" target="S7uSwl5i3R4dip4OoaD3-1">
          <mxGeometry width="50" height="50" relative="1" as="geometry">
            <mxPoint x="230" y="220" as="sourcePoint" />
            <mxPoint x="280" y="170" as="targetPoint" />
          </mxGeometry>
        </mxCell>
        <mxCell id="S7uSwl5i3R4dip4OoaD3-21" value="" style="group" vertex="1" connectable="0" parent="1">
          <mxGeometry x="80" y="210" width="250" height="100" as="geometry" />
        </mxCell>
        <mxCell id="S7uSwl5i3R4dip4OoaD3-13" value="Contrato" style="rhombus;whiteSpace=wrap;html=1;" vertex="1" parent="S7uSwl5i3R4dip4OoaD3-21">
          <mxGeometry y="30" width="120" height="40" as="geometry" />
        </mxCell>
        <mxCell id="S7uSwl5i3R4dip4OoaD3-14" value="" style="endArrow=none;html=1;rounded=0;entryX=1;entryY=0.5;entryDx=0;entryDy=0;exitX=0;exitY=0.5;exitDx=0;exitDy=0;" edge="1" parent="S7uSwl5i3R4dip4OoaD3-21" source="S7uSwl5i3R4dip4OoaD3-15" target="S7uSwl5i3R4dip4OoaD3-13">
          <mxGeometry width="50" height="50" relative="1" as="geometry">
            <mxPoint x="160" y="50" as="sourcePoint" />
            <mxPoint x="160" y="50" as="targetPoint" />
          </mxGeometry>
        </mxCell>
        <mxCell id="S7uSwl5i3R4dip4OoaD3-15" value="&lt;u&gt;cod_contrato&lt;/u&gt;" style="rounded=1;whiteSpace=wrap;html=1;arcSize=50;" vertex="1" parent="S7uSwl5i3R4dip4OoaD3-21">
          <mxGeometry x="160" y="60" width="90" height="20" as="geometry" />
        </mxCell>
        <mxCell id="S7uSwl5i3R4dip4OoaD3-19" value="tipo_contrato" style="rounded=1;whiteSpace=wrap;html=1;arcSize=50;" vertex="1" parent="S7uSwl5i3R4dip4OoaD3-21">
          <mxGeometry x="160" y="20" width="90" height="20" as="geometry" />
        </mxCell>
        <mxCell id="S7uSwl5i3R4dip4OoaD3-20" value="" style="endArrow=none;html=1;rounded=0;entryX=1;entryY=0.5;entryDx=0;entryDy=0;exitX=0;exitY=0.5;exitDx=0;exitDy=0;" edge="1" parent="S7uSwl5i3R4dip4OoaD3-21" source="S7uSwl5i3R4dip4OoaD3-19" target="S7uSwl5i3R4dip4OoaD3-13">
          <mxGeometry width="50" height="50" relative="1" as="geometry">
            <mxPoint x="170" y="100" as="sourcePoint" />
            <mxPoint x="130" y="60" as="targetPoint" />
          </mxGeometry>
        </mxCell>
        <mxCell id="S7uSwl5i3R4dip4OoaD3-23" value="" style="endArrow=none;html=1;rounded=0;entryX=1;entryY=1;entryDx=0;entryDy=0;exitX=0.5;exitY=0;exitDx=0;exitDy=0;startArrow=classic;startFill=1;" edge="1" parent="1" source="S7uSwl5i3R4dip4OoaD3-22" target="S7uSwl5i3R4dip4OoaD3-1">
          <mxGeometry width="50" height="50" relative="1" as="geometry">
            <mxPoint x="460" y="270" as="sourcePoint" />
            <mxPoint x="510" y="220" as="targetPoint" />
            <Array as="points">
              <mxPoint x="825" y="160" />
              <mxPoint x="360" y="160" />
            </Array>
          </mxGeometry>
        </mxCell>
        <mxCell id="S7uSwl5i3R4dip4OoaD3-45" value="" style="group" vertex="1" connectable="0" parent="1">
          <mxGeometry x="750" y="370" width="280" height="80" as="geometry" />
        </mxCell>
        <mxCell id="S7uSwl5i3R4dip4OoaD3-22" value="Paquete" style="rounded=0;whiteSpace=wrap;html=1;" vertex="1" parent="S7uSwl5i3R4dip4OoaD3-45">
          <mxGeometry width="160" height="80" as="geometry" />
        </mxCell>
        <mxCell id="S7uSwl5i3R4dip4OoaD3-24" value="&lt;u&gt;cod_paquete&lt;/u&gt;" style="rounded=1;whiteSpace=wrap;html=1;arcSize=50;" vertex="1" parent="S7uSwl5i3R4dip4OoaD3-45">
          <mxGeometry x="200" y="60" width="80" height="20" as="geometry" />
        </mxCell>
        <mxCell id="S7uSwl5i3R4dip4OoaD3-25" value="descripcion" style="rounded=1;whiteSpace=wrap;html=1;arcSize=50;" vertex="1" parent="S7uSwl5i3R4dip4OoaD3-45">
          <mxGeometry x="200" y="30" width="80" height="20" as="geometry" />
        </mxCell>
        <mxCell id="S7uSwl5i3R4dip4OoaD3-26" value="dir_envio" style="rounded=1;whiteSpace=wrap;html=1;arcSize=50;" vertex="1" parent="S7uSwl5i3R4dip4OoaD3-45">
          <mxGeometry x="200" width="80" height="20" as="geometry" />
        </mxCell>
        <mxCell id="S7uSwl5i3R4dip4OoaD3-28" value="" style="endArrow=none;html=1;rounded=0;entryX=0;entryY=0.5;entryDx=0;entryDy=0;exitX=1;exitY=0.5;exitDx=0;exitDy=0;" edge="1" parent="S7uSwl5i3R4dip4OoaD3-45" source="S7uSwl5i3R4dip4OoaD3-22" target="S7uSwl5i3R4dip4OoaD3-26">
          <mxGeometry width="50" height="50" relative="1" as="geometry">
            <mxPoint x="110" y="10" as="sourcePoint" />
            <mxPoint x="160" y="-40" as="targetPoint" />
          </mxGeometry>
        </mxCell>
        <mxCell id="S7uSwl5i3R4dip4OoaD3-29" value="" style="endArrow=none;html=1;rounded=0;entryX=0;entryY=0.5;entryDx=0;entryDy=0;exitX=1;exitY=0.5;exitDx=0;exitDy=0;" edge="1" parent="S7uSwl5i3R4dip4OoaD3-45" source="S7uSwl5i3R4dip4OoaD3-22" target="S7uSwl5i3R4dip4OoaD3-25">
          <mxGeometry width="50" height="50" relative="1" as="geometry">
            <mxPoint x="170" y="50" as="sourcePoint" />
            <mxPoint x="208" y="6" as="targetPoint" />
          </mxGeometry>
        </mxCell>
        <mxCell id="S7uSwl5i3R4dip4OoaD3-31" value="" style="endArrow=none;html=1;rounded=0;entryX=0;entryY=0.5;entryDx=0;entryDy=0;" edge="1" parent="S7uSwl5i3R4dip4OoaD3-45" target="S7uSwl5i3R4dip4OoaD3-24">
          <mxGeometry width="50" height="50" relative="1" as="geometry">
            <mxPoint x="160" y="40" as="sourcePoint" />
            <mxPoint x="160" y="-40" as="targetPoint" />
          </mxGeometry>
        </mxCell>
        <mxCell id="S7uSwl5i3R4dip4OoaD3-46" value="" style="group" vertex="1" connectable="0" parent="1">
          <mxGeometry x="40" y="360" width="200" height="220" as="geometry" />
        </mxCell>
        <mxCell id="S7uSwl5i3R4dip4OoaD3-2" value="Camionero" style="rounded=0;whiteSpace=wrap;html=1;" vertex="1" parent="S7uSwl5i3R4dip4OoaD3-46">
          <mxGeometry x="20" width="160" height="76.52173913043478" as="geometry" />
        </mxCell>
        <mxCell id="S7uSwl5i3R4dip4OoaD3-40" value="" style="endArrow=none;html=1;rounded=0;exitX=1;exitY=0.5;exitDx=0;exitDy=0;entryX=0.5;entryY=1;entryDx=0;entryDy=0;" edge="1" parent="S7uSwl5i3R4dip4OoaD3-46" source="S7uSwl5i3R4dip4OoaD3-39" target="S7uSwl5i3R4dip4OoaD3-2">
          <mxGeometry width="50" height="50" relative="1" as="geometry">
            <mxPoint x="110" y="181.73913043478262" as="sourcePoint" />
            <mxPoint x="160" y="133.91304347826087" as="targetPoint" />
          </mxGeometry>
        </mxCell>
        <mxCell id="S7uSwl5i3R4dip4OoaD3-41" value="" style="endArrow=none;html=1;rounded=0;exitX=1;exitY=0.5;exitDx=0;exitDy=0;" edge="1" parent="S7uSwl5i3R4dip4OoaD3-46" source="S7uSwl5i3R4dip4OoaD3-38">
          <mxGeometry width="50" height="50" relative="1" as="geometry">
            <mxPoint x="150" y="114.78260869565217" as="sourcePoint" />
            <mxPoint x="100" y="76.52173913043478" as="targetPoint" />
          </mxGeometry>
        </mxCell>
        <mxCell id="S7uSwl5i3R4dip4OoaD3-42" value="" style="endArrow=none;html=1;rounded=0;exitX=1;exitY=0.5;exitDx=0;exitDy=0;entryX=0.5;entryY=1;entryDx=0;entryDy=0;" edge="1" parent="S7uSwl5i3R4dip4OoaD3-46" source="S7uSwl5i3R4dip4OoaD3-32" target="S7uSwl5i3R4dip4OoaD3-2">
          <mxGeometry width="50" height="50" relative="1" as="geometry">
            <mxPoint x="150" y="114.78260869565217" as="sourcePoint" />
            <mxPoint x="200" y="66.95652173913044" as="targetPoint" />
          </mxGeometry>
        </mxCell>
        <mxCell id="S7uSwl5i3R4dip4OoaD3-32" value="&lt;u&gt;dni&lt;/u&gt;" style="rounded=1;whiteSpace=wrap;html=1;arcSize=50;" vertex="1" parent="S7uSwl5i3R4dip4OoaD3-46">
          <mxGeometry y="86.08695652173914" width="80" height="19.130434782608695" as="geometry" />
        </mxCell>
        <mxCell id="S7uSwl5i3R4dip4OoaD3-38" value="nombre" style="rounded=1;whiteSpace=wrap;html=1;arcSize=50;" vertex="1" parent="S7uSwl5i3R4dip4OoaD3-46">
          <mxGeometry y="114.78260869565217" width="80" height="19.130434782608695" as="geometry" />
        </mxCell>
        <mxCell id="S7uSwl5i3R4dip4OoaD3-39" value="direccion" style="rounded=1;whiteSpace=wrap;html=1;arcSize=50;" vertex="1" parent="S7uSwl5i3R4dip4OoaD3-46">
          <mxGeometry y="143.47826086956522" width="80" height="19.130434782608695" as="geometry" />
        </mxCell>
        <mxCell id="S7uSwl5i3R4dip4OoaD3-34" value="salario" style="rounded=1;whiteSpace=wrap;html=1;arcSize=50;" vertex="1" parent="S7uSwl5i3R4dip4OoaD3-46">
          <mxGeometry y="172.17391304347828" width="80" height="19.130434782608695" as="geometry" />
        </mxCell>
        <mxCell id="S7uSwl5i3R4dip4OoaD3-43" value="" style="endArrow=none;html=1;rounded=0;exitX=1;exitY=0.5;exitDx=0;exitDy=0;entryX=0.5;entryY=1;entryDx=0;entryDy=0;" edge="1" parent="S7uSwl5i3R4dip4OoaD3-46" source="S7uSwl5i3R4dip4OoaD3-34" target="S7uSwl5i3R4dip4OoaD3-2">
          <mxGeometry width="50" height="50" relative="1" as="geometry">
            <mxPoint x="150" y="114.78260869565217" as="sourcePoint" />
            <mxPoint x="100" y="76.52173913043478" as="targetPoint" />
          </mxGeometry>
        </mxCell>
        <mxCell id="S7uSwl5i3R4dip4OoaD3-49" value="" style="endArrow=none;html=1;rounded=0;entryX=1;entryY=1;entryDx=0;entryDy=0;exitX=0.5;exitY=0;exitDx=0;exitDy=0;exitPerimeter=0;startArrow=block;startFill=1;" edge="1" parent="1" source="S7uSwl5i3R4dip4OoaD3-52" target="S7uSwl5i3R4dip4OoaD3-1">
          <mxGeometry width="50" height="50" relative="1" as="geometry">
            <mxPoint x="480" y="360" as="sourcePoint" />
            <mxPoint x="400" y="350" as="targetPoint" />
            <Array as="points">
              <mxPoint x="480" y="160" />
            </Array>
          </mxGeometry>
        </mxCell>
        <mxCell id="S7uSwl5i3R4dip4OoaD3-74" value="" style="endArrow=none;html=1;rounded=0;entryX=1;entryY=1;entryDx=0;entryDy=0;exitX=0.5;exitY=0;exitDx=0;exitDy=0;" edge="1" parent="1" source="S7uSwl5i3R4dip4OoaD3-76" target="S7uSwl5i3R4dip4OoaD3-2">
          <mxGeometry width="50" height="50" relative="1" as="geometry">
            <mxPoint x="320" y="520" as="sourcePoint" />
            <mxPoint x="400" y="490" as="targetPoint" />
          </mxGeometry>
        </mxCell>
        <mxCell id="S7uSwl5i3R4dip4OoaD3-78" value="" style="group" vertex="1" connectable="0" parent="1">
          <mxGeometry x="400" y="360" width="290" height="90" as="geometry" />
        </mxCell>
        <mxCell id="S7uSwl5i3R4dip4OoaD3-52" value="Camion" style="rounded=0;whiteSpace=wrap;html=1;" vertex="1" parent="S7uSwl5i3R4dip4OoaD3-78">
          <mxGeometry width="160" height="80" as="geometry" />
        </mxCell>
        <mxCell id="S7uSwl5i3R4dip4OoaD3-53" value="km" style="rounded=1;whiteSpace=wrap;html=1;arcSize=50;" vertex="1" parent="S7uSwl5i3R4dip4OoaD3-78">
          <mxGeometry x="200" y="60" width="80" height="20" as="geometry" />
        </mxCell>
        <mxCell id="S7uSwl5i3R4dip4OoaD3-54" value="modelo" style="rounded=1;whiteSpace=wrap;html=1;arcSize=50;" vertex="1" parent="S7uSwl5i3R4dip4OoaD3-78">
          <mxGeometry x="200" y="30" width="80" height="20" as="geometry" />
        </mxCell>
        <mxCell id="S7uSwl5i3R4dip4OoaD3-55" value="&lt;u&gt;matricula&lt;/u&gt;" style="rounded=1;whiteSpace=wrap;html=1;arcSize=50;" vertex="1" parent="S7uSwl5i3R4dip4OoaD3-78">
          <mxGeometry x="200" width="80" height="20" as="geometry" />
        </mxCell>
        <mxCell id="S7uSwl5i3R4dip4OoaD3-71" value="" style="endArrow=none;html=1;rounded=0;exitX=1;exitY=0.5;exitDx=0;exitDy=0;entryX=0;entryY=0.5;entryDx=0;entryDy=0;" edge="1" parent="S7uSwl5i3R4dip4OoaD3-78" source="S7uSwl5i3R4dip4OoaD3-52" target="S7uSwl5i3R4dip4OoaD3-55">
          <mxGeometry width="50" height="50" relative="1" as="geometry">
            <mxPoint x="390" y="90" as="sourcePoint" />
            <mxPoint x="440" y="40" as="targetPoint" />
          </mxGeometry>
        </mxCell>
        <mxCell id="S7uSwl5i3R4dip4OoaD3-72" value="" style="endArrow=none;html=1;rounded=0;exitX=1;exitY=0.5;exitDx=0;exitDy=0;entryX=0;entryY=0.5;entryDx=0;entryDy=0;" edge="1" parent="S7uSwl5i3R4dip4OoaD3-78" source="S7uSwl5i3R4dip4OoaD3-52" target="S7uSwl5i3R4dip4OoaD3-54">
          <mxGeometry width="50" height="50" relative="1" as="geometry">
            <mxPoint x="390" y="90" as="sourcePoint" />
            <mxPoint x="440" y="40" as="targetPoint" />
          </mxGeometry>
        </mxCell>
        <mxCell id="S7uSwl5i3R4dip4OoaD3-73" value="" style="endArrow=none;html=1;rounded=0;exitX=1;exitY=0.5;exitDx=0;exitDy=0;entryX=0;entryY=0.5;entryDx=0;entryDy=0;" edge="1" parent="S7uSwl5i3R4dip4OoaD3-78" source="S7uSwl5i3R4dip4OoaD3-52" target="S7uSwl5i3R4dip4OoaD3-53">
          <mxGeometry width="50" height="50" relative="1" as="geometry">
            <mxPoint x="160" y="20" as="sourcePoint" />
            <mxPoint x="200" y="50" as="targetPoint" />
          </mxGeometry>
        </mxCell>
        <mxCell id="S7uSwl5i3R4dip4OoaD3-84" value="" style="endArrow=none;html=1;rounded=0;exitX=1;exitY=1;exitDx=0;exitDy=0;entryX=0.5;entryY=0;entryDx=0;entryDy=0;" edge="1" parent="1" source="S7uSwl5i3R4dip4OoaD3-52" target="S7uSwl5i3R4dip4OoaD3-86">
          <mxGeometry width="50" height="50" relative="1" as="geometry">
            <mxPoint x="410" y="450" as="sourcePoint" />
            <mxPoint x="680" y="520" as="targetPoint" />
          </mxGeometry>
        </mxCell>
        <mxCell id="S7uSwl5i3R4dip4OoaD3-85" value="" style="endArrow=none;html=1;rounded=0;exitX=0;exitY=1;exitDx=0;exitDy=0;entryX=0.5;entryY=0;entryDx=0;entryDy=0;startArrow=classic;startFill=1;" edge="1" parent="1" source="S7uSwl5i3R4dip4OoaD3-22" target="S7uSwl5i3R4dip4OoaD3-86">
          <mxGeometry width="50" height="50" relative="1" as="geometry">
            <mxPoint x="570" y="450" as="sourcePoint" />
            <mxPoint x="680" y="520" as="targetPoint" />
          </mxGeometry>
        </mxCell>
        <mxCell id="S7uSwl5i3R4dip4OoaD3-90" value="" style="endArrow=classic;html=1;rounded=0;exitX=0.5;exitY=0;exitDx=0;exitDy=0;" edge="1" parent="1" source="S7uSwl5i3R4dip4OoaD3-76">
          <mxGeometry width="50" height="50" relative="1" as="geometry">
            <mxPoint x="320" y="510" as="sourcePoint" />
            <mxPoint x="400" y="440" as="targetPoint" />
          </mxGeometry>
        </mxCell>
        <mxCell id="S7uSwl5i3R4dip4OoaD3-95" value="" style="group" vertex="1" connectable="0" parent="1">
          <mxGeometry x="585" y="507.5" width="260" height="62.5" as="geometry" />
        </mxCell>
        <mxCell id="S7uSwl5i3R4dip4OoaD3-86" value="Transportar" style="rhombus;whiteSpace=wrap;html=1;" vertex="1" parent="S7uSwl5i3R4dip4OoaD3-95">
          <mxGeometry y="2.5" width="140" height="50" as="geometry" />
        </mxCell>
        <mxCell id="S7uSwl5i3R4dip4OoaD3-94" value="" style="group" vertex="1" connectable="0" parent="S7uSwl5i3R4dip4OoaD3-95">
          <mxGeometry x="170" width="90" height="62.5" as="geometry" />
        </mxCell>
        <mxCell id="S7uSwl5i3R4dip4OoaD3-93" value="" style="group" vertex="1" connectable="0" parent="S7uSwl5i3R4dip4OoaD3-94">
          <mxGeometry width="90" height="62.5" as="geometry" />
        </mxCell>
        <mxCell id="S7uSwl5i3R4dip4OoaD3-87" value="dni_camionero" style="rounded=1;whiteSpace=wrap;html=1;arcSize=50;" vertex="1" parent="S7uSwl5i3R4dip4OoaD3-93">
          <mxGeometry width="90" height="20" as="geometry" />
        </mxCell>
        <mxCell id="S7uSwl5i3R4dip4OoaD3-88" value="cod_camion" style="rounded=1;whiteSpace=wrap;html=1;arcSize=50;" vertex="1" parent="S7uSwl5i3R4dip4OoaD3-93">
          <mxGeometry y="42.5" width="90" height="20" as="geometry" />
        </mxCell>
        <mxCell id="S7uSwl5i3R4dip4OoaD3-91" value="" style="endArrow=none;html=1;rounded=0;exitX=1;exitY=0.5;exitDx=0;exitDy=0;entryX=0;entryY=0.5;entryDx=0;entryDy=0;" edge="1" parent="S7uSwl5i3R4dip4OoaD3-95" source="S7uSwl5i3R4dip4OoaD3-86" target="S7uSwl5i3R4dip4OoaD3-87">
          <mxGeometry width="50" height="50" relative="1" as="geometry">
            <mxPoint x="490" y="-87.5" as="sourcePoint" />
            <mxPoint x="540" y="-137.5" as="targetPoint" />
          </mxGeometry>
        </mxCell>
        <mxCell id="S7uSwl5i3R4dip4OoaD3-92" value="" style="endArrow=none;html=1;rounded=0;exitX=1;exitY=0.5;exitDx=0;exitDy=0;entryX=0;entryY=0.5;entryDx=0;entryDy=0;" edge="1" parent="S7uSwl5i3R4dip4OoaD3-95" source="S7uSwl5i3R4dip4OoaD3-86" target="S7uSwl5i3R4dip4OoaD3-88">
          <mxGeometry width="50" height="50" relative="1" as="geometry">
            <mxPoint x="150" y="37.5" as="sourcePoint" />
            <mxPoint x="180" y="22.5" as="targetPoint" />
          </mxGeometry>
        </mxCell>
        <mxCell id="S7uSwl5i3R4dip4OoaD3-96" value="" style="group" vertex="1" connectable="0" parent="1">
          <mxGeometry x="230" y="507.5" width="255" height="55" as="geometry" />
        </mxCell>
        <mxCell id="S7uSwl5i3R4dip4OoaD3-76" value="Conducir" style="rhombus;whiteSpace=wrap;html=1;" vertex="1" parent="S7uSwl5i3R4dip4OoaD3-96">
          <mxGeometry y="2.5" width="140" height="50" as="geometry" />
        </mxCell>
        <mxCell id="S7uSwl5i3R4dip4OoaD3-77" value="dni_camionero" style="rounded=1;whiteSpace=wrap;html=1;arcSize=50;" vertex="1" parent="S7uSwl5i3R4dip4OoaD3-96">
          <mxGeometry x="165" width="90" height="20" as="geometry" />
        </mxCell>
        <mxCell id="S7uSwl5i3R4dip4OoaD3-79" value="cod_camion" style="rounded=1;whiteSpace=wrap;html=1;arcSize=50;" vertex="1" parent="S7uSwl5i3R4dip4OoaD3-96">
          <mxGeometry x="165" y="42.5" width="90" height="20" as="geometry" />
        </mxCell>
        <mxCell id="S7uSwl5i3R4dip4OoaD3-82" value="" style="endArrow=none;html=1;rounded=0;exitX=1;exitY=0.5;exitDx=0;exitDy=0;entryX=0;entryY=0.5;entryDx=0;entryDy=0;" edge="1" parent="S7uSwl5i3R4dip4OoaD3-96" source="S7uSwl5i3R4dip4OoaD3-76" target="S7uSwl5i3R4dip4OoaD3-77">
          <mxGeometry width="50" height="50" relative="1" as="geometry">
            <mxPoint x="145" y="42.5" as="sourcePoint" />
            <mxPoint x="195" y="-7.5" as="targetPoint" />
          </mxGeometry>
        </mxCell>
        <mxCell id="S7uSwl5i3R4dip4OoaD3-83" value="" style="endArrow=none;html=1;rounded=0;exitX=1;exitY=0.5;exitDx=0;exitDy=0;entryX=0;entryY=0.5;entryDx=0;entryDy=0;" edge="1" parent="S7uSwl5i3R4dip4OoaD3-96" source="S7uSwl5i3R4dip4OoaD3-76" target="S7uSwl5i3R4dip4OoaD3-79">
          <mxGeometry width="50" height="50" relative="1" as="geometry">
            <mxPoint x="150" y="37.5" as="sourcePoint" />
            <mxPoint x="175" y="2.5" as="targetPoint" />
          </mxGeometry>
        </mxCell>
        <mxCell id="S7uSwl5i3R4dip4OoaD3-98" value="" style="group" vertex="1" connectable="0" parent="1">
          <mxGeometry x="800" y="720" width="280" height="80" as="geometry" />
        </mxCell>
        <mxCell id="S7uSwl5i3R4dip4OoaD3-99" value="Ciudad" style="rounded=0;whiteSpace=wrap;html=1;" vertex="1" parent="S7uSwl5i3R4dip4OoaD3-98">
          <mxGeometry width="160" height="80" as="geometry" />
        </mxCell>
        <mxCell id="S7uSwl5i3R4dip4OoaD3-100" value="nombre" style="rounded=1;whiteSpace=wrap;html=1;arcSize=50;" vertex="1" parent="S7uSwl5i3R4dip4OoaD3-98">
          <mxGeometry x="200" y="50" width="80" height="20" as="geometry" />
        </mxCell>
        <mxCell id="S7uSwl5i3R4dip4OoaD3-102" value="&lt;u&gt;cod_postal&lt;/u&gt;" style="rounded=1;whiteSpace=wrap;html=1;arcSize=50;" vertex="1" parent="S7uSwl5i3R4dip4OoaD3-98">
          <mxGeometry x="200" y="10" width="80" height="20" as="geometry" />
        </mxCell>
        <mxCell id="S7uSwl5i3R4dip4OoaD3-103" value="" style="endArrow=none;html=1;rounded=0;entryX=0;entryY=0.5;entryDx=0;entryDy=0;exitX=1;exitY=0.5;exitDx=0;exitDy=0;" edge="1" parent="S7uSwl5i3R4dip4OoaD3-98" source="S7uSwl5i3R4dip4OoaD3-99" target="S7uSwl5i3R4dip4OoaD3-102">
          <mxGeometry width="50" height="50" relative="1" as="geometry">
            <mxPoint x="110" y="10" as="sourcePoint" />
            <mxPoint x="160" y="-40" as="targetPoint" />
          </mxGeometry>
        </mxCell>
        <mxCell id="S7uSwl5i3R4dip4OoaD3-105" value="" style="endArrow=none;html=1;rounded=0;entryX=0;entryY=0.5;entryDx=0;entryDy=0;" edge="1" parent="S7uSwl5i3R4dip4OoaD3-98" target="S7uSwl5i3R4dip4OoaD3-100">
          <mxGeometry width="50" height="50" relative="1" as="geometry">
            <mxPoint x="160" y="40" as="sourcePoint" />
            <mxPoint x="160" y="-40" as="targetPoint" />
          </mxGeometry>
        </mxCell>
        <mxCell id="S7uSwl5i3R4dip4OoaD3-114" value="" style="endArrow=none;html=1;rounded=0;entryX=1;entryY=1;entryDx=0;entryDy=0;exitX=0.5;exitY=0;exitDx=0;exitDy=0;" edge="1" parent="1" source="S7uSwl5i3R4dip4OoaD3-99" target="S7uSwl5i3R4dip4OoaD3-22">
          <mxGeometry width="50" height="50" relative="1" as="geometry">
            <mxPoint x="830" y="550" as="sourcePoint" />
            <mxPoint x="880" y="500" as="targetPoint" />
            <Array as="points">
              <mxPoint x="1000" y="540" />
            </Array>
          </mxGeometry>
        </mxCell>
        <mxCell id="S7uSwl5i3R4dip4OoaD3-106" value="" style="group" vertex="1" connectable="0" parent="1">
          <mxGeometry x="909" y="517.5" width="260" height="62.5" as="geometry" />
        </mxCell>
        <mxCell id="S7uSwl5i3R4dip4OoaD3-107" value="Transportar" style="rhombus;whiteSpace=wrap;html=1;" vertex="1" parent="S7uSwl5i3R4dip4OoaD3-106">
          <mxGeometry y="2.5" width="140" height="50" as="geometry" />
        </mxCell>
        <mxCell id="S7uSwl5i3R4dip4OoaD3-108" value="" style="group" vertex="1" connectable="0" parent="S7uSwl5i3R4dip4OoaD3-106">
          <mxGeometry x="170" width="90" height="62.5" as="geometry" />
        </mxCell>
        <mxCell id="S7uSwl5i3R4dip4OoaD3-109" value="" style="group" vertex="1" connectable="0" parent="S7uSwl5i3R4dip4OoaD3-108">
          <mxGeometry width="90" height="62.5" as="geometry" />
        </mxCell>
        <mxCell id="S7uSwl5i3R4dip4OoaD3-110" value="cod_paquete" style="rounded=1;whiteSpace=wrap;html=1;arcSize=50;" vertex="1" parent="S7uSwl5i3R4dip4OoaD3-109">
          <mxGeometry width="90" height="20" as="geometry" />
        </mxCell>
        <mxCell id="S7uSwl5i3R4dip4OoaD3-111" value="cod_ciudad" style="rounded=1;whiteSpace=wrap;html=1;arcSize=50;" vertex="1" parent="S7uSwl5i3R4dip4OoaD3-109">
          <mxGeometry y="42.5" width="90" height="20" as="geometry" />
        </mxCell>
        <mxCell id="S7uSwl5i3R4dip4OoaD3-112" value="" style="endArrow=none;html=1;rounded=0;exitX=1;exitY=0.5;exitDx=0;exitDy=0;entryX=0;entryY=0.5;entryDx=0;entryDy=0;" edge="1" parent="S7uSwl5i3R4dip4OoaD3-106" source="S7uSwl5i3R4dip4OoaD3-107" target="S7uSwl5i3R4dip4OoaD3-110">
          <mxGeometry width="50" height="50" relative="1" as="geometry">
            <mxPoint x="490" y="-87.5" as="sourcePoint" />
            <mxPoint x="540" y="-137.5" as="targetPoint" />
          </mxGeometry>
        </mxCell>
        <mxCell id="S7uSwl5i3R4dip4OoaD3-113" value="" style="endArrow=none;html=1;rounded=0;exitX=1;exitY=0.5;exitDx=0;exitDy=0;entryX=0;entryY=0.5;entryDx=0;entryDy=0;" edge="1" parent="S7uSwl5i3R4dip4OoaD3-106" source="S7uSwl5i3R4dip4OoaD3-107" target="S7uSwl5i3R4dip4OoaD3-111">
          <mxGeometry width="50" height="50" relative="1" as="geometry">
            <mxPoint x="150" y="37.5" as="sourcePoint" />
            <mxPoint x="180" y="22.5" as="targetPoint" />
          </mxGeometry>
        </mxCell>
      </root>
    </mxGraphModel>
  </diagram>
</mxfile>
